<?xml version="1.0" encoding="utf-8"?>
<!-- Generator: Adobe Illustrator 17.0.0, SVG Export Plug-In . SVG Version: 6.00 Build 0)  -->
<!DOCTYPE svg PUBLIC "-//W3C//DTD SVG 1.1//EN" "http://www.w3.org/Graphics/SVG/1.1/DTD/svg11.dtd">
<svg version="1.1" id="Layer_1" xmlns="http://www.w3.org/2000/svg" xmlns:xlink="http://www.w3.org/1999/xlink" x="0px" y="0px"
	 width="53.128px" height="38.708px" viewBox="0 0 53.128 38.708" enable-background="new 0 0 53.128 38.708" xml:space="preserve">
<g>
	<path fill="#828281" d="M2.277,4.554h48.574c1.252,0,2.277-1.025,2.277-2.276C53.128,1.025,52.104,0,50.851,0H2.277
		C1.025,0,0,1.025,0,2.277C0,3.529,1.025,4.554,2.277,4.554z"/>
	<path fill="#828281" d="M50.851,17.077H2.277C1.025,17.077,0,18.102,0,19.354c0,1.252,1.025,2.276,2.277,2.276h48.574
		c1.252,0,2.277-1.025,2.277-2.276C53.128,18.102,52.104,17.077,50.851,17.077z"/>
	<path fill="#828281" d="M50.851,34.154H2.277C1.025,34.154,0,35.179,0,36.431c0,1.252,1.025,2.276,2.277,2.276h48.574
		c1.252,0,2.277-1.025,2.277-2.276C53.128,35.179,52.104,34.154,50.851,34.154z"/>
</g>
</svg>
