<?xml version="1.0" encoding="utf-8"?>
<!-- Generator: Adobe Illustrator 17.0.0, SVG Export Plug-In . SVG Version: 6.00 Build 0)  -->
<!DOCTYPE svg PUBLIC "-//W3C//DTD SVG 1.1//EN" "http://www.w3.org/Graphics/SVG/1.1/DTD/svg11.dtd">
<svg version="1.1" id="Layer_1" xmlns="http://www.w3.org/2000/svg" xmlns:xlink="http://www.w3.org/1999/xlink" x="0px" y="0px"
	 width="88px" height="114.667px" viewBox="0 0 88 114.667" enable-background="new 0 0 88 114.667" xml:space="preserve">
<g>
	<path fill="#394049" stroke="#394049" stroke-width="0.2835" stroke-miterlimit="10" d="M7.344,91.451l-1.058,3.202H4.927
		l3.459-10.182h1.586l3.475,10.182h-1.405l-1.087-3.202H7.344z M10.682,90.424l-0.997-2.931c-0.227-0.665-0.377-1.27-0.528-1.858
		h-0.03c-0.151,0.604-0.317,1.224-0.514,1.843l-0.997,2.946H10.682z"/>
	<path fill="#394049" stroke="#394049" stroke-width="0.2835" stroke-miterlimit="10" d="M14.898,89.623
		c0-0.861-0.015-1.602-0.061-2.281h1.163l0.046,1.436h0.061c0.332-0.982,1.133-1.602,2.024-1.602c0.15,0,0.257,0.015,0.377,0.045
		v1.254c-0.136-0.03-0.271-0.045-0.453-0.045c-0.937,0-1.601,0.71-1.782,1.707c-0.03,0.181-0.061,0.393-0.061,0.619v3.897h-1.314
		V89.623z"/>
	<path fill="#394049" stroke="#394049" stroke-width="0.2835" stroke-miterlimit="10" d="M24.825,93.521h-0.03
		c-0.393,0.725-1.209,1.299-2.387,1.299c-1.707,0-3.097-1.48-3.097-3.701c0-2.734,1.768-3.942,3.308-3.942
		c1.134,0,1.889,0.559,2.251,1.269h0.03l0.046-1.103H26.2c-0.03,0.619-0.046,1.254-0.046,2.009v8.294h-1.329V93.521z M24.825,90.303
		c0-0.182-0.016-0.393-0.061-0.559c-0.196-0.816-0.906-1.511-1.903-1.511c-1.375,0-2.205,1.163-2.205,2.81
		c0,1.45,0.694,2.719,2.16,2.719c0.86,0,1.601-0.528,1.903-1.45c0.06-0.181,0.105-0.438,0.105-0.634V90.303z"/>
	<path fill="#394049" stroke="#394049" stroke-width="0.2835" stroke-miterlimit="10" d="M34.465,92.659
		c0,0.756,0.016,1.42,0.061,1.994h-1.179l-0.075-1.193h-0.03c-0.348,0.589-1.118,1.359-2.417,1.359
		c-1.148,0-2.522-0.635-2.522-3.202v-4.275h1.329v4.049c0,1.39,0.423,2.326,1.632,2.326c0.891,0,1.511-0.619,1.752-1.209
		c0.075-0.196,0.121-0.438,0.121-0.68v-4.486h1.329V92.659z"/>
	<path fill="#394049" stroke="#394049" stroke-width="0.2835" stroke-miterlimit="10" d="M38.152,85.287
		c0.016,0.453-0.317,0.816-0.846,0.816c-0.469,0-0.801-0.363-0.801-0.816c0-0.468,0.348-0.83,0.831-0.83
		C37.835,84.457,38.152,84.819,38.152,85.287z M36.672,94.653v-7.312h1.329v7.312H36.672z"/>
	<path fill="#394049" stroke="#394049" stroke-width="0.2835" stroke-miterlimit="10" d="M41.81,85.59v1.752h1.903v1.013H41.81
		v3.942c0,0.906,0.257,1.42,0.997,1.42c0.362,0,0.574-0.03,0.771-0.091l0.061,0.997c-0.257,0.105-0.665,0.196-1.179,0.196
		c-0.619,0-1.118-0.211-1.435-0.574c-0.378-0.393-0.514-1.042-0.514-1.903v-3.987h-1.134v-1.013h1.134v-1.345L41.81,85.59z"/>
	<path fill="#394049" stroke="#394049" stroke-width="0.2835" stroke-miterlimit="10" d="M45.949,91.239
		c0.03,1.798,1.179,2.538,2.508,2.538c0.952,0,1.525-0.166,2.024-0.378l0.227,0.952c-0.469,0.211-1.27,0.468-2.433,0.468
		c-2.25,0-3.595-1.495-3.595-3.701c0-2.205,1.299-3.942,3.429-3.942c2.387,0,3.021,2.1,3.021,3.444c0,0.271-0.03,0.483-0.045,0.619
		H45.949z M49.847,90.288c0.016-0.847-0.348-2.161-1.843-2.161c-1.345,0-1.934,1.239-2.039,2.161H49.847z"/>
	<path fill="#394049" stroke="#394049" stroke-width="0.2835" stroke-miterlimit="10" d="M57.991,94.382
		c-0.348,0.181-1.118,0.438-2.1,0.438c-2.206,0-3.641-1.511-3.641-3.746c0-2.251,1.541-3.883,3.928-3.883
		c0.785,0,1.48,0.197,1.843,0.378l-0.303,1.027c-0.316-0.182-0.815-0.348-1.54-0.348c-1.677,0-2.583,1.239-2.583,2.765
		c0,1.692,1.087,2.734,2.537,2.734c0.756,0,1.254-0.196,1.632-0.362L57.991,94.382z"/>
	<path fill="#394049" stroke="#394049" stroke-width="0.2835" stroke-miterlimit="10" d="M61.149,85.59v1.752h1.903v1.013h-1.903
		v3.942c0,0.906,0.257,1.42,0.997,1.42c0.362,0,0.574-0.03,0.771-0.091l0.061,0.997c-0.257,0.105-0.665,0.196-1.179,0.196
		c-0.619,0-1.118-0.211-1.435-0.574c-0.378-0.393-0.514-1.042-0.514-1.903v-3.987h-1.134v-1.013h1.134v-1.345L61.149,85.59z"/>
	<path fill="#394049" stroke="#394049" stroke-width="0.2835" stroke-miterlimit="10" d="M70.668,92.659
		c0,0.756,0.016,1.42,0.061,1.994H69.55l-0.075-1.193h-0.03c-0.348,0.589-1.118,1.359-2.417,1.359c-1.148,0-2.522-0.635-2.522-3.202
		v-4.275h1.329v4.049c0,1.39,0.423,2.326,1.632,2.326c0.891,0,1.511-0.619,1.752-1.209c0.075-0.196,0.121-0.438,0.121-0.68v-4.486
		h1.329V92.659z"/>
	<path fill="#394049" stroke="#394049" stroke-width="0.2835" stroke-miterlimit="10" d="M72.875,89.623
		c0-0.861-0.015-1.602-0.061-2.281h1.163l0.046,1.436h0.061c0.332-0.982,1.133-1.602,2.024-1.602c0.15,0,0.257,0.015,0.377,0.045
		v1.254c-0.136-0.03-0.271-0.045-0.453-0.045c-0.937,0-1.601,0.71-1.782,1.707c-0.03,0.181-0.061,0.393-0.061,0.619v3.897h-1.314
		V89.623z"/>
	<path fill="#394049" stroke="#394049" stroke-width="0.2835" stroke-miterlimit="10" d="M82.953,92.901
		c0,0.634,0.03,1.254,0.12,1.752h-1.208l-0.105-0.922h-0.046c-0.407,0.574-1.193,1.088-2.235,1.088c-1.48,0-2.236-1.042-2.236-2.1
		c0-1.768,1.571-2.734,4.396-2.719V89.85c0-0.604-0.166-1.692-1.662-1.692c-0.68,0-1.39,0.212-1.903,0.544l-0.302-0.876
		c0.604-0.393,1.48-0.649,2.401-0.649c2.236,0,2.78,1.525,2.78,2.991V92.901z M81.669,90.922c-1.45-0.03-3.097,0.227-3.097,1.646
		c0,0.861,0.573,1.27,1.254,1.27c0.951,0,1.556-0.604,1.767-1.224c0.046-0.136,0.076-0.287,0.076-0.423V90.922z"/>
	<path fill="#394049" stroke="#394049" stroke-width="0.2835" stroke-miterlimit="10" d="M9.096,108.095
		c0.03,1.798,1.179,2.538,2.508,2.538c0.952,0,1.525-0.166,2.024-0.378l0.227,0.952c-0.469,0.211-1.27,0.468-2.433,0.468
		c-2.25,0-3.595-1.495-3.595-3.701c0-2.205,1.299-3.942,3.429-3.942c2.387,0,3.021,2.1,3.021,3.444c0,0.271-0.03,0.483-0.045,0.619
		H9.096z M12.993,107.144c0.016-0.847-0.348-2.16-1.843-2.16c-1.345,0-1.934,1.238-2.039,2.16H12.993z"/>
	<path fill="#394049" stroke="#394049" stroke-width="0.2835" stroke-miterlimit="10" d="M20.488,101.328v10.182h-1.313v-10.182
		H20.488z"/>
	<path fill="#394049" stroke="#394049" stroke-width="0.2835" stroke-miterlimit="10" d="M22.74,106.177
		c0-0.756-0.015-1.375-0.061-1.979h1.179l0.075,1.209h0.03c0.362-0.695,1.209-1.375,2.417-1.375c1.013,0,2.583,0.604,2.583,3.112
		v4.365h-1.329v-4.215c0-1.178-0.438-2.16-1.691-2.16c-0.877,0-1.557,0.619-1.783,1.359c-0.061,0.167-0.091,0.394-0.091,0.62v4.396
		H22.74V106.177z"/>
	<path fill="#394049" stroke="#394049" stroke-width="0.2835" stroke-miterlimit="10" d="M37.365,110.452
		c0,1.677-0.332,2.704-1.043,3.339c-0.71,0.664-1.736,0.876-2.658,0.876c-0.876,0-1.843-0.212-2.432-0.604l0.332-1.012
		c0.483,0.302,1.238,0.574,2.145,0.574c1.36,0,2.357-0.71,2.357-2.554v-0.815h-0.03c-0.408,0.68-1.193,1.224-2.327,1.224
		c-1.812,0-3.111-1.541-3.111-3.565c0-2.477,1.616-3.882,3.293-3.882c1.269,0,1.964,0.665,2.281,1.269h0.03l0.061-1.103h1.163
		c-0.03,0.529-0.061,1.118-0.061,2.009V110.452z M36.051,107.084c0-0.227-0.015-0.423-0.075-0.604
		c-0.242-0.771-0.892-1.405-1.858-1.405c-1.269,0-2.175,1.073-2.175,2.765c0,1.436,0.725,2.629,2.16,2.629
		c0.815,0,1.556-0.514,1.843-1.36c0.075-0.227,0.105-0.483,0.105-0.71V107.084z"/>
	<path fill="#394049" stroke="#394049" stroke-width="0.2835" stroke-miterlimit="10" d="M40.312,108.095
		c0.03,1.798,1.179,2.538,2.508,2.538c0.952,0,1.525-0.166,2.024-0.378l0.227,0.952c-0.469,0.211-1.27,0.468-2.433,0.468
		c-2.25,0-3.595-1.495-3.595-3.701c0-2.205,1.299-3.942,3.429-3.942c2.387,0,3.021,2.1,3.021,3.444c0,0.271-0.03,0.483-0.045,0.619
		H40.312z M44.21,107.144c0.016-0.847-0.348-2.16-1.843-2.16c-1.345,0-1.934,1.238-2.039,2.16H44.21z"/>
	<path fill="#394049" stroke="#394049" stroke-width="0.2835" stroke-miterlimit="10" d="M47.143,106.177
		c0-0.756-0.015-1.375-0.061-1.979h1.179l0.075,1.209h0.03c0.362-0.695,1.209-1.375,2.417-1.375c1.013,0,2.583,0.604,2.583,3.112
		v4.365h-1.329v-4.215c0-1.178-0.438-2.16-1.691-2.16c-0.877,0-1.557,0.619-1.783,1.359c-0.061,0.167-0.091,0.394-0.091,0.62v4.396
		h-1.329V106.177z"/>
	<path fill="#394049" stroke="#394049" stroke-width="0.2835" stroke-miterlimit="10" d="M57.009,102.143
		c0.016,0.453-0.317,0.816-0.846,0.816c-0.469,0-0.801-0.363-0.801-0.816c0-0.468,0.348-0.83,0.831-0.83
		C56.691,101.313,57.009,101.675,57.009,102.143z M55.528,111.509v-7.312h1.329v7.312H55.528z"/>
	<path fill="#394049" stroke="#394049" stroke-width="0.2835" stroke-miterlimit="10" d="M59.805,108.095
		c0.03,1.798,1.179,2.538,2.508,2.538c0.952,0,1.525-0.166,2.024-0.378l0.227,0.952c-0.469,0.211-1.27,0.468-2.433,0.468
		c-2.25,0-3.595-1.495-3.595-3.701c0-2.205,1.299-3.942,3.429-3.942c2.387,0,3.021,2.1,3.021,3.444c0,0.271-0.03,0.483-0.045,0.619
		H59.805z M63.702,107.144c0.016-0.847-0.348-2.16-1.843-2.16c-1.345,0-1.934,1.238-2.039,2.16H63.702z"/>
	<path fill="#394049" stroke="#394049" stroke-width="0.2835" stroke-miterlimit="10" d="M66.634,106.479
		c0-0.861-0.015-1.602-0.061-2.281h1.163l0.046,1.436h0.061c0.332-0.982,1.133-1.602,2.024-1.602c0.15,0,0.256,0.015,0.377,0.045
		v1.254c-0.136-0.03-0.271-0.045-0.453-0.045c-0.937,0-1.602,0.71-1.782,1.707c-0.03,0.181-0.061,0.393-0.061,0.619v3.897h-1.314
		V106.479z"/>
	<path fill="#394049" stroke="#394049" stroke-width="0.2835" stroke-miterlimit="10" d="M74.279,102.316l-1.843,0.884h-0.952
		l1.33-0.884H74.279z M71.575,111.509v-7.312h1.329v7.312H71.575z"/>
	<path fill="#394049" stroke="#394049" stroke-width="0.2835" stroke-miterlimit="10" d="M80.247,109.757
		c0,0.634,0.03,1.254,0.12,1.752h-1.208l-0.105-0.922h-0.046c-0.408,0.574-1.193,1.088-2.235,1.088c-1.48,0-2.236-1.042-2.236-2.1
		c0-1.768,1.571-2.734,4.396-2.719v-0.151c0-0.604-0.166-1.692-1.662-1.692c-0.68,0-1.39,0.212-1.903,0.544l-0.302-0.876
		c0.604-0.393,1.48-0.649,2.401-0.649c2.236,0,2.78,1.525,2.78,2.991V109.757z M78.963,107.778c-1.45-0.03-3.097,0.227-3.097,1.646
		c0,0.861,0.573,1.27,1.254,1.27c0.951,0,1.556-0.604,1.767-1.224c0.046-0.137,0.076-0.287,0.076-0.423V107.778z"/>
</g>
<g>
	<path fill="#394049" d="M66.303,66.519c-0.182-0.629-0.409-1.389-0.676-2.254c-0.27-0.868-0.559-1.852-0.899-2.914
		c-0.344-1.062-0.71-2.212-1.1-3.427c-0.378-1.219-0.826-2.49-1.263-3.813c-0.448-1.317-0.907-2.678-1.373-4.064
		c-0.483-1.377-0.973-2.774-1.467-4.171c-0.409-1.182-0.826-2.354-1.242-3.516h2.762v-2.246h-3.577
		c-0.296-0.822-0.598-1.637-0.891-2.431c-0.961-2.605-1.875-5.029-2.667-7.102c-0.799-2.073-1.467-3.798-1.933-5.005
		c-0.228-0.575-0.39-1.038-0.536-1.351c0.664-1.216,1.041-2.609,1.041-4.087c0-4.095-2.886-7.518-6.73-8.363V2.297h-3.67v9.479
		c-3.84,0.845-6.726,4.268-6.726,8.363c0,1.644,0.474,3.18,1.284,4.488c-0.019,0.008-0.043,0.019-0.057,0.031
		c-0.155,0.312-0.321,0.795-0.56,1.393c-0.466,1.208-1.13,2.933-1.929,5.006c-0.795,2.072-1.709,4.495-2.671,7.101
		c-0.235,0.644-0.474,1.297-0.717,1.96h-3.91v2.243h3.095c-0.478,1.316-0.953,2.652-1.416,3.99c-0.49,1.397-0.984,2.798-1.467,4.176
		c-0.466,1.381-0.926,2.744-1.369,4.063c-0.441,1.32-0.884,2.589-1.267,3.809c-0.389,1.22-0.756,2.366-1.1,3.431
		c-0.34,1.061-0.629,2.045-0.895,2.91c-0.267,0.868-0.498,1.625-0.676,2.255c-0.359,1.254-0.567,1.972-0.567,1.972
		s0.397-0.633,1.089-1.737c0.347-0.556,0.76-1.231,1.223-2.011c0.466-0.78,1.007-1.652,1.567-2.613
		c0.559-0.964,1.169-2.007,1.814-3.11c0.652-1.101,1.296-2.281,1.987-3.49c0.684-1.211,1.39-2.466,2.107-3.739
		c0.698-1.277,1.409-2.578,2.123-3.878c1.119-2.026,2.211-4.065,3.249-6.029H42.9v4.079h2.038V42.36h7.02
		c0.965,1.818,1.972,3.689,2.998,5.553c0.714,1.3,1.425,2.601,2.127,3.879c0.713,1.273,1.42,2.527,2.103,3.739
		c0.691,1.208,1.335,2.389,1.987,3.489c0.645,1.104,1.255,2.146,1.814,3.107c0.564,0.964,1.101,1.837,1.567,2.616
		c0.463,0.78,0.876,1.455,1.224,2.007c0.691,1.109,1.088,1.741,1.088,1.741S66.662,67.774,66.303,66.519L66.303,66.519z
		 M43.918,14.022c3.374,0,6.117,2.745,6.117,6.117c0,3.369-2.748,6.113-6.117,6.113c-3.373,0-6.117-2.744-6.117-6.113
		C37.802,16.766,40.546,14.022,43.918,14.022L43.918,14.022z M44.938,40.118v-3.06H42.9v3.06h-5.422
		c1.17-2.23,2.254-4.322,3.184-6.135c1.003-1.976,1.841-3.628,2.427-4.782c0.096-0.194,0.181-0.367,0.27-0.529
		c0.182,0.011,0.37,0.027,0.559,0.027c0.325,0,0.641-0.02,0.953-0.054c0.016,0.028,0.028,0.054,0.042,0.081
		c0.587,1.154,1.425,2.802,2.427,4.782c0.996,1.941,2.162,4.199,3.435,6.608h-5.839V40.118z M44.938,40.118"/>
	<path fill="#394049" d="M44,23.238c1.821,0,3.307-1.482,3.307-3.304c0-1.826-1.486-3.308-3.307-3.308
		c-1.822,0-3.304,1.486-3.304,3.308C40.697,21.756,42.179,23.238,44,23.238L44,23.238z M44,17.24c1.485,0,2.693,1.208,2.693,2.694
		c0,1.486-1.208,2.693-2.693,2.693c-1.486,0-2.69-1.207-2.69-2.693C41.31,18.449,42.515,17.24,44,17.24L44,17.24z M44,17.24"/>
</g>
<line fill="none" stroke="#394049" stroke-width="0.7087" stroke-miterlimit="10" x1="0" y1="78.001" x2="88" y2="78.001"/>
</svg>
