<?xml version="1.0" encoding="utf-8"?>
<!-- Generator: Adobe Illustrator 17.0.0, SVG Export Plug-In . SVG Version: 6.00 Build 0)  -->
<!DOCTYPE svg PUBLIC "-//W3C//DTD SVG 1.1//EN" "http://www.w3.org/Graphics/SVG/1.1/DTD/svg11.dtd">
<svg version="1.1" id="Layer_1" xmlns="http://www.w3.org/2000/svg" xmlns:xlink="http://www.w3.org/1999/xlink" x="0px" y="0px"
	 width="88px" height="114.667px" viewBox="0 0 88 114.667" enable-background="new 0 0 88 114.667" xml:space="preserve">
<g>
	<path fill="#394049" stroke="#394049" stroke-width="0.2835" stroke-miterlimit="10" d="M10.71,94.508
		c-0.485,0.242-1.455,0.5-2.697,0.5c-2.879,0-5.046-1.834-5.046-5.183c0-3.196,2.167-5.363,5.333-5.363
		c1.273,0,2.076,0.272,2.424,0.454l-0.318,1.076c-0.5-0.242-1.212-0.425-2.061-0.425c-2.394,0-3.985,1.531-3.985,4.213
		c0,2.5,1.439,4.106,3.924,4.106c0.803,0,1.621-0.167,2.152-0.425L10.71,94.508z"/>
	<path fill="#394049" stroke="#394049" stroke-width="0.2835" stroke-miterlimit="10" d="M18.951,91.113
		c0,2.712-1.879,3.895-3.652,3.895c-1.985,0-3.515-1.455-3.515-3.773c0-2.454,1.606-3.894,3.637-3.894
		C17.527,87.341,18.951,88.871,18.951,91.113z M13.133,91.189c0,1.605,0.924,2.818,2.228,2.818c1.272,0,2.227-1.197,2.227-2.849
		c0-1.243-0.621-2.818-2.197-2.818C13.814,88.341,13.133,89.795,13.133,91.189z"/>
	<path fill="#394049" stroke="#394049" stroke-width="0.2835" stroke-miterlimit="10" d="M20.631,89.492
		c0-0.758-0.015-1.379-0.061-1.985h1.182l0.076,1.213h0.03c0.364-0.697,1.212-1.379,2.424-1.379c1.015,0,2.591,0.605,2.591,3.121
		v4.379H25.54v-4.228c0-1.182-0.439-2.167-1.697-2.167c-0.879,0-1.561,0.622-1.788,1.364c-0.061,0.166-0.091,0.394-0.091,0.621
		v4.409h-1.333V89.492z"/>
	<path fill="#394049" stroke="#394049" stroke-width="0.2835" stroke-miterlimit="10" d="M28.858,93.478
		c0.394,0.257,1.091,0.53,1.758,0.53c0.97,0,1.424-0.485,1.424-1.091c0-0.637-0.378-0.985-1.363-1.349
		c-1.318-0.47-1.939-1.197-1.939-2.076c0-1.182,0.955-2.151,2.53-2.151c0.742,0,1.394,0.212,1.803,0.454l-0.333,0.97
		c-0.288-0.182-0.818-0.424-1.5-0.424c-0.788,0-1.228,0.454-1.228,1c0,0.605,0.439,0.879,1.394,1.242
		c1.273,0.485,1.924,1.121,1.924,2.212c0,1.288-1,2.213-2.743,2.213c-0.803,0-1.545-0.213-2.061-0.516L28.858,93.478z"/>
	<path fill="#394049" stroke="#394049" stroke-width="0.2835" stroke-miterlimit="10" d="M36.645,85.75v1.757h1.909v1.016h-1.909
		v3.955c0,0.909,0.257,1.424,1,1.424c0.363,0,0.576-0.03,0.772-0.091l0.061,1c-0.257,0.106-0.667,0.197-1.182,0.197
		c-0.621,0-1.121-0.213-1.439-0.576c-0.379-0.394-0.515-1.045-0.515-1.909v-4h-1.136v-1.016h1.136v-1.348L36.645,85.75z"/>
	<path fill="#394049" stroke="#394049" stroke-width="0.2835" stroke-miterlimit="10" d="M40.053,89.795
		c0-0.863-0.015-1.605-0.061-2.288h1.167l0.045,1.439h0.061c0.333-0.984,1.136-1.605,2.03-1.605c0.151,0,0.257,0.015,0.379,0.045
		v1.258c-0.137-0.03-0.273-0.045-0.455-0.045c-0.939,0-1.606,0.712-1.788,1.712c-0.03,0.182-0.061,0.394-0.061,0.621v3.909h-1.318
		V89.795z"/>
	<path fill="#394049" stroke="#394049" stroke-width="0.2835" stroke-miterlimit="10" d="M51.144,92.841
		c0,0.758,0.015,1.424,0.061,2h-1.182l-0.076-1.197h-0.03c-0.348,0.591-1.121,1.364-2.424,1.364c-1.151,0-2.53-0.637-2.53-3.213
		v-4.288h1.333v4.062c0,1.394,0.424,2.333,1.636,2.333c0.894,0,1.515-0.621,1.758-1.212c0.076-0.197,0.121-0.439,0.121-0.682v-4.501
		h1.333V92.841z"/>
	<path fill="#394049" stroke="#394049" stroke-width="0.2835" stroke-miterlimit="10" d="M58.582,94.568
		c-0.349,0.182-1.121,0.439-2.106,0.439c-2.212,0-3.652-1.516-3.652-3.758c0-2.258,1.545-3.895,3.939-3.895
		c0.788,0,1.485,0.197,1.849,0.379l-0.303,1.03c-0.318-0.182-0.818-0.349-1.545-0.349c-1.682,0-2.591,1.243-2.591,2.773
		c0,1.696,1.091,2.742,2.545,2.742c0.758,0,1.258-0.197,1.637-0.363L58.582,94.568z"/>
	<path fill="#394049" stroke="#394049" stroke-width="0.2835" stroke-miterlimit="10" d="M65.369,94.568
		c-0.349,0.182-1.121,0.439-2.106,0.439c-2.212,0-3.652-1.516-3.652-3.758c0-2.258,1.545-3.895,3.939-3.895
		c0.788,0,1.485,0.197,1.849,0.379l-0.303,1.03c-0.318-0.182-0.818-0.349-1.545-0.349c-1.682,0-2.591,1.243-2.591,2.773
		c0,1.696,1.091,2.742,2.545,2.742c0.758,0,1.258-0.197,1.637-0.363L65.369,94.568z"/>
	<path fill="#394049" stroke="#394049" stroke-width="0.2835" stroke-miterlimit="10" d="M68.413,85.446
		c0.015,0.455-0.318,0.818-0.848,0.818c-0.47,0-0.803-0.363-0.803-0.818c0-0.47,0.349-0.833,0.833-0.833
		C68.095,84.613,68.413,84.977,68.413,85.446z M66.928,94.841v-7.334h1.333v7.334H66.928z"/>
	<path fill="#394049" stroke="#394049" stroke-width="0.2835" stroke-miterlimit="10" d="M77.11,91.113
		c0,2.712-1.879,3.895-3.652,3.895c-1.985,0-3.515-1.455-3.515-3.773c0-2.454,1.606-3.894,3.637-3.894
		C75.686,87.341,77.11,88.871,77.11,91.113z M71.292,91.189c0,1.605,0.924,2.818,2.228,2.818c1.272,0,2.227-1.197,2.227-2.849
		c0-1.243-0.621-2.818-2.197-2.818C71.973,88.341,71.292,89.795,71.292,91.189z M75.519,84.341l-1.849,2.166h-0.955l1.333-2.166
		H75.519z"/>
	<path fill="#394049" stroke="#394049" stroke-width="0.2835" stroke-miterlimit="10" d="M78.79,89.492
		c0-0.758-0.015-1.379-0.061-1.985h1.182l0.076,1.213h0.03c0.364-0.697,1.212-1.379,2.424-1.379c1.015,0,2.591,0.605,2.591,3.121
		v4.379h-1.333v-4.228c0-1.182-0.439-2.167-1.697-2.167c-0.879,0-1.561,0.622-1.788,1.364c-0.061,0.166-0.091,0.394-0.091,0.621
		v4.409H78.79V89.492z"/>
	<path fill="#394049" stroke="#394049" stroke-width="0.2835" stroke-miterlimit="10" d="M21.178,111.263
		c0,0.637,0.03,1.258,0.121,1.758h-1.212l-0.106-0.924h-0.045c-0.409,0.575-1.197,1.091-2.242,1.091
		c-1.485,0-2.243-1.046-2.243-2.106c0-1.772,1.576-2.742,4.409-2.728v-0.151c0-0.606-0.167-1.697-1.667-1.697
		c-0.682,0-1.394,0.212-1.909,0.546l-0.303-0.879c0.606-0.394,1.485-0.651,2.409-0.651c2.243,0,2.788,1.53,2.788,3V111.263z
		 M19.89,109.278c-1.455-0.03-3.106,0.227-3.106,1.651c0,0.863,0.576,1.272,1.257,1.272c0.955,0,1.561-0.605,1.773-1.228
		c0.045-0.136,0.076-0.287,0.076-0.424V109.278z"/>
	<path fill="#394049" stroke="#394049" stroke-width="0.2835" stroke-miterlimit="10" d="M26.54,107.672
		c0-0.758-0.015-1.379-0.061-1.985h1.167l0.061,1.183h0.045c0.409-0.697,1.091-1.349,2.303-1.349c1,0,1.757,0.605,2.076,1.47h0.03
		c0.227-0.409,0.515-0.728,0.818-0.955c0.439-0.333,0.924-0.515,1.621-0.515c0.97,0,2.409,0.636,2.409,3.182v4.318h-1.303v-4.151
		c0-1.409-0.515-2.258-1.591-2.258c-0.758,0-1.349,0.561-1.576,1.212c-0.061,0.182-0.106,0.425-0.106,0.667v4.53h-1.303v-4.395
		c0-1.166-0.515-2.015-1.53-2.015c-0.833,0-1.439,0.667-1.652,1.333c-0.076,0.197-0.106,0.425-0.106,0.651v4.425H26.54V107.672z"/>
	<path fill="#394049" stroke="#394049" stroke-width="0.2835" stroke-miterlimit="10" d="M39.917,109.596
		c0.03,1.804,1.182,2.546,2.515,2.546c0.955,0,1.53-0.167,2.03-0.379l0.228,0.955c-0.47,0.212-1.273,0.47-2.439,0.47
		c-2.258,0-3.606-1.5-3.606-3.713c0-2.212,1.303-3.954,3.439-3.954c2.394,0,3.031,2.105,3.031,3.454
		c0,0.273-0.031,0.485-0.046,0.621H39.917z M43.826,108.642c0.015-0.849-0.349-2.167-1.849-2.167c-1.349,0-1.939,1.243-2.045,2.167
		H43.826z"/>
	<path fill="#394049" stroke="#394049" stroke-width="0.2835" stroke-miterlimit="10" d="M53.098,102.263v8.864
		c0,0.651,0.015,1.394,0.061,1.894h-1.197l-0.061-1.272h-0.03c-0.409,0.818-1.303,1.439-2.5,1.439c-1.773,0-3.137-1.5-3.137-3.728
		c-0.015-2.439,1.5-3.939,3.288-3.939c1.121,0,1.879,0.53,2.212,1.121h0.03v-4.379H53.098z M51.765,108.672
		c0-0.167-0.015-0.394-0.061-0.561c-0.197-0.849-0.924-1.546-1.924-1.546c-1.378,0-2.197,1.213-2.197,2.834
		c0,1.484,0.727,2.712,2.167,2.712c0.894,0,1.712-0.591,1.955-1.591c0.046-0.182,0.061-0.363,0.061-0.576V108.672z"/>
	<path fill="#394049" stroke="#394049" stroke-width="0.2835" stroke-miterlimit="10" d="M56.794,103.626
		c0.015,0.455-0.318,0.818-0.848,0.818c-0.47,0-0.803-0.363-0.803-0.818c0-0.47,0.349-0.833,0.833-0.833
		C56.476,102.793,56.794,103.156,56.794,103.626z M55.309,113.021v-7.334h1.333v7.334H55.309z"/>
	<path fill="#394049" stroke="#394049" stroke-width="0.2835" stroke-miterlimit="10" d="M65.187,102.263v8.864
		c0,0.651,0.015,1.394,0.061,1.894h-1.197l-0.061-1.272h-0.03c-0.409,0.818-1.303,1.439-2.5,1.439c-1.773,0-3.137-1.5-3.137-3.728
		c-0.015-2.439,1.5-3.939,3.288-3.939c1.121,0,1.879,0.53,2.212,1.121h0.03v-4.379H65.187z M63.854,108.672
		c0-0.167-0.015-0.394-0.061-0.561c-0.197-0.849-0.924-1.546-1.924-1.546c-1.379,0-2.197,1.213-2.197,2.834
		c0,1.484,0.727,2.712,2.167,2.712c0.894,0,1.712-0.591,1.955-1.591c0.046-0.182,0.061-0.363,0.061-0.576V108.672z"/>
	<path fill="#394049" stroke="#394049" stroke-width="0.2835" stroke-miterlimit="10" d="M72.55,111.263
		c0,0.637,0.03,1.258,0.121,1.758h-1.212l-0.106-0.924h-0.045c-0.409,0.575-1.197,1.091-2.242,1.091
		c-1.485,0-2.243-1.046-2.243-2.106c0-1.772,1.576-2.742,4.409-2.728v-0.151c0-0.606-0.167-1.697-1.667-1.697
		c-0.682,0-1.394,0.212-1.909,0.546l-0.303-0.879c0.606-0.394,1.485-0.651,2.409-0.651c2.243,0,2.788,1.53,2.788,3V111.263z
		 M71.262,109.278c-1.455-0.03-3.106,0.227-3.106,1.651c0,0.863,0.576,1.272,1.257,1.272c0.955,0,1.561-0.605,1.773-1.228
		c0.045-0.136,0.076-0.287,0.076-0.424V109.278z"/>
</g>
<path fill="#394049" d="M75.186,2.232H26.605l-16.05,12.742v20.191h8.659h2.769L37.904,22.53l0.261-1.551
	c2.369,0.381,4.634,1.575,6.608,3.511c2.413,2.362,4.227,5.625,5.251,9.43l0.333,1.245h8.777h2.259l16.053-12.742V2.232H75.186z
	 M27.773,5.585h43.189L60.854,13.61H17.668L27.773,5.585z M25.413,28.162c2.235-3.76,5.414-6.316,8.918-7.077L25.413,28.162z
	 M52.899,31.814c-1.228-3.868-3.21-7.204-5.782-9.72c-2.989-2.925-6.553-4.516-10.306-4.595c-0.098,0-0.191-0.002-0.29-0.002
	c-3.813,0-7.443,1.558-10.495,4.495c-2.618,2.527-4.638,5.905-5.881,9.823h-6.24V16.963h45.228v14.851H52.899z M74.09,20.804
	l-11.608,9.212V16.592L74.09,7.38V20.804z"/>
<path fill="#394049" d="M26.605,36.106l-16.05,12.74v20.191h50.838l16.053-12.74V36.106H26.605z M70.962,39.462l-10.737,8.523
	H17.038l10.734-8.523H70.962z M13.905,51.336h45.226v14.353H13.905V51.336z M74.09,54.677l-11.608,9.217V50.467l4.614-3.66
	l6.994-5.55V54.677z"/>
<line fill="none" stroke="#394049" stroke-width="0.7087" stroke-miterlimit="10" x1="0" y1="78.001" x2="88" y2="78.001"/>
</svg>
