<?xml version="1.0" encoding="utf-8"?>
<!-- Generator: Adobe Illustrator 17.0.0, SVG Export Plug-In . SVG Version: 6.00 Build 0)  -->
<!DOCTYPE svg PUBLIC "-//W3C//DTD SVG 1.1//EN" "http://www.w3.org/Graphics/SVG/1.1/DTD/svg11.dtd">
<svg version="1.1" id="Layer_1" xmlns="http://www.w3.org/2000/svg" xmlns:xlink="http://www.w3.org/1999/xlink" x="0px" y="0px"
	 width="88px" height="114.667px" viewBox="0 0 88 114.667" enable-background="new 0 0 88 114.667" xml:space="preserve">
<g>
	<path fill="#394049" stroke="#394049" stroke-width="0.2835" stroke-miterlimit="10" d="M16.28,84.825
		c0.806-0.122,1.763-0.213,2.812-0.213c1.899,0,3.252,0.44,4.149,1.276c0.912,0.836,1.444,2.021,1.444,3.678
		c0,1.672-0.517,3.04-1.474,3.982c-0.958,0.957-2.538,1.474-4.529,1.474c-0.942,0-1.732-0.045-2.401-0.121V84.825z M17.602,93.883
		c0.334,0.061,0.821,0.076,1.337,0.076c2.827,0,4.362-1.58,4.362-4.347c0.015-2.416-1.353-3.951-4.149-3.951
		c-0.684,0-1.201,0.061-1.55,0.137V93.883z"/>
	<path fill="#394049" stroke="#394049" stroke-width="0.2835" stroke-miterlimit="10" d="M27.097,91.497
		c0.03,1.809,1.186,2.553,2.523,2.553c0.958,0,1.535-0.167,2.037-0.38l0.228,0.958c-0.471,0.213-1.277,0.471-2.447,0.471
		c-2.265,0-3.617-1.505-3.617-3.724s1.307-3.966,3.45-3.966c2.401,0,3.04,2.112,3.04,3.465c0,0.273-0.03,0.486-0.045,0.623H27.097z
		 M31.018,90.539c0.016-0.851-0.349-2.173-1.854-2.173c-1.353,0-1.945,1.246-2.052,2.173H31.018z"/>
	<path fill="#394049" stroke="#394049" stroke-width="0.2835" stroke-miterlimit="10" d="M33.782,93.563
		c0.395,0.259,1.094,0.532,1.763,0.532c0.973,0,1.429-0.486,1.429-1.094c0-0.639-0.38-0.988-1.368-1.354
		c-1.322-0.471-1.945-1.2-1.945-2.082c0-1.185,0.958-2.157,2.538-2.157c0.745,0,1.398,0.212,1.809,0.455l-0.334,0.973
		c-0.289-0.182-0.821-0.425-1.505-0.425c-0.79,0-1.231,0.456-1.231,1.003c0,0.607,0.441,0.881,1.398,1.246
		c1.276,0.486,1.93,1.125,1.93,2.219c0,1.292-1.003,2.219-2.751,2.219c-0.806,0-1.55-0.213-2.067-0.517L33.782,93.563z"/>
	<path fill="#394049" stroke="#394049" stroke-width="0.2835" stroke-miterlimit="10" d="M41.469,85.509
		c0.016,0.456-0.319,0.821-0.851,0.821c-0.471,0-0.805-0.365-0.805-0.821c0-0.471,0.35-0.836,0.836-0.836
		C41.151,84.673,41.469,85.038,41.469,85.509z M39.98,94.932v-7.355h1.337v7.355H39.98z"/>
	<path fill="#394049" stroke="#394049" stroke-width="0.2835" stroke-miterlimit="10" d="M49.812,93.868
		c0,1.687-0.334,2.72-1.049,3.358c-0.714,0.669-1.748,0.882-2.675,0.882c-0.881,0-1.854-0.213-2.447-0.608l0.334-1.019
		c0.486,0.305,1.246,0.578,2.158,0.578c1.368,0,2.371-0.715,2.371-2.568V93.67h-0.03c-0.411,0.685-1.201,1.231-2.34,1.231
		c-1.824,0-3.131-1.55-3.131-3.587c0-2.492,1.626-3.905,3.313-3.905c1.277,0,1.976,0.668,2.295,1.276h0.03l0.061-1.109h1.17
		c-0.03,0.531-0.061,1.124-0.061,2.021V93.868z M48.49,90.479c0-0.228-0.015-0.426-0.076-0.607
		c-0.243-0.775-0.896-1.414-1.869-1.414c-1.277,0-2.188,1.079-2.188,2.781c0,1.444,0.729,2.645,2.173,2.645
		c0.821,0,1.565-0.517,1.854-1.367c0.076-0.229,0.106-0.486,0.106-0.715V90.479z"/>
	<path fill="#394049" stroke="#394049" stroke-width="0.2835" stroke-miterlimit="10" d="M52.028,89.566
		c0-0.76-0.015-1.383-0.061-1.99h1.185l0.076,1.216h0.03c0.365-0.699,1.216-1.383,2.432-1.383c1.019,0,2.599,0.607,2.599,3.13v4.393
		h-1.337v-4.24c0-1.186-0.441-2.173-1.702-2.173c-0.882,0-1.565,0.623-1.793,1.367c-0.061,0.167-0.091,0.396-0.091,0.623v4.423
		h-1.337V89.566z"/>
	<path fill="#394049" stroke="#394049" stroke-width="0.2835" stroke-miterlimit="10" d="M70.139,94.932
		c-0.289-0.289-0.562-0.577-0.958-1.003c-0.881,0.82-1.869,1.17-2.994,1.17c-1.991,0-3.146-1.337-3.146-2.872
		c0-1.398,0.836-2.355,2.006-2.994v-0.046c-0.532-0.668-0.851-1.413-0.851-2.143c0-1.246,0.897-2.522,2.599-2.522
		c1.276,0,2.264,0.851,2.264,2.173c0,1.079-0.623,1.931-2.249,2.735v0.046c0.866,1.003,1.839,2.128,2.492,2.857
		c0.471-0.715,0.791-1.702,0.988-2.994h1.216c-0.274,1.611-0.714,2.888-1.475,3.784c0.547,0.577,1.079,1.155,1.687,1.809H70.139z
		 M66.431,94.096c0.866,0,1.611-0.396,2.097-0.927c-0.608-0.669-1.748-1.915-2.888-3.222c-0.547,0.349-1.322,1.003-1.322,2.082
		c0,1.17,0.867,2.066,2.098,2.066H66.431z M66.69,85.433c-0.836,0-1.277,0.699-1.277,1.49c0,0.729,0.334,1.291,0.775,1.839
		c1.033-0.593,1.702-1.141,1.702-2.007c0-0.623-0.35-1.322-1.186-1.322H66.69z"/>
	<path fill="#394049" stroke="#394049" stroke-width="0.2835" stroke-miterlimit="10" d="M28.442,103.057
		c0.577-0.122,1.489-0.213,2.416-0.213c1.322,0,2.173,0.229,2.812,0.745c0.532,0.395,0.852,1.003,0.852,1.809
		c0,0.987-0.654,1.854-1.733,2.249v0.03c0.973,0.243,2.113,1.049,2.113,2.568c0,0.882-0.35,1.55-0.866,2.052
		c-0.714,0.653-1.87,0.957-3.542,0.957c-0.912,0-1.611-0.061-2.051-0.121V103.057z M29.764,107.251h1.201
		c1.398,0,2.219-0.729,2.219-1.717c0-1.201-0.912-1.672-2.249-1.672c-0.608,0-0.958,0.045-1.17,0.091V107.251z M29.764,112.16
		c0.258,0.046,0.639,0.061,1.11,0.061c1.368,0,2.629-0.501,2.629-1.991c0-1.397-1.201-1.976-2.645-1.976h-1.094V112.16z"/>
	<path fill="#394049" stroke="#394049" stroke-width="0.2835" stroke-miterlimit="10" d="M42.786,111.157
		c0,0.76,0.015,1.429,0.061,2.006h-1.186l-0.076-1.2h-0.03c-0.35,0.592-1.125,1.367-2.432,1.367c-1.155,0-2.538-0.638-2.538-3.222
		v-4.301h1.337v4.073c0,1.397,0.425,2.34,1.641,2.34c0.897,0,1.52-0.623,1.763-1.216c0.076-0.197,0.122-0.44,0.122-0.684v-4.514
		h1.337V111.157z"/>
	<path fill="#394049" stroke="#394049" stroke-width="0.2835" stroke-miterlimit="10" d="M46.491,103.74
		c0.016,0.456-0.319,0.821-0.851,0.821c-0.471,0-0.805-0.365-0.805-0.821c0-0.471,0.35-0.836,0.836-0.836
		C46.172,102.904,46.491,103.27,46.491,103.74z M45.002,113.163v-7.355h1.337v7.355H45.002z"/>
	<path fill="#394049" stroke="#394049" stroke-width="0.2835" stroke-miterlimit="10" d="M48.556,102.373h1.337v10.79h-1.337
		V102.373z"/>
	<path fill="#394049" stroke="#394049" stroke-width="0.2835" stroke-miterlimit="10" d="M58.494,102.373v8.891
		c0,0.653,0.015,1.397,0.061,1.899h-1.201l-0.061-1.276h-0.03c-0.41,0.82-1.307,1.443-2.507,1.443c-1.778,0-3.146-1.504-3.146-3.738
		c-0.015-2.447,1.504-3.951,3.298-3.951c1.125,0,1.884,0.531,2.219,1.124h0.03v-4.392H58.494z M57.157,108.802
		c0-0.168-0.015-0.396-0.061-0.562c-0.198-0.852-0.927-1.551-1.93-1.551c-1.383,0-2.204,1.216-2.204,2.843
		c0,1.489,0.729,2.72,2.173,2.72c0.896,0,1.717-0.593,1.96-1.596c0.045-0.183,0.061-0.364,0.061-0.577V108.802z"/>
</g>
<g>
	<path fill="#FFFFFF" d="M25.551,54.108l-4.703-4.703l-4.22-4.222l-2.982,2.982c-1.647,1.65-1.647,4.315,0,5.965l3.729,3.726
		l2.214,2.217l5.943,5.94c1.647,1.647,4.315,1.647,5.962,0l2.982-2.982L25.551,54.108z"/>
	<path fill="#394049" d="M28.51,68.919L28.51,68.919c-1.571,0-3.051-0.614-4.161-1.723L12.464,55.311
		c-1.11-1.11-1.723-2.592-1.723-4.166c0-1.573,0.614-3.051,1.723-4.161l4.166-4.163l20.209,20.209l-4.161,4.166
		C31.561,68.306,30.086,68.919,28.51,68.919 M16.629,47.549l-1.799,1.799c-0.481,0.479-0.746,1.117-0.746,1.797
		c0,0.68,0.265,1.318,0.746,1.799L26.711,64.83c0.486,0.486,1.122,0.746,1.799,0.746c0.682,0,1.321-0.26,1.802-0.746l1.799-1.799
		L16.629,47.549z"/>
	<path fill="#FFFFFF" d="M75.673,9.017c0.285-1.36-0.101-2.825-1.154-3.881c-1.024-1.021-2.442-1.414-3.77-1.171L55.496,6.315
		L16.628,45.182L34.476,63.03l38.867-38.867L75.673,9.017z"/>
	<path fill="#394049" d="M71.513,2.4c-0.338,0-0.678,0.03-1.009,0.089L54.781,4.91l-40.27,40.273l19.966,19.966l40.272-40.27
		l2.395-15.592c0.384-1.903-0.201-3.846-1.565-5.204C74.495,2.998,73.052,2.4,71.513,2.4z M74.208,8.713l-0.01,0.046l-2.263,14.692
		L34.477,60.916L18.745,45.183l0.125-0.123L56.207,7.727l0.058-0.008l14.762-2.28c0.949-0.179,1.81,0.129,2.435,0.759
		C74.124,6.858,74.402,7.799,74.208,8.713z"/>
	<path fill="#394049" d="M71.002,26.217c-1.411,0-2.855-0.572-3.974-1.689c-1.191-1.195-1.765-2.762-1.679-4.271
		c-1.505,0.088-3.073-0.484-4.269-1.679c-1.193-1.193-1.767-2.762-1.684-4.269c-1.502,0.088-3.071-0.488-4.266-1.677
		c-1.996-2.003-2.256-5.049-0.599-7.096l0.96,0.781l0.891-0.889l0.812,0.815l-0.712,0.879c-0.83,1.024-0.641,2.663,0.425,3.729
		c1.065,1.068,2.708,1.254,3.729,0.425l0.884-0.714l1.627,1.632l-0.714,0.881c-0.83,1.021-0.641,2.658,0.425,3.726
		c1.068,1.068,2.708,1.257,3.729,0.425l0.884-0.712l1.627,1.632l-0.714,0.876c-0.83,1.021-0.646,2.658,0.425,3.731
		c1.068,1.063,2.708,1.254,3.729,0.42l0.879-0.709l0.815,0.815l-0.891,0.889l0.783,0.96C73.219,25.859,72.122,26.217,71.002,26.217"
		/>
	<path fill="#394049" d="M61.968,17.69c-1.546-1.546-1.74-3.893-0.511-5.413L22.592,51.145l5.945,5.95L67.41,18.23l-0.027-0.029
		C65.861,19.431,63.516,19.234,61.968,17.69"/>
	<path fill="#394049" d="M74.623,8.373c0.211-1.026-0.076-2.133-0.869-2.921c-0.776-0.776-1.846-1.068-2.845-0.889l-3.311,0.508
		c0.53,1.323,1.424,2.688,2.641,3.91c1.213,1.21,2.568,2.101,3.881,2.631L74.623,8.373z"/>
	<path fill="#FFFFFF" d="M56.755,40.691L38.939,22.872c2.01-4.985,0.992-10.906-3.046-14.949c-3.746-3.743-9.107-4.887-13.842-3.437
		l7.897,7.897l-1.934,7.212l-7.212,1.932l-7.897-7.892c-1.453,4.733-0.309,10.096,3.441,13.839
		c4.038,4.038,9.959,5.057,14.942,3.046l17.821,17.816c-2.01,4.988-0.994,10.909,3.044,14.949c3.748,3.743,9.104,4.892,13.842,3.439
		l-7.897-7.897l1.934-7.214l7.212-1.932l7.897,7.894c1.451-4.733,0.309-10.091-3.437-13.837
		C67.661,39.697,61.743,38.683,56.755,40.691"/>
	<path fill="#394049" d="M72.76,42.679c-2.893-2.893-6.738-4.486-10.833-4.486c-1.606,0-3.181,0.246-4.684,0.73l-0.101,0.032
		L40.674,22.487l0.034-0.101c1.762-5.493,0.321-11.439-3.759-15.519C34.048,3.974,30.201,2.38,26.116,2.38
		c-1.52,0-3.037,0.228-4.504,0.677l-2.378,0.73l9.044,9.044l-1.486,5.543L26.696,18.4l-5.451,1.46l-0.07-0.071l-8.975-8.974
		l-0.731,2.383c-1.668,5.44-0.206,11.316,3.816,15.333c2.893,2.895,6.741,4.489,10.83,4.489c1.599,0,3.176-0.246,4.686-0.729
		l0.101-0.032l16.473,16.464l-0.034,0.102c-1.769,5.486-0.331,11.433,3.752,15.52c2.898,2.893,6.746,4.486,10.833,4.486
		c1.532,0,3.049-0.228,4.507-0.676l2.38-0.729l-9.044-9.043l0.026-0.096l1.457-5.455l0.096-0.025L66.8,51.35l0.07,0.071l8.975,8.977
		l0.731-2.38C78.242,52.574,76.78,46.696,72.76,42.679z M74.22,54.536l-6.527-6.523l-8.884,2.38l-2.38,8.884l6.527,6.525
		L62.56,65.82c-0.211,0.01-0.422,0.012-0.633,0.012c-3.291,0-6.386-1.28-8.714-3.604c-3.505-3.503-4.569-8.735-2.716-13.328
		l0.369-0.917l-19.218-19.22l-0.921,0.37c-1.469,0.592-3.023,0.893-4.612,0.893c-3.289,0-6.384-1.282-8.714-3.611
		c-2.467-2.469-3.778-5.877-3.596-9.351l0.019-0.39l6.525,6.526l8.889-2.379l2.378-8.887l-6.52-6.519l0.388-0.023
		c0.209-0.012,0.424-0.014,0.63-0.014c3.291,0,6.388,1.28,8.716,3.604c3.5,3.506,4.567,8.739,2.716,13.332l-0.369,0.919
		l19.22,19.214l0.918-0.37c1.472-0.59,3.023-0.888,4.61-0.888c3.296,0,6.393,1.28,8.716,3.605c2.464,2.47,3.775,5.878,3.596,9.351
		L74.22,54.536z"/>
</g>
<line fill="none" stroke="#394049" stroke-width="0.7087" stroke-miterlimit="10" x1="0" y1="78.001" x2="88" y2="78.001"/>
</svg>
