<?xml version="1.0" encoding="utf-8"?>
<!-- Generator: Adobe Illustrator 17.0.0, SVG Export Plug-In . SVG Version: 6.00 Build 0)  -->
<!DOCTYPE svg PUBLIC "-//W3C//DTD SVG 1.1//EN" "http://www.w3.org/Graphics/SVG/1.1/DTD/svg11.dtd">
<svg version="1.1" id="Layer_1" xmlns="http://www.w3.org/2000/svg" xmlns:xlink="http://www.w3.org/1999/xlink" x="0px" y="0px"
	 width="88px" height="114.667px" viewBox="0 0 88 114.667" enable-background="new 0 0 88 114.667" xml:space="preserve">
<g>
	<path fill="#394049" stroke="#394049" stroke-width="0.2835" stroke-miterlimit="10" d="M9.542,84.658V94.84H8.227V84.658H9.542z"
		/>
	<path fill="#394049" stroke="#394049" stroke-width="0.2835" stroke-miterlimit="10" d="M11.793,84.114h1.33V94.84h-1.33V84.114z"
		/>
	<path fill="#394049" stroke="#394049" stroke-width="0.2835" stroke-miterlimit="10" d="M21.477,92.846
		c0,0.756,0.015,1.42,0.061,1.994H20.36l-0.076-1.193h-0.03c-0.347,0.589-1.118,1.359-2.417,1.359c-1.148,0-2.522-0.635-2.522-3.202
		v-4.275h1.329v4.049c0,1.39,0.423,2.326,1.631,2.326c0.892,0,1.511-0.619,1.752-1.209c0.076-0.196,0.121-0.438,0.121-0.68v-4.486
		h1.329V92.846z"/>
	<path fill="#394049" stroke="#394049" stroke-width="0.2835" stroke-miterlimit="10" d="M23.685,89.508
		c0-0.756-0.015-1.375-0.06-1.979h1.163l0.061,1.179h0.045c0.408-0.695,1.088-1.345,2.296-1.345c0.997,0,1.752,0.604,2.069,1.465
		h0.03c0.227-0.407,0.514-0.725,0.816-0.951c0.438-0.332,0.921-0.514,1.616-0.514c0.967,0,2.402,0.635,2.402,3.172v4.306h-1.299
		v-4.139c0-1.405-0.514-2.251-1.586-2.251c-0.755,0-1.344,0.559-1.571,1.208c-0.061,0.182-0.106,0.423-0.106,0.665v4.517h-1.299
		v-4.381c0-1.163-0.513-2.009-1.525-2.009c-0.831,0-1.435,0.664-1.646,1.329c-0.076,0.196-0.106,0.423-0.106,0.649v4.411h-1.299
		V89.508z"/>
	<path fill="#394049" stroke="#394049" stroke-width="0.2835" stroke-miterlimit="10" d="M37.767,85.474
		c0.015,0.453-0.317,0.816-0.846,0.816c-0.468,0-0.801-0.363-0.801-0.816c0-0.468,0.348-0.83,0.831-0.83
		C37.45,84.644,37.767,85.006,37.767,85.474z M36.286,94.84v-7.312h1.33v7.312H36.286z"/>
	<path fill="#394049" stroke="#394049" stroke-width="0.2835" stroke-miterlimit="10" d="M39.822,89.508
		c0-0.756-0.015-1.375-0.06-1.979h1.178l0.076,1.209h0.03c0.363-0.695,1.208-1.375,2.417-1.375c1.012,0,2.583,0.604,2.583,3.112
		v4.365h-1.33v-4.215c0-1.178-0.438-2.16-1.692-2.16c-0.876,0-1.556,0.619-1.782,1.359c-0.061,0.167-0.091,0.394-0.091,0.62v4.396
		h-1.33V89.508z"/>
	<path fill="#394049" stroke="#394049" stroke-width="0.2835" stroke-miterlimit="10" d="M53.344,93.088
		c0,0.634,0.03,1.254,0.121,1.752h-1.208l-0.106-0.922h-0.045c-0.408,0.574-1.193,1.088-2.235,1.088c-1.48,0-2.236-1.042-2.236-2.1
		c0-1.768,1.571-2.734,4.396-2.719v-0.151c0-0.604-0.167-1.692-1.662-1.692c-0.68,0-1.39,0.212-1.903,0.544l-0.302-0.876
		c0.604-0.393,1.48-0.649,2.402-0.649c2.235,0,2.779,1.525,2.779,2.991V93.088z M52.061,91.108c-1.45-0.03-3.097,0.227-3.097,1.646
		c0,0.861,0.574,1.27,1.254,1.27c0.952,0,1.556-0.604,1.768-1.224c0.045-0.137,0.076-0.287,0.076-0.423V91.108z"/>
	<path fill="#394049" stroke="#394049" stroke-width="0.2835" stroke-miterlimit="10" d="M60.703,94.568
		c-0.348,0.181-1.118,0.438-2.1,0.438c-2.206,0-3.641-1.511-3.641-3.746c0-2.251,1.541-3.883,3.927-3.883
		c0.786,0,1.48,0.197,1.843,0.378l-0.302,1.027c-0.317-0.182-0.816-0.348-1.541-0.348c-1.677,0-2.583,1.239-2.583,2.765
		c0,1.692,1.088,2.734,2.538,2.734c0.755,0,1.253-0.196,1.631-0.362L60.703,94.568z"/>
	<path fill="#394049" stroke="#394049" stroke-width="0.2835" stroke-miterlimit="10" d="M63.741,85.474
		c0.015,0.453-0.317,0.816-0.846,0.816c-0.468,0-0.801-0.363-0.801-0.816c0-0.468,0.348-0.83,0.831-0.83
		C63.424,84.644,63.741,85.006,63.741,85.474z M62.26,94.84v-7.312h1.33v7.312H62.26z"/>
	<path fill="#394049" stroke="#394049" stroke-width="0.2835" stroke-miterlimit="10" d="M72.413,91.124
		c0,2.704-1.873,3.882-3.641,3.882c-1.979,0-3.504-1.45-3.504-3.762c0-2.447,1.601-3.882,3.625-3.882
		C70.993,87.362,72.413,88.888,72.413,91.124z M66.612,91.199c0,1.602,0.921,2.81,2.221,2.81c1.269,0,2.221-1.193,2.221-2.84
		c0-1.238-0.62-2.81-2.19-2.81C67.292,88.359,66.612,89.81,66.612,91.199z M70.827,84.371l-1.843,2.16h-0.952l1.33-2.16H70.827z"/>
	<path fill="#394049" stroke="#394049" stroke-width="0.2835" stroke-miterlimit="10" d="M74.092,89.508
		c0-0.756-0.015-1.375-0.06-1.979h1.178l0.076,1.209h0.03c0.363-0.695,1.208-1.375,2.417-1.375c1.012,0,2.583,0.604,2.583,3.112
		v4.365h-1.33v-4.215c0-1.178-0.438-2.16-1.692-2.16c-0.876,0-1.556,0.619-1.782,1.359c-0.061,0.167-0.091,0.394-0.091,0.62v4.396
		h-1.33V89.508z"/>
	<path fill="#394049" stroke="#394049" stroke-width="0.2835" stroke-miterlimit="10" d="M13.371,112.972
		c-0.287-0.287-0.559-0.574-0.952-0.997c-0.876,0.815-1.858,1.163-2.976,1.163c-1.979,0-3.127-1.329-3.127-2.854
		c0-1.391,0.831-2.342,1.994-2.977v-0.045c-0.529-0.665-0.846-1.405-0.846-2.13c0-1.239,0.892-2.508,2.583-2.508
		c1.269,0,2.25,0.846,2.25,2.16c0,1.072-0.619,1.918-2.235,2.719v0.046c0.861,0.997,1.828,2.114,2.477,2.84
		c0.468-0.71,0.786-1.692,0.982-2.977h1.208c-0.272,1.602-0.71,2.871-1.465,3.762c0.544,0.574,1.073,1.148,1.677,1.798H13.371z
		 M9.685,112.141c0.861,0,1.601-0.393,2.084-0.921c-0.604-0.665-1.737-1.903-2.87-3.203c-0.543,0.348-1.314,0.997-1.314,2.069
		c0,1.164,0.861,2.055,2.084,2.055H9.685z M9.942,103.53c-0.831,0-1.269,0.695-1.269,1.48c0,0.725,0.333,1.284,0.771,1.828
		c1.027-0.59,1.692-1.133,1.692-1.994c0-0.619-0.347-1.314-1.178-1.314H9.942z"/>
	<path fill="#394049" stroke="#394049" stroke-width="0.2835" stroke-miterlimit="10" d="M19.16,111.37
		c0.589,0.363,1.45,0.665,2.356,0.665c1.345,0,2.13-0.71,2.13-1.737c0-0.952-0.543-1.495-1.918-2.024
		c-1.662-0.589-2.688-1.45-2.688-2.885c0-1.587,1.314-2.765,3.293-2.765c1.042,0,1.797,0.241,2.251,0.498l-0.363,1.073
		c-0.333-0.182-1.012-0.483-1.934-0.483c-1.39,0-1.918,0.83-1.918,1.525c0,0.952,0.619,1.42,2.024,1.964
		c1.722,0.665,2.598,1.495,2.598,2.991c0,1.571-1.163,2.945-3.565,2.945c-0.982,0-2.055-0.302-2.599-0.664L19.16,111.37z"/>
	<path fill="#394049" stroke="#394049" stroke-width="0.2835" stroke-miterlimit="10" d="M27.485,109.558
		c0.03,1.798,1.178,2.538,2.508,2.538c0.952,0,1.526-0.166,2.024-0.378l0.227,0.952c-0.468,0.211-1.269,0.468-2.432,0.468
		c-2.251,0-3.595-1.495-3.595-3.701c0-2.205,1.299-3.942,3.429-3.942c2.387,0,3.021,2.1,3.021,3.444c0,0.271-0.03,0.483-0.045,0.619
		H27.485z M31.383,108.606c0.015-0.847-0.347-2.161-1.843-2.161c-1.345,0-1.934,1.239-2.04,2.161H31.383z"/>
	<path fill="#394049" stroke="#394049" stroke-width="0.2835" stroke-miterlimit="10" d="M34.315,107.64
		c0-0.756-0.015-1.375-0.06-1.979h1.178l0.075,1.209h0.03c0.363-0.695,1.208-1.375,2.417-1.375c1.012,0,2.583,0.604,2.583,3.112
		v4.365h-1.33v-4.215c0-1.178-0.438-2.16-1.692-2.16c-0.876,0-1.556,0.619-1.782,1.359c-0.061,0.167-0.091,0.394-0.091,0.62v4.396
		h-1.33V107.64z M35.553,104.406c-0.03-0.981,0.378-1.571,1.027-1.571c0.333,0,0.589,0.137,0.937,0.333
		c0.242,0.136,0.453,0.257,0.635,0.257c0.242,0,0.393-0.136,0.423-0.649h0.71c0.015,1.012-0.333,1.525-1.042,1.525
		c-0.317,0-0.604-0.136-0.921-0.302c-0.302-0.182-0.468-0.272-0.649-0.272c-0.242,0-0.363,0.257-0.393,0.68H35.553z"/>
	<path fill="#394049" stroke="#394049" stroke-width="0.2835" stroke-miterlimit="10" d="M47.837,111.22
		c0,0.634,0.03,1.254,0.121,1.752H46.75l-0.106-0.922h-0.045c-0.408,0.574-1.193,1.088-2.235,1.088c-1.48,0-2.236-1.042-2.236-2.1
		c0-1.768,1.571-2.734,4.396-2.719v-0.151c0-0.604-0.167-1.692-1.662-1.692c-0.68,0-1.39,0.212-1.904,0.544l-0.302-0.876
		c0.604-0.393,1.48-0.649,2.402-0.649c2.235,0,2.779,1.525,2.779,2.991V111.22z M46.553,109.24c-1.45-0.03-3.097,0.227-3.097,1.646
		c0,0.861,0.574,1.27,1.254,1.27c0.952,0,1.556-0.604,1.768-1.224c0.045-0.136,0.075-0.287,0.075-0.423V109.24z"/>
	<path fill="#394049" stroke="#394049" stroke-width="0.2835" stroke-miterlimit="10" d="M49.984,102.246h1.33v10.726h-1.33V102.246
		z"/>
	<path fill="#394049" stroke="#394049" stroke-width="0.2835" stroke-miterlimit="10" d="M54.29,109.558
		c0.03,1.798,1.178,2.538,2.508,2.538c0.952,0,1.526-0.166,2.024-0.378l0.227,0.952c-0.468,0.211-1.269,0.468-2.432,0.468
		c-2.251,0-3.595-1.495-3.595-3.701c0-2.205,1.299-3.942,3.429-3.942c2.387,0,3.021,2.1,3.021,3.444c0,0.271-0.03,0.483-0.045,0.619
		H54.29z M58.187,108.606c0.015-0.847-0.347-2.161-1.843-2.161c-1.345,0-1.934,1.239-2.04,2.161H58.187z M58.505,102.503
		l-1.843,2.16H55.71l1.329-2.16H58.505z"/>
	<path fill="#394049" stroke="#394049" stroke-width="0.2835" stroke-miterlimit="10" d="M62.721,103.908v1.752h1.903v1.013h-1.903
		v3.942c0,0.906,0.257,1.42,0.997,1.42c0.362,0,0.574-0.03,0.77-0.091l0.061,0.997c-0.257,0.105-0.665,0.196-1.178,0.196
		c-0.619,0-1.118-0.211-1.435-0.574c-0.377-0.393-0.514-1.042-0.514-1.903v-3.987h-1.133v-1.013h1.133v-1.345L62.721,103.908z"/>
	<path fill="#394049" stroke="#394049" stroke-width="0.2835" stroke-miterlimit="10" d="M67.601,103.605
		c0.015,0.453-0.317,0.816-0.846,0.816c-0.468,0-0.801-0.363-0.801-0.816c0-0.468,0.348-0.83,0.831-0.83
		C67.284,102.775,67.601,103.138,67.601,103.605z M66.121,112.972v-7.312h1.33v7.312H66.121z"/>
	<path fill="#394049" stroke="#394049" stroke-width="0.2835" stroke-miterlimit="10" d="M74.868,112.7
		c-0.348,0.181-1.118,0.438-2.1,0.438c-2.206,0-3.641-1.511-3.641-3.746c0-2.251,1.541-3.883,3.927-3.883
		c0.786,0,1.48,0.197,1.843,0.378l-0.302,1.027c-0.317-0.182-0.816-0.348-1.541-0.348c-1.677,0-2.583,1.239-2.583,2.765
		c0,1.692,1.088,2.734,2.538,2.734c0.755,0,1.253-0.196,1.631-0.362L74.868,112.7z"/>
	<path fill="#394049" stroke="#394049" stroke-width="0.2835" stroke-miterlimit="10" d="M81.562,111.22
		c0,0.634,0.03,1.254,0.121,1.752h-1.208l-0.106-0.922h-0.045c-0.408,0.574-1.193,1.088-2.235,1.088c-1.48,0-2.236-1.042-2.236-2.1
		c0-1.768,1.571-2.734,4.396-2.719v-0.151c0-0.604-0.167-1.692-1.662-1.692c-0.68,0-1.39,0.212-1.903,0.544l-0.302-0.876
		c0.604-0.393,1.48-0.649,2.402-0.649c2.235,0,2.779,1.525,2.779,2.991V111.22z M80.279,109.24c-1.45-0.03-3.097,0.227-3.097,1.646
		c0,0.861,0.574,1.27,1.254,1.27c0.952,0,1.556-0.604,1.768-1.224c0.045-0.136,0.076-0.287,0.076-0.423V109.24z"/>
</g>
<g>
	<polygon fill="#394049" points="49.826,36.205 64.028,36.205 61.582,18.569 	"/>
	<path fill="#394049" d="M72.532,2.571H58.658l-12.109,8.844L6.49,69.067h17.551l12.119-8.851l2.187-3.133h13.775l1.68,11.984
		h14.674l13.034-9.516L72.532,2.571z M23.992,57.555L59.906,5.773h9.892l8.153,51.782h-9.978l-1.68-11.991H42.261l-8.089,11.991
		H23.992z"/>
</g>
<line fill="none" stroke="#394049" stroke-width="0.7087" stroke-miterlimit="10" x1="0" y1="78.001" x2="88" y2="78.001"/>
</svg>
