<?xml version="1.0" encoding="utf-8"?>
<!-- Generator: Adobe Illustrator 17.0.0, SVG Export Plug-In . SVG Version: 6.00 Build 0)  -->
<!DOCTYPE svg PUBLIC "-//W3C//DTD SVG 1.1//EN" "http://www.w3.org/Graphics/SVG/1.1/DTD/svg11.dtd">
<svg version="1.1" id="Layer_1" xmlns="http://www.w3.org/2000/svg" xmlns:xlink="http://www.w3.org/1999/xlink" x="0px" y="0px"
	 width="88px" height="114.667px" viewBox="0 0 88 114.667" enable-background="new 0 0 88 114.667" xml:space="preserve">
<path fill="#394049" d="M45.723,50.004v-5.75h8.967c1.46,0,2.648-1.188,2.648-2.649v-1.774l0.191-0.079
	c0.812-0.336,1.534-0.708,2.206-1.135c2.492-1.575,5.463-4.606,5.463-10.103c0-3.556-1.653-5.47-3.113-7.16
	c-2.018-2.342-3.76-4.364-1.823-11.357l0.037-0.135L59.48,9.626l0.961-3.412l0.006-0.02l-0.002-0.168
	c0.011-0.411-0.023-1.82-0.892-2.708c-0.438-0.45-1.025-0.697-1.655-0.697c-1.109,0-2.209,0.715-3.567,2.317
	c-6.773,7.94-6.623,16.691-4.938,20.342c0.929,2.011,2.2,2.311,2.875,2.311c1.797,0,2.639-1.849,2.981-2.955l1.554-5.51l0.348,0.764
	c0.682,1.492,1.636,2.599,2.487,3.585c1.298,1.501,2.323,2.687,2.323,5.04c0,3.181-1.295,5.638-3.849,7.302
	c-0.085,0.055-0.169,0.104-0.252,0.151l-0.517,0.304L57.24,35.88c-0.313-1.16-1.362-1.971-2.55-1.971H28.603
	c-1.459,0-2.646,1.188-2.646,2.647v5.048c0,1.461,1.187,2.649,2.646,2.649h8.964v5.75h2.461v5.568l-0.286,0.021
	c-4.279,0.33-8.169,1.726-11.25,4.038c-3.518,2.641-5.537,6.188-5.685,9.988l-0.006,0.147h3.244l0.007-0.134
	c0.146-2.764,1.704-5.396,4.385-7.411c2.458-1.847,5.657-2.995,9.252-3.322l0.337-0.03v10.898h3.235V58.87l0.337,0.03
	c3.599,0.327,6.798,1.476,9.254,3.322c2.68,2.015,4.237,4.646,4.383,7.411l0.007,0.134h3.242l-0.006-0.147
	c-0.148-3.8-2.167-7.348-5.685-9.988c-3.079-2.312-6.969-3.708-11.25-4.038l-0.284-0.021v-5.568H45.723z M43.847,44.254v3.872
	h-4.398v-3.872H43.847z M29.19,41.015v-3.87H54.1v3.87H29.19z M56.554,7.534l-4.387,15.557l-0.129-0.638
	c-0.244-1.202-0.298-2.601-0.155-4.045c0.246-2.484,1.168-6.272,4.17-10.214L56.554,7.534z"/>
<g>
	<path fill="#394049" stroke="#394049" stroke-width="0.2835" stroke-miterlimit="10" d="M8.636,84.609h5.496v1.106h-4.18v3.393
		h3.863v1.089H9.952v4.619H8.636V84.609z"/>
	<path fill="#394049" stroke="#394049" stroke-width="0.2835" stroke-miterlimit="10" d="M21.115,93.06
		c0,0.636,0.03,1.256,0.123,1.756h-1.212l-0.106-0.923h-0.044c-0.409,0.574-1.198,1.089-2.241,1.089
		c-1.485,0-2.241-1.045-2.241-2.105c0-1.772,1.575-2.741,4.406-2.725V90c0-0.606-0.167-1.695-1.665-1.695
		c-0.682,0-1.395,0.21-1.908,0.546l-0.303-0.879c0.606-0.393,1.483-0.652,2.408-0.652c2.241,0,2.785,1.531,2.785,3V93.06z
		 M19.829,91.076c-1.455-0.03-3.104,0.227-3.104,1.652c0,0.863,0.576,1.27,1.256,1.27c0.955,0,1.559-0.604,1.772-1.226
		c0.046-0.136,0.076-0.287,0.076-0.423V91.076z"/>
	<path fill="#394049" stroke="#394049" stroke-width="0.2835" stroke-miterlimit="10" d="M23.271,84.065h1.318v4.603h0.03
		c0.47-0.819,1.316-1.349,2.498-1.349c1.816,0,3.104,1.515,3.088,3.74c0,2.621-1.649,3.923-3.285,3.923
		c-1.062,0-1.908-0.409-2.454-1.379H24.42l-0.06,1.212h-1.15c0.03-0.5,0.06-1.242,0.06-1.892V84.065z M24.589,91.879
		c0,0.167,0.03,0.333,0.06,0.483c0.257,0.925,1.029,1.561,1.998,1.561c1.392,0,2.225-1.136,2.225-2.817
		c0-1.469-0.756-2.725-2.179-2.725c-0.909,0-1.758,0.62-2.031,1.635c-0.03,0.15-0.074,0.333-0.074,0.544V91.879z"/>
	<path fill="#394049" stroke="#394049" stroke-width="0.2835" stroke-miterlimit="10" d="M31.889,89.774
		c0-0.863-0.016-1.605-0.06-2.288h1.166l0.044,1.439h0.062c0.333-0.983,1.136-1.605,2.029-1.605c0.15,0,0.257,0.016,0.379,0.046
		v1.256c-0.136-0.03-0.273-0.044-0.456-0.044c-0.939,0-1.605,0.71-1.786,1.709c-0.03,0.183-0.06,0.396-0.06,0.622v3.907h-1.318
		V89.774z"/>
	<path fill="#394049" stroke="#394049" stroke-width="0.2835" stroke-miterlimit="10" d="M38.328,85.427
		c0.014,0.453-0.319,0.816-0.849,0.816c-0.47,0-0.803-0.363-0.803-0.816c0-0.47,0.347-0.833,0.833-0.833
		C38.009,84.595,38.328,84.958,38.328,85.427z M36.843,94.816v-7.33h1.332v7.33H36.843z"/>
	<path fill="#394049" stroke="#394049" stroke-width="0.2835" stroke-miterlimit="10" d="M45.614,94.543
		c-0.349,0.183-1.122,0.439-2.105,0.439c-2.211,0-3.65-1.515-3.65-3.756c0-2.255,1.545-3.891,3.937-3.891
		c0.786,0,1.485,0.197,1.848,0.379l-0.303,1.029c-0.319-0.183-0.819-0.349-1.545-0.349c-1.682,0-2.591,1.242-2.591,2.771
		c0,1.695,1.092,2.741,2.544,2.741c0.759,0,1.258-0.197,1.635-0.363L45.614,94.543z"/>
	<path fill="#394049" stroke="#394049" stroke-width="0.2835" stroke-miterlimit="10" d="M52.325,93.06
		c0,0.636,0.03,1.256,0.12,1.756h-1.212l-0.104-0.923h-0.046c-0.409,0.574-1.196,1.089-2.241,1.089
		c-1.485,0-2.241-1.045-2.241-2.105c0-1.772,1.575-2.741,4.406-2.725V90c0-0.606-0.167-1.695-1.665-1.695
		c-0.68,0-1.392,0.21-1.908,0.546l-0.303-0.879c0.606-0.393,1.485-0.652,2.408-0.652c2.241,0,2.787,1.531,2.787,3V93.06z
		 M51.036,91.076c-1.453-0.03-3.104,0.227-3.104,1.652c0,0.863,0.576,1.27,1.258,1.27c0.953,0,1.559-0.604,1.772-1.226
		c0.044-0.136,0.074-0.287,0.074-0.423V91.076z"/>
	<path fill="#394049" stroke="#394049" stroke-width="0.2835" stroke-miterlimit="10" d="M59.703,94.543
		c-0.349,0.183-1.122,0.439-2.105,0.439c-2.211,0-3.65-1.515-3.65-3.756c0-2.255,1.545-3.891,3.937-3.891
		c0.786,0,1.485,0.197,1.848,0.379l-0.303,1.029c-0.319-0.183-0.819-0.349-1.545-0.349c-1.682,0-2.591,1.242-2.591,2.771
		c0,1.695,1.092,2.741,2.544,2.741c0.759,0,1.258-0.197,1.635-0.363L59.703,94.543z"/>
	<path fill="#394049" stroke="#394049" stroke-width="0.2835" stroke-miterlimit="10" d="M62.749,85.427
		c0.014,0.453-0.319,0.816-0.849,0.816c-0.47,0-0.803-0.363-0.803-0.816c0-0.47,0.347-0.833,0.833-0.833
		C62.43,84.595,62.749,84.958,62.749,85.427z M61.265,94.816v-7.33h1.332v7.33H61.265z"/>
	<path fill="#394049" stroke="#394049" stroke-width="0.2835" stroke-miterlimit="10" d="M71.442,91.09
		c0,2.711-1.876,3.893-3.648,3.893c-1.985,0-3.514-1.453-3.514-3.77c0-2.454,1.605-3.893,3.634-3.893
		C70.019,87.32,71.442,88.851,71.442,91.09z M65.627,91.166c0,1.605,0.925,2.817,2.227,2.817c1.272,0,2.225-1.196,2.225-2.847
		c0-1.242-0.62-2.817-2.195-2.817C66.309,88.319,65.627,89.774,65.627,91.166z M69.853,84.322l-1.848,2.165h-0.953l1.332-2.165
		H69.853z"/>
	<path fill="#394049" stroke="#394049" stroke-width="0.2835" stroke-miterlimit="10" d="M73.126,89.471
		c0-0.756-0.016-1.379-0.06-1.985h1.18l0.076,1.212h0.03c0.363-0.696,1.212-1.379,2.424-1.379c1.013,0,2.588,0.606,2.588,3.12v4.376
		h-1.332V90.59c0-1.18-0.439-2.165-1.695-2.165c-0.879,0-1.559,0.622-1.788,1.362c-0.06,0.167-0.09,0.396-0.09,0.622v4.406h-1.332
		V89.471z"/>
	<path fill="#394049" stroke="#394049" stroke-width="0.2835" stroke-miterlimit="10" d="M21.758,108.514
		c-0.076-1.423-0.167-3.134-0.15-4.406h-0.046c-0.349,1.196-0.773,2.484-1.286,3.877l-1.802,4.952h-1.002l-1.649-4.862
		c-0.483-1.439-0.893-2.755-1.182-3.967h-0.03c-0.03,1.272-0.106,2.984-0.197,4.513l-0.273,4.376h-1.256l0.712-10.207h1.679
		l1.742,4.938c0.423,1.256,0.773,2.378,1.029,3.437h0.046c0.257-1.029,0.62-2.151,1.076-3.437l1.816-4.938h1.682l0.636,10.207
		h-1.288L21.758,108.514z"/>
	<path fill="#394049" stroke="#394049" stroke-width="0.2835" stroke-miterlimit="10" d="M31.924,109.27
		c0,2.711-1.876,3.893-3.648,3.893c-1.985,0-3.514-1.453-3.514-3.77c0-2.454,1.605-3.893,3.634-3.893
		C30.501,105.5,31.924,107.031,31.924,109.27z M26.109,109.347c0,1.605,0.925,2.817,2.227,2.817c1.272,0,2.225-1.196,2.225-2.847
		c0-1.242-0.62-2.817-2.195-2.817S26.109,107.954,26.109,109.347z"/>
	<path fill="#394049" stroke="#394049" stroke-width="0.2835" stroke-miterlimit="10" d="M33.61,102.246h1.318v4.603h0.03
		c0.47-0.819,1.316-1.348,2.498-1.348c1.816,0,3.104,1.515,3.088,3.74c0,2.621-1.649,3.923-3.285,3.923
		c-1.062,0-1.908-0.409-2.454-1.379h-0.046l-0.06,1.212h-1.15c0.03-0.5,0.06-1.242,0.06-1.892V102.246z M34.928,110.059
		c0,0.167,0.03,0.333,0.06,0.483c0.257,0.925,1.029,1.561,1.998,1.561c1.392,0,2.225-1.136,2.225-2.817
		c0-1.469-0.756-2.725-2.179-2.725c-0.909,0-1.758,0.62-2.031,1.635c-0.03,0.15-0.074,0.333-0.074,0.544V110.059z"/>
	<path fill="#394049" stroke="#394049" stroke-width="0.2835" stroke-miterlimit="10" d="M43.713,103.608
		c0.014,0.453-0.319,0.817-0.849,0.817c-0.47,0-0.803-0.363-0.803-0.817c0-0.47,0.347-0.833,0.833-0.833
		C43.394,102.775,43.713,103.138,43.713,103.608z M42.228,112.997v-7.33h1.332v7.33H42.228z"/>
	<path fill="#394049" stroke="#394049" stroke-width="0.2835" stroke-miterlimit="10" d="M45.774,102.246h1.332v10.751h-1.332
		V102.246z"/>
	<path fill="#394049" stroke="#394049" stroke-width="0.2835" stroke-miterlimit="10" d="M50.835,103.608
		c0.014,0.453-0.319,0.817-0.849,0.817c-0.47,0-0.803-0.363-0.803-0.817c0-0.47,0.347-0.833,0.833-0.833
		C50.516,102.775,50.835,103.138,50.835,103.608z M49.35,112.997v-7.33h1.332v7.33H49.35z"/>
	<path fill="#394049" stroke="#394049" stroke-width="0.2835" stroke-miterlimit="10" d="M58.042,111.241
		c0,0.636,0.03,1.256,0.12,1.756h-1.212l-0.104-0.923H56.8c-0.409,0.574-1.196,1.089-2.241,1.089c-1.485,0-2.241-1.045-2.241-2.105
		c0-1.772,1.575-2.741,4.406-2.725v-0.153c0-0.606-0.167-1.695-1.665-1.695c-0.68,0-1.392,0.21-1.908,0.546l-0.303-0.879
		c0.606-0.393,1.485-0.652,2.408-0.652c2.241,0,2.787,1.531,2.787,3V111.241z M56.754,109.256c-1.453-0.03-3.104,0.227-3.104,1.652
		c0,0.863,0.576,1.27,1.258,1.27c0.953,0,1.559-0.604,1.772-1.226c0.044-0.136,0.074-0.287,0.074-0.423V109.256z"/>
	<path fill="#394049" stroke="#394049" stroke-width="0.2835" stroke-miterlimit="10" d="M60.196,107.954
		c0-0.863-0.016-1.605-0.06-2.288h1.166l0.044,1.439h0.062c0.333-0.983,1.136-1.605,2.029-1.605c0.15,0,0.257,0.016,0.379,0.046
		v1.256c-0.136-0.03-0.273-0.044-0.456-0.044c-0.939,0-1.605,0.71-1.786,1.709c-0.03,0.183-0.06,0.396-0.06,0.622v3.907h-1.318
		V107.954z"/>
	<path fill="#394049" stroke="#394049" stroke-width="0.2835" stroke-miterlimit="10" d="M66.635,103.608
		c0.014,0.453-0.319,0.817-0.849,0.817c-0.47,0-0.803-0.363-0.803-0.817c0-0.47,0.347-0.833,0.833-0.833
		C66.316,102.775,66.635,103.138,66.635,103.608z M65.15,112.997v-7.33h1.332v7.33H65.15z"/>
	<path fill="#394049" stroke="#394049" stroke-width="0.2835" stroke-miterlimit="10" d="M75.325,109.27
		c0,2.711-1.876,3.893-3.648,3.893c-1.985,0-3.514-1.453-3.514-3.77c0-2.454,1.605-3.893,3.634-3.893
		C73.903,105.5,75.325,107.031,75.325,109.27z M69.51,109.347c0,1.605,0.925,2.817,2.227,2.817c1.272,0,2.225-1.196,2.225-2.847
		c0-1.242-0.62-2.817-2.195-2.817S69.51,107.954,69.51,109.347z"/>
</g>
<line fill="none" stroke="#394049" stroke-width="0.7087" stroke-miterlimit="10" x1="0" y1="78.001" x2="88" y2="78.001"/>
</svg>
