<?xml version="1.0" encoding="utf-8"?>
<!-- Generator: Adobe Illustrator 17.0.0, SVG Export Plug-In . SVG Version: 6.00 Build 0)  -->
<!DOCTYPE svg PUBLIC "-//W3C//DTD SVG 1.1//EN" "http://www.w3.org/Graphics/SVG/1.1/DTD/svg11.dtd">
<svg version="1.1" id="Capa_1" xmlns="http://www.w3.org/2000/svg" xmlns:xlink="http://www.w3.org/1999/xlink" x="0px" y="0px"
	 width="278.617px" height="108.861px" viewBox="1352.426 -429.088 278.617 108.861"
	 enable-background="new 1352.426 -429.088 278.617 108.861" xml:space="preserve">
<g>
	<g>
		<g>
			<path fill="#828281" d="M1512.431-347.076h-15.26v0.003h-0.974v26.839h5.769v-6.849l10.464,0.002
				c4.207,0,5.689-1.965,5.705-4.788v-10.423C1518.121-345.105,1516.631-347.076,1512.431-347.076 M1512.431-335.005
				c0.02,2.543-0.384,3.135-2.426,3.135h-8.038v-10.423h1.379h6.658c2.042,0,2.446,0.6,2.426,3.14V-335.005L1512.431-335.005z
				 M1492.207-347.073v19.99h-5.767l-10.464,0.002c-4.203,0-5.695-1.965-5.714-4.788v-15.204h5.714v12.068
				c-0.021,2.543,0.386,3.135,2.416,3.135h8.048v-15.204H1492.207z M1460.579-347.07h-10.524c-4.243,0-5.687,1.968-5.709,4.78
				v10.417c0.022,2.814,1.508,4.786,5.709,4.786h10.524c4.275,0,5.696-1.972,5.709-4.786v-10.417
				C1466.275-345.102,1464.723-347.07,1460.579-347.07 M1460.579-335.005c0.023,2.533-0.384,3.132-2.423,3.132h-5.678
				c-2.031,0-2.443-0.599-2.423-3.132v-4.144c-0.02-2.539,0.391-3.141,2.423-3.141h5.678c2.039,0,2.446,0.602,2.423,3.141V-335.005z
				 M1430.673-347.07h9.698v4.78h-7.272c-2.044,0-2.449,0.602-2.427,3.141v12.067h-5.71v-15.208
				C1424.978-345.102,1426.43-347.07,1430.673-347.07 M1415.281-347.07h-10.526c-4.24,0-5.693,1.968-5.71,4.78v10.417
				c0.017,2.814,1.47,4.786,5.71,4.786h10.526c0,1.273-0.385,2.067-2.426,2.067h-3.361h-6.785h-2.689v4.782h15.261
				c4.198,0.177,5.69-1.967,5.704-4.782v-6.853v-5.383v-5.034C1420.971-345.102,1419.377-347.07,1415.281-347.07 M1410.02-331.866
				v-0.007h-2.847c-2.035,0-2.438-0.599-2.418-3.132v-4.144c-0.02-2.539,0.384-3.141,2.418-3.141h5.682
				c2.041,0,2.445,0.602,2.426,3.141v1.398v2.746v3.139H1410.02z"/>
			<path fill="#525051" d="M1529.437-346.351h-4.385v8.645h4.459c2.652,0,3.706-2.036,3.706-4.445
				C1533.216-344.657,1532.028-346.351,1529.437-346.351 M1529.449-338.819h-3.114v-6.419h2.87c2.229,0,2.725,1.587,2.725,3.113
				C1531.931-340.588,1531.555-338.819,1529.449-338.819"/>
			<path fill="#525051" d="M1537.907-344.27c-2.469,0-3.684,1.563-3.684,3.391s1.214,3.389,3.684,3.389
				c1.245,0,2.662-0.615,3.268-2.141h-1.283c-0.411,0.896-1.357,1.127-2.045,1.127c-1.077,0-2.242-0.703-2.337-2.011h5.835v-0.158
				C1541.345-343.301,1539.579-344.27,1537.907-344.27 M1535.544-341.459c0.182-1.139,1.187-1.793,2.302-1.793
				c1.14,0,2.035,0.642,2.213,1.793H1535.544z"/>
			<path fill="#525051" d="M1546.436-341.338l-1.717-0.23c-0.861-0.122-1.056-0.363-1.056-0.788c0-0.751,0.897-0.968,1.672-0.968
				c1.259,0,1.865,0.544,1.9,1.186h1.213c-0.11-1.235-1.018-2.132-3.1-2.132c-1.78,0-2.894,0.763-2.894,2.047
				c0,0.981,0.811,1.562,1.718,1.684l1.998,0.265c0.97,0.133,1.198,0.398,1.198,0.847c0,0.448-0.374,0.994-1.936,0.994
				c-1.538,0-1.999-0.703-1.999-1.271h-1.211c0.134,1.841,1.794,2.214,3.248,2.214c1.936,0,3.183-0.688,3.183-2.166
				C1548.653-340.551,1548.037-341.121,1546.436-341.338"/>
			<rect x="1549.77" y="-346.424" fill="#525051" width="1.213" height="1.333"/>
			<rect x="1549.77" y="-344.051" fill="#525051" width="1.213" height="6.345"/>
			<path fill="#525051" d="M1558.138-343.119h-0.024c-0.471-0.725-1.427-1.076-2.469-1.076c-1.683,0-3.466,0.92-3.466,3.28
				c0,2.35,1.783,3.27,3.478,3.27c0.823,0,1.781-0.192,2.457-1.173h0.024v0.92c0,1.042-0.639,1.914-2.359,1.914
				c-1.151,0-1.889-0.206-2.108-1.03h-1.209c0.251,1.756,1.828,1.974,3.196,1.974c2.602,0,3.693-0.92,3.693-3.196v-5.813h-1.213
				L1558.138-343.119L1558.138-343.119z M1555.804-338.663c-1.479,0-2.339-0.932-2.339-2.241c0-1.308,0.86-2.277,2.339-2.277
				c1.466,0,2.335,0.968,2.335,2.277C1558.138-339.594,1557.27-338.663,1555.804-338.663"/>
			<path fill="#525051" d="M1564.478-344.27c-0.91,0-1.913,0.291-2.484,1.174h-0.023v-0.955h-1.213v6.345h1.213v-3.658
				c0-1.247,0.98-1.889,2.081-1.889c1.295,0,1.876,0.532,1.876,1.466v4.081h1.211v-4.323
				C1567.14-343.616,1566.003-344.27,1564.478-344.27"/>
			<path fill="#525051" d="M1580.746-341.69h-1.135c-0.05,0.595-0.159,0.946-0.4,1.344l-2.288-2.118
				c1.271-0.509,1.672-1.333,1.672-2.011c0-1.03-0.837-1.877-2.193-1.877c-1.43,0-2.242,0.786-2.242,1.95
				c0,0.483,0.182,1.077,0.947,1.756c-1.61,0.557-2.254,1.5-2.254,2.577c0,1.152,0.812,2.579,3.415,2.579
				c1.212,0,2.423-0.397,3.078-1.197l1.041,0.981h1.682l-2.035-1.877C1580.554-340.309,1580.722-341.023,1580.746-341.69
				 M1576.413-345.335c0.605,0,1.045,0.437,1.045,0.934c0,0.435-0.343,0.92-1.251,1.294c-0.606-0.556-0.908-0.931-0.908-1.356
				C1575.299-344.898,1575.639-345.335,1576.413-345.335 M1576.328-338.504c-1.695,0-2.193-0.896-2.193-1.6
				c0-0.69,0.315-1.295,1.661-1.865l2.747,2.581C1578.035-338.711,1577.176-338.504,1576.328-338.504"/>
			<path fill="#525051" d="M1593.001-342.332v-0.024c0.701-0.254,1.258-0.775,1.258-1.827c0-1.358-0.824-2.167-2.664-2.167h-4.808
				v8.645h5.113c1.877,0,2.736-1.261,2.736-2.496C1594.635-341.447,1593.992-342.101,1593.001-342.332 M1588.07-345.238h3.429
				c1.052,0,1.475,0.461,1.475,1.249c0,0.689-0.459,1.209-1.405,1.209h-3.499L1588.07-345.238L1588.07-345.238z M1591.547-338.819
				h-3.478v-2.846h3.587c1.307,0,1.693,0.703,1.693,1.381C1593.35-339.546,1592.974-338.819,1591.547-338.819"/>
			<path fill="#525051" d="M1601.19-340.395c0,1.249-0.981,1.891-2.082,1.891c-1.296,0-1.878-0.533-1.878-1.466v-4.081h-1.211v4.324
				c0,1.586,1.141,2.238,2.666,2.238c0.907,0,1.912-0.289,2.481-1.173h0.024v0.957h1.212v-6.345h-1.212V-340.395z"/>
			<rect x="1603.882" y="-344.051" fill="#525051" width="1.212" height="6.345"/>
			<rect x="1603.882" y="-346.424" fill="#525051" width="1.212" height="1.333"/>
			<rect x="1606.574" y="-346.424" fill="#525051" width="1.211" height="8.719"/>
			<path fill="#525051" d="M1614.871-343.168h-0.026c-0.485-0.689-1.464-1.028-2.409-1.028c-1.913,0-3.453,1.222-3.453,3.353
				c0,2.131,1.54,3.353,3.453,3.353c0.931,0,1.937-0.362,2.409-1.029h0.026v0.813h1.209v-8.719h-1.209V-343.168z M1612.591-338.504
				c-1.634,0-2.325-1.14-2.325-2.338c0-1.453,0.92-2.338,2.325-2.338c1.418,0,2.35,0.885,2.35,2.338
				C1614.941-339.644,1614.239-338.504,1612.591-338.504"/>
			<path fill="#525051" d="M1616.102-383.046c-6.493,0-8.797,3.044-8.82,7.396v4.377v19.103h8.797v-19.103h0.032
				c0.023-3.501,0.725-4.377,3.731-4.377h11.2v-7.396H1616.102z"/>
			<path fill="#525051" d="M1591.071-352.171h6.349h2.456v-30.876h-8.805v23.478h-12.558c-3.008,0-3.708-0.872-3.736-4.377h-0.029
				v-19.101h-8.802v19.101v4.377c0.029,4.357,2.333,7.398,8.821,7.398L1591.071-352.171L1591.071-352.171z"/>
			<path fill="#525051" d="M1509.67-383.07h-22.652v7.396h18.907c3.009,0,3.71,0.874,3.738,4.375h-16.254
				c-6.499,0-8.799,3.046-8.826,7.397v2.163v2.172c0.027,4.357,2.328,7.398,8.826,7.398h16.254h8.83v-7.398v-4.335v-7.397v-4.375
				C1518.469-380.026,1516.163-383.07,1509.67-383.07 M1509.664-359.568h-8.83v0.018h-4.806c-1.583,0.067-2.292-0.607-2.504-1.56
				c-0.02-0.097-0.041-0.216-0.054-0.328c-0.01-0.106-0.01-0.491,0-0.591c0.013-0.109,0.035-0.231,0.054-0.326
				c0.212-0.955,0.921-1.626,2.504-1.562l4.806,0.007v0.007h3.76h5.07L1509.664-359.568L1509.664-359.568z"/>
			<path fill="#525051" d="M1559.027-359.606v-2.159v-2.177c-0.024-4.354-2.462-7.392-8.82-7.392l-13.707,0.007
				c-1.582,0.066-2.292-0.606-2.513-1.56c-0.025-0.101-0.025-0.216-0.05-0.33c-0.011-0.097-0.011-0.491,0-0.589
				c0.015-0.111,0.025-0.233,0.05-0.328c0.221-0.956,0.93-1.627,2.513-1.556l4.802,0.007v0.005h17.725v-7.392h-25.155
				c-6.426,0-8.797,3.042-8.819,7.393v2.161v2.174c0.023,4.356,2.393,7.395,8.819,7.395l13.711-0.01
				c1.582-0.066,2.292,0.607,2.514,1.558c0.023,0.105,0.026,0.218,0.047,0.33c0.01,0.103,0.01,0.491,0,0.597
				c-0.015,0.107-0.024,0.229-0.047,0.322c-0.221,0.956-0.931,1.63-2.514,1.561l-4.802-0.01v-0.003h-17.728v7.395h25.154
				C1556.801-352.212,1559.003-355.255,1559.027-359.606"/>
			<path fill="#525051" d="M1452.698-383.07h-22.653v7.396h18.915c3.006,0,3.705,0.874,3.73,4.375h-16.253
				c-6.492,0-8.796,3.046-8.818,7.397v2.163v2.172c0.022,4.357,2.325,7.398,8.818,7.398h16.253h8.835v-7.398v-4.335v-7.397v-4.375
				C1461.498-380.026,1459.188-383.07,1452.698-383.07 M1452.69-359.568h-8.827v0.018h-4.801c-1.594,0.067-2.3-0.607-2.505-1.56
				c-0.027-0.097-0.042-0.216-0.058-0.328c-0.009-0.106-0.009-0.491,0-0.591c0.016-0.109,0.031-0.231,0.058-0.326
				c0.205-0.955,0.911-1.626,2.505-1.562l4.801,0.007v0.007h3.756h5.071V-359.568L1452.69-359.568z"/>
			<path fill="#525051" d="M1383.979-375.674h11.331c3.01,0,3.705,0.874,3.734,4.375v19.129h0.403h8.424h0.409V-371.3
				c0.021-3.5,0.731-4.375,3.735-4.375h11.27v-7.395h-39.306V-375.674L1383.979-375.674z"/>
			<rect x="1469.526" y="-391.709" fill="#525051" width="8.826" height="39.538"/>
			<path fill="#525051" d="M1377.926-357.331c1.964,0.309,3.987,0.567,6.054,0.782v-2.586c-2.241-0.25-4.431-0.553-6.554-0.915
				c-1.075-6.287-1.677-13.129-1.677-20.248c0-7.115,0.597-13.96,1.67-20.246c6.288-1.074,13.131-1.673,20.25-1.673
				c7.118,0,13.959,0.599,20.247,1.673c0.484,2.839,0.866,5.796,1.147,8.834h2.571c-0.248-2.866-0.58-5.652-1.003-8.335
				c6.553,1.296,12.411,3.12,17.226,5.327c0.356,0.987,0.679,1.989,0.963,3.008h2.633c-5.071-19.441-22.777-33.832-43.785-33.832
				c-24.946,0-45.243,20.296-45.243,45.244c0,22.473,16.474,41.165,37.978,44.652v-2.572c-2.464-0.425-4.854-1.063-7.156-1.891
				C1381.043-344.922,1379.222-350.782,1377.926-357.331 M1436.426-398.215c-4.711-1.908-10.197-3.467-16.261-4.581
				c-1.114-6.064-2.671-11.551-4.581-16.261C1424.752-414.799,1432.171-407.388,1436.426-398.215 M1397.669-423.01
				c5.059,0,9.912,0.891,14.418,2.513c2.206,4.816,4.031,10.678,5.328,17.235c-6.12-0.963-12.764-1.488-19.746-1.488
				c-6.982,0-13.63,0.524-19.751,1.486c1.297-6.562,3.127-12.419,5.335-17.235C1387.76-422.12,1392.613-423.01,1397.669-423.01
				 M1379.751-419.055c-1.909,4.71-3.466,10.193-4.579,16.261c-6.063,1.112-11.548,2.67-16.26,4.58
				C1363.169-407.384,1370.581-414.797,1379.751-419.055 M1354.958-380.298c0-5.057,0.89-9.908,2.51-14.414
				c4.815-2.208,10.676-4.035,17.235-5.333c-0.963,6.12-1.487,12.765-1.487,19.747c0,6.983,0.527,13.628,1.491,19.749
				c-6.56-1.297-12.418-3.123-17.234-5.332C1355.851-370.388,1354.958-375.238,1354.958-380.298 M1358.911-362.382
				c4.712,1.91,10.198,3.469,16.264,4.582c1.113,6.062,2.669,11.547,4.577,16.256
				C1370.582-345.799,1363.169-353.214,1358.911-362.382"/>
			<path fill="#C10A19" d="M1418.77-429.088c2.291,6.881,4.21,14.479,5.686,22.697c8.183,1.521,15.784,3.488,22.672,5.828
				c-3.249-5.871-7.335-11.393-12.311-16.365C1429.98-421.764,1424.577-425.825,1418.77-429.088"/>
		</g>
	</g>
</g>
</svg>
