<?xml version="1.0" encoding="utf-8"?>
<!-- Generator: Adobe Illustrator 17.0.0, SVG Export Plug-In . SVG Version: 6.00 Build 0)  -->
<!DOCTYPE svg PUBLIC "-//W3C//DTD SVG 1.1//EN" "http://www.w3.org/Graphics/SVG/1.1/DTD/svg11.dtd">
<svg version="1.1" id="Layer_1" xmlns="http://www.w3.org/2000/svg" xmlns:xlink="http://www.w3.org/1999/xlink" x="0px" y="0px"
	 width="39.861px" height="39.858px" viewBox="0 0 39.861 39.858" enable-background="new 0 0 39.861 39.858" xml:space="preserve">
<g>
	<g>
		<path fill="#FFFFFF" d="M38.884,13.601c2.668,8.211-0.255,17.207-7.24,22.282c-6.985,5.075-16.443,5.075-23.428,0
			c-6.985-5.075-9.908-14.07-7.24-22.282c2.668-8.211,10.32-13.77,18.954-13.77C28.564-0.169,36.216,5.389,38.884,13.601z
			 M19.93,1.626c-7.856,0-14.819,5.059-17.246,12.53C0.257,21.627,2.916,29.812,9.272,34.43c6.356,4.619,14.962,4.619,21.318,0
			c6.356-4.617,9.015-12.803,6.587-20.274C34.749,6.685,27.786,1.626,19.93,1.626z"/>
	</g>
	<path fill-rule="evenodd" clip-rule="evenodd" fill="#FFFFFF" d="M22.639,14.031c0.541-0.02,1.08-0.005,1.623-0.005
		c0.067,0,0.133,0,0.223,0v-2.813c-0.289-0.028-0.591-0.07-0.893-0.084c-0.554-0.024-1.11-0.052-1.665-0.039
		c-0.847,0.018-1.649,0.224-2.35,0.726c-0.803,0.578-1.243,1.39-1.412,2.348c-0.07,0.394-0.088,0.805-0.098,1.206
		c-0.015,0.632-0.002,1.261-0.001,1.893v0.237h-2.691v3.141h2.675v7.895h3.269v-7.882h2.667c0.136-1.045,0.27-2.08,0.41-3.156
		c-0.214,0-0.407-0.002-0.599,0c-0.758,0.003-2.499,0-2.499,0s0.007-1.557,0.026-2.232C21.349,14.339,21.898,14.057,22.639,14.031z"
		/>
</g>
</svg>
