<?xml version="1.0" encoding="utf-8"?>
<!-- Generator: Adobe Illustrator 17.0.0, SVG Export Plug-In . SVG Version: 6.00 Build 0)  -->
<!DOCTYPE svg PUBLIC "-//W3C//DTD SVG 1.1//EN" "http://www.w3.org/Graphics/SVG/1.1/DTD/svg11.dtd">
<svg version="1.1" id="Layer_1" xmlns="http://www.w3.org/2000/svg" xmlns:xlink="http://www.w3.org/1999/xlink" x="0px" y="0px"
	 width="39.861px" height="39.858px" viewBox="0 0 39.861 39.858" enable-background="new 0 0 39.861 39.858" xml:space="preserve">
<g>
	<g>
		<path fill="#FFFFFF" d="M38.884,13.77c2.668,8.211-0.255,17.207-7.24,22.282c-6.985,5.075-16.443,5.075-23.428,0
			c-6.985-5.075-9.908-14.07-7.24-22.282C3.645,5.559,11.297,0,19.931,0S36.216,5.559,38.884,13.77z M19.931,1.795
			c-7.856,0-14.819,5.059-17.246,12.53c-2.428,7.471,0.231,15.657,6.587,20.274c6.356,4.619,14.962,4.619,21.317,0
			c6.356-4.617,9.015-12.803,6.587-20.274C34.75,6.854,27.787,1.795,19.931,1.795z"/>
	</g>
	<g>
		<path fill="#FFFFFF" d="M17.161,18.731c-0.002,0.041-0.006,0.076-0.006,0.109c0,0.839,0.002,2.654,0.002,2.654s3.492,0,3.68,0
			c0,0.273-0.323,1.37-1.352,2.068c-0.602,0.407-1.28,0.596-1.998,0.641c-0.507,0.033-1.005-0.018-1.492-0.174
			c-1.535-0.492-2.678-1.882-2.835-3.573c-0.038-0.417-0.01-0.834,0.084-1.247c0.456-2,2.352-3.484,4.522-3.164
			c0.962,0.143,1.515,0.542,2.02,0.974c0.664-0.666,1.323-1.323,1.999-2.002c-0.165-0.119-0.544-0.505-1.218-0.894
			c-1.009-0.583-2.097-0.875-3.261-0.888c-0.219-0.002-0.439,0.011-0.658,0.021c-0.385,0.015-0.762,0.081-1.133,0.175
			c-1.487,0.38-2.721,1.161-3.688,2.352c-0.93,1.145-1.429,2.461-1.52,3.929c-0.04,0.622,0.008,1.242,0.145,1.851
			c0.386,1.703,1.279,3.078,2.689,4.109c1.092,0.8,2.322,1.226,3.671,1.3c0.758,0.041,1.513-0.029,2.253-0.222
			c1.377-0.36,2.521-1.08,3.381-2.224c1.246-1.656,1.546-3.779,1.179-5.796C21.466,18.731,19.317,18.731,17.161,18.731z"/>
		<polygon fill="#FFFFFF" points="31.942,18.82 29.613,18.82 29.613,16.491 29.613,16.423 29.544,16.423 27.805,16.423 
			27.735,16.423 27.735,16.491 27.735,18.82 25.406,18.82 25.338,18.82 25.338,18.889 25.338,20.628 25.338,20.697 25.406,20.697 
			27.735,20.697 27.735,23.029 27.735,23.097 27.805,23.097 29.544,23.097 29.613,23.097 29.613,23.029 29.613,20.697 
			31.942,20.697 32.011,20.697 32.011,20.628 32.011,18.889 32.011,18.82 		"/>
	</g>
</g>
</svg>
