<?xml version="1.0" encoding="utf-8"?>
<!-- Generator: Adobe Illustrator 17.0.0, SVG Export Plug-In . SVG Version: 6.00 Build 0)  -->
<!DOCTYPE svg PUBLIC "-//W3C//DTD SVG 1.1//EN" "http://www.w3.org/Graphics/SVG/1.1/DTD/svg11.dtd">
<svg version="1.1" id="Layer_1" xmlns="http://www.w3.org/2000/svg" xmlns:xlink="http://www.w3.org/1999/xlink" x="0px" y="0px"
	 width="39.861px" height="39.858px" viewBox="0 0 39.861 39.858" enable-background="new 0 0 39.861 39.858" xml:space="preserve">
<g>
	<g>
		<path fill="#FFFFFF" d="M38.884,13.77c2.668,8.211-0.255,17.207-7.24,22.282c-6.985,5.075-16.443,5.075-23.428,0
			c-6.985-5.075-9.908-14.07-7.24-22.282S11.297,0,19.93,0C28.564,0,36.216,5.559,38.884,13.77z M19.93,1.796
			c-7.856,0-14.819,5.059-17.246,12.53c-2.428,7.471,0.231,15.657,6.587,20.274c6.356,4.619,14.962,4.619,21.318,0
			c6.356-4.617,9.015-12.803,6.587-20.274C34.749,6.854,27.786,1.796,19.93,1.796z"/>
	</g>
	<g>
		<path fill-rule="evenodd" clip-rule="evenodd" fill="#FFFFFF" d="M13.217,25.508c-0.638-0.209-1.067-0.627-1.298-1.26
			c-0.563-1.546-0.728-8.01,0.354-9.283c0.369-0.435,0.846-0.692,1.412-0.752c2.916-0.313,11.927-0.269,12.965,0.106
			c0.608,0.219,1.041,0.617,1.275,1.226c0.615,1.597,0.636,7.409-0.08,8.948c-0.196,0.417-0.512,0.713-0.915,0.922
			C25.842,25.986,14.648,25.978,13.217,25.508z M17.848,22.478c1.753-0.909,3.49-1.81,5.251-2.723
			c-1.762-0.92-3.501-1.826-5.251-2.74C17.848,18.842,17.848,20.649,17.848,22.478z"/>
	</g>
</g>
</svg>
