<?xml version="1.0" encoding="utf-8"?>
<!-- Generator: Adobe Illustrator 17.0.0, SVG Export Plug-In . SVG Version: 6.00 Build 0)  -->
<!DOCTYPE svg PUBLIC "-//W3C//DTD SVG 1.1//EN" "http://www.w3.org/Graphics/SVG/1.1/DTD/svg11.dtd">
<svg version="1.1" id="Layer_1" xmlns="http://www.w3.org/2000/svg" xmlns:xlink="http://www.w3.org/1999/xlink" x="0px" y="0px"
	 width="39.861px" height="39.858px" viewBox="0 0 39.861 39.858" enable-background="new 0 0 39.861 39.858" xml:space="preserve">
<g>
	<g>
		<path fill="#FFFFFF" d="M38.884,13.77c2.668,8.211-0.255,17.207-7.24,22.282c-6.985,5.075-16.443,5.075-23.428,0
			c-6.985-5.075-9.907-14.07-7.24-22.282C3.644,5.56,11.297,0,19.93,0C28.565,0,36.216,5.56,38.884,13.77z M19.93,1.795
			c-7.856,0-14.818,5.059-17.246,12.53c-2.428,7.471,0.232,15.657,6.587,20.274c6.356,4.619,14.962,4.619,21.317,0
			c6.356-4.617,9.015-12.803,6.587-20.274C34.749,6.854,27.786,1.795,19.93,1.795z"/>
	</g>
	<g>
		<path fill="#FFFFFF" d="M13.689,16.89h3.28v10.536h-3.28V16.89z M15.329,11.653c1.048,0,1.899,0.852,1.899,1.898
			c0,1.049-0.851,1.901-1.899,1.901c-1.051,0-1.9-0.852-1.9-1.901C13.429,12.505,14.278,11.653,15.329,11.653"/>
		<path fill="#FFFFFF" d="M19.024,16.89h3.141v1.44h0.043c0.438-0.828,1.507-1.701,3.101-1.701c3.316,0,3.928,2.18,3.928,5.018v5.78
			h-3.273v-5.122c0-1.223-0.024-2.794-1.702-2.794c-1.705,0-1.965,1.33-1.965,2.703v5.213h-3.273V16.89z"/>
	</g>
</g>
</svg>
