<?xml version="1.0" encoding="utf-8"?>
<!-- Generator: Adobe Illustrator 17.0.0, SVG Export Plug-In . SVG Version: 6.00 Build 0)  -->
<!DOCTYPE svg PUBLIC "-//W3C//DTD SVG 1.1//EN" "http://www.w3.org/Graphics/SVG/1.1/DTD/svg11.dtd">
<svg version="1.1" id="Layer_1" xmlns="http://www.w3.org/2000/svg" xmlns:xlink="http://www.w3.org/1999/xlink" x="0px" y="0px"
	 width="39.861px" height="39.858px" viewBox="0 0 39.861 39.858" enable-background="new 0 0 39.861 39.858" xml:space="preserve">
<g>
	<g>
		<path fill="#FFFFFF" d="M38.884,13.77c2.668,8.211-0.255,17.207-7.24,22.282c-6.985,5.075-16.443,5.075-23.428,0
			c-6.985-5.075-9.908-14.07-7.24-22.282C3.645,5.559,11.297,0,19.931,0C28.564,0,36.216,5.559,38.884,13.77z M19.931,1.795
			c-7.856,0-14.819,5.059-17.246,12.53c-2.428,7.471,0.231,15.657,6.587,20.274c6.356,4.619,14.962,4.619,21.317,0
			c6.356-4.617,9.015-12.803,6.587-20.274C34.749,6.854,27.787,1.795,19.931,1.795z"/>
	</g>
	<path fill-rule="evenodd" clip-rule="evenodd" fill="#FFFFFF" d="M16.978,24.253c-2.007-0.07-3.262-1.511-3.594-2.682
		c0.558,0.107,1.109,0.086,1.656-0.049c0.015-0.003,0.028-0.013,0.056-0.026c-1.088-0.253-1.927-0.834-2.51-1.773
		C12.2,19.1,12.015,18.418,12.02,17.67c0.543,0.289,1.11,0.451,1.719,0.467c-0.817-0.589-1.366-1.359-1.59-2.344
		c-0.222-0.982-0.079-1.916,0.415-2.797c2.092,2.463,4.739,3.815,7.968,4.038c-0.022-0.154-0.046-0.287-0.062-0.424
		c-0.108-0.909,0.073-1.757,0.565-2.526c0.614-0.964,1.492-1.563,2.619-1.747c1.3-0.213,2.434,0.157,3.383,1.078
		c0.063,0.062,0.116,0.081,0.205,0.062c0.794-0.174,1.543-0.459,2.248-0.865c0.016-0.01,0.033-0.018,0.051-0.026
		c0.003-0.002,0.01-0.002,0.025-0.002c-0.305,0.898-0.862,1.591-1.654,2.102c0.748-0.083,1.463-0.281,2.152-0.58
		c0.006,0.006,0.01,0.013,0.015,0.018c-0.148,0.193-0.291,0.391-0.444,0.58c-0.41,0.505-0.881,0.95-1.404,1.334
		c-0.045,0.033-0.066,0.063-0.064,0.122c0.021,0.573-0.001,1.146-0.071,1.714c-0.149,1.201-0.484,2.346-0.996,3.44
		c-0.529,1.13-1.219,2.149-2.089,3.046c-1.472,1.521-3.244,2.503-5.309,2.96c-0.708,0.156-1.426,0.234-2.152,0.255
		c-2.227,0.065-4.288-0.489-6.182-1.659c-0.024-0.015-0.049-0.031-0.091-0.058c1.348,0.144,2.631-0.028,3.865-0.532
		C15.797,25.055,16.404,24.702,16.978,24.253z"/>
</g>
</svg>
