<?xml version="1.0" encoding="utf-8"?>
<!-- Generator: Adobe Illustrator 17.0.0, SVG Export Plug-In . SVG Version: 6.00 Build 0)  -->
<!DOCTYPE svg PUBLIC "-//W3C//DTD SVG 1.1//EN" "http://www.w3.org/Graphics/SVG/1.1/DTD/svg11.dtd">
<svg version="1.1" id="Layer_1" xmlns="http://www.w3.org/2000/svg" xmlns:xlink="http://www.w3.org/1999/xlink" x="0px" y="0px"
	 width="88px" height="114.667px" viewBox="0 0 88 114.667" enable-background="new 0 0 88 114.667" xml:space="preserve">
<g>
	<path fill="#394049" stroke="#394049" stroke-width="0.2835" stroke-miterlimit="10" d="M13.282,84.796
		c0.801-0.12,1.753-0.21,2.794-0.21c1.889,0,3.234,0.438,4.125,1.269c0.907,0.831,1.435,2.007,1.435,3.654
		c0,1.661-0.514,3.02-1.465,3.956c-0.953,0.953-2.524,1.465-4.501,1.465c-0.937,0-1.723-0.044-2.388-0.12V84.796z M14.597,93.798
		c0.332,0.06,0.814,0.076,1.329,0.076c2.81,0,4.335-1.571,4.335-4.319c0.016-2.402-1.345-3.929-4.123-3.929
		c-0.681,0-1.195,0.062-1.541,0.136V93.798z"/>
	<path fill="#394049" stroke="#394049" stroke-width="0.2835" stroke-miterlimit="10" d="M24.781,85.477
		c0.016,0.452-0.316,0.814-0.844,0.814c-0.468,0-0.801-0.362-0.801-0.814c0-0.468,0.346-0.831,0.831-0.831
		C24.464,84.646,24.781,85.008,24.781,85.477z M23.302,94.841V87.53h1.329v7.311H23.302z"/>
	<path fill="#394049" stroke="#394049" stroke-width="0.2835" stroke-miterlimit="10" d="M26.656,93.482
		c0.392,0.256,1.087,0.528,1.751,0.528c0.967,0,1.419-0.484,1.419-1.087c0-0.634-0.376-0.983-1.359-1.345
		c-1.313-0.468-1.933-1.193-1.933-2.069c0-1.179,0.953-2.146,2.524-2.146c0.738,0,1.389,0.212,1.797,0.454l-0.332,0.967
		c-0.288-0.182-0.817-0.424-1.497-0.424c-0.784,0-1.223,0.454-1.223,0.997c0,0.604,0.438,0.877,1.389,1.239
		c1.269,0.484,1.919,1.119,1.919,2.205c0,1.285-0.997,2.205-2.734,2.205c-0.801,0-1.541-0.212-2.053-0.514L26.656,93.482z"/>
	<path fill="#394049" stroke="#394049" stroke-width="0.2835" stroke-miterlimit="10" d="M33.559,91.426
		c0.032,1.797,1.179,2.538,2.508,2.538c0.953,0,1.525-0.166,2.026-0.376l0.226,0.95c-0.468,0.212-1.269,0.468-2.432,0.468
		c-2.252,0-3.594-1.495-3.594-3.7s1.299-3.943,3.428-3.943c2.385,0,3.02,2.099,3.02,3.444c0,0.272-0.03,0.482-0.046,0.618H33.559z
		 M37.457,90.476c0.014-0.847-0.348-2.159-1.843-2.159c-1.345,0-1.933,1.239-2.039,2.159H37.457z"/>
	<path fill="#394049" stroke="#394049" stroke-width="0.2835" stroke-miterlimit="10" d="M40.39,89.509
		c0-0.754-0.014-1.375-0.06-1.979h1.179l0.074,1.209h0.03c0.365-0.694,1.209-1.375,2.418-1.375c1.013,0,2.582,0.604,2.582,3.112
		v4.365h-1.329v-4.215c0-1.177-0.436-2.159-1.691-2.159c-0.877,0-1.555,0.621-1.781,1.359c-0.062,0.166-0.092,0.394-0.092,0.621
		v4.395H40.39V89.509z M41.628,86.277c-0.03-0.983,0.378-1.571,1.027-1.571c0.332,0,0.591,0.136,0.937,0.332
		c0.242,0.136,0.454,0.256,0.634,0.256c0.242,0,0.392-0.136,0.422-0.648h0.711c0.016,1.013-0.332,1.525-1.043,1.525
		c-0.316,0-0.604-0.136-0.92-0.302c-0.302-0.18-0.468-0.272-0.651-0.272c-0.24,0-0.362,0.258-0.392,0.681H41.628z"/>
	<path fill="#394049" stroke="#394049" stroke-width="0.2835" stroke-miterlimit="10" d="M55.392,91.124
		c0,2.704-1.873,3.883-3.64,3.883c-1.979,0-3.504-1.449-3.504-3.76c0-2.448,1.601-3.883,3.624-3.883
		C53.971,87.364,55.392,88.891,55.392,91.124z M49.592,91.2c0,1.601,0.92,2.81,2.219,2.81c1.269,0,2.219-1.193,2.219-2.84
		c0-1.239-0.618-2.81-2.189-2.81S49.592,89.812,49.592,91.2z"/>
	<path fill="#394049" stroke="#394049" stroke-width="0.2835" stroke-miterlimit="10" d="M66.588,84.118v8.836
		c0,0.648,0.016,1.389,0.06,1.887h-1.193l-0.06-1.269h-0.03c-0.408,0.817-1.299,1.435-2.492,1.435c-1.767,0-3.126-1.495-3.126-3.717
		c-0.016-2.432,1.495-3.926,3.276-3.926c1.119,0,1.873,0.528,2.205,1.119h0.03v-4.365H66.588z M65.259,90.506
		c0-0.166-0.014-0.392-0.06-0.558c-0.196-0.847-0.92-1.541-1.917-1.541c-1.375,0-2.192,1.209-2.192,2.824
		c0,1.481,0.724,2.704,2.159,2.704c0.893,0,1.707-0.588,1.949-1.585c0.046-0.182,0.06-0.362,0.06-0.574V90.506z"/>
	<path fill="#394049" stroke="#394049" stroke-width="0.2835" stroke-miterlimit="10" d="M69.536,91.426
		c0.032,1.797,1.179,2.538,2.508,2.538c0.953,0,1.525-0.166,2.026-0.376l0.226,0.95c-0.468,0.212-1.269,0.468-2.432,0.468
		c-2.252,0-3.594-1.495-3.594-3.7s1.299-3.943,3.428-3.943c2.385,0,3.02,2.099,3.02,3.444c0,0.272-0.03,0.482-0.046,0.618H69.536z
		 M73.435,90.476c0.014-0.847-0.348-2.159-1.843-2.159c-1.345,0-1.933,1.239-2.039,2.159H73.435z"/>
</g>
<g>
	<path fill="#394049" stroke="#394049" stroke-width="0.2835" stroke-miterlimit="10" d="M16.275,102.793v10.181H14.96v-10.181
		H16.275z"/>
	<path fill="#394049" stroke="#394049" stroke-width="0.2835" stroke-miterlimit="10" d="M18.526,107.642
		c0-0.754-0.014-1.375-0.06-1.979h1.179l0.074,1.209h0.03c0.365-0.694,1.209-1.375,2.418-1.375c1.013,0,2.582,0.604,2.582,3.112
		v4.365h-1.329v-4.215c0-1.177-0.436-2.159-1.691-2.159c-0.877,0-1.555,0.621-1.781,1.359c-0.062,0.166-0.092,0.394-0.092,0.621
		v4.395h-1.329V107.642z"/>
	<path fill="#394049" stroke="#394049" stroke-width="0.2835" stroke-miterlimit="10" d="M28.513,103.912v1.751h1.903v1.013h-1.903
		v3.943c0,0.907,0.256,1.419,0.997,1.419c0.362,0,0.574-0.03,0.771-0.09l0.06,0.997c-0.256,0.106-0.664,0.196-1.177,0.196
		c-0.621,0-1.119-0.212-1.435-0.574c-0.378-0.392-0.514-1.04-0.514-1.903v-3.986h-1.133v-1.013h1.133v-1.343L28.513,103.912z"/>
	<path fill="#394049" stroke="#394049" stroke-width="0.2835" stroke-miterlimit="10" d="M32.654,109.559
		c0.03,1.797,1.179,2.538,2.508,2.538c0.95,0,1.525-0.166,2.023-0.376l0.226,0.95c-0.468,0.212-1.269,0.468-2.432,0.468
		c-2.249,0-3.594-1.495-3.594-3.7c0-2.205,1.299-3.943,3.428-3.943c2.388,0,3.022,2.099,3.022,3.444
		c0,0.272-0.032,0.482-0.046,0.618H32.654z M36.551,108.609c0.016-0.847-0.348-2.159-1.843-2.159c-1.343,0-1.933,1.239-2.037,2.159
		H36.551z"/>
	<path fill="#394049" stroke="#394049" stroke-width="0.2835" stroke-miterlimit="10" d="M39.483,107.944
		c0-0.861-0.014-1.601-0.06-2.282h1.163l0.046,1.435h0.06c0.332-0.98,1.133-1.601,2.023-1.601c0.152,0,0.258,0.016,0.378,0.046
		v1.253c-0.136-0.03-0.272-0.044-0.454-0.044c-0.934,0-1.599,0.708-1.781,1.705c-0.03,0.182-0.06,0.395-0.06,0.621v3.896h-1.315
		V107.944z"/>
	<path fill="#394049" stroke="#394049" stroke-width="0.2835" stroke-miterlimit="10" d="M45.906,103.61
		c0.014,0.452-0.318,0.814-0.847,0.814c-0.468,0-0.801-0.362-0.801-0.814c0-0.468,0.348-0.831,0.831-0.831
		C45.587,102.779,45.906,103.141,45.906,103.61z M44.424,112.974v-7.311h1.329v7.311H44.424z"/>
	<path fill="#394049" stroke="#394049" stroke-width="0.2835" stroke-miterlimit="10" d="M54.575,109.257
		c0,2.704-1.873,3.883-3.64,3.883c-1.977,0-3.502-1.449-3.502-3.76c0-2.448,1.601-3.883,3.624-3.883
		C53.156,105.497,54.575,107.024,54.575,109.257z M48.775,109.333c0,1.601,0.923,2.81,2.222,2.81c1.269,0,2.219-1.193,2.219-2.84
		c0-1.239-0.618-2.81-2.189-2.81C49.456,106.493,48.775,107.944,48.775,109.333z"/>
	<path fill="#394049" stroke="#394049" stroke-width="0.2835" stroke-miterlimit="10" d="M56.255,107.944
		c0-0.861-0.014-1.601-0.06-2.282h1.163l0.046,1.435h0.06c0.332-0.98,1.133-1.601,2.023-1.601c0.152,0,0.258,0.016,0.378,0.046
		v1.253c-0.136-0.03-0.272-0.044-0.454-0.044c-0.934,0-1.599,0.708-1.781,1.705c-0.03,0.182-0.06,0.395-0.06,0.621v3.896h-1.315
		V107.944z"/>
	<path fill="#394049" stroke="#394049" stroke-width="0.2835" stroke-miterlimit="10" d="M61.937,109.559
		c0.03,1.797,1.179,2.538,2.508,2.538c0.95,0,1.525-0.166,2.023-0.376l0.226,0.95c-0.468,0.212-1.269,0.468-2.432,0.468
		c-2.249,0-3.594-1.495-3.594-3.7c0-2.205,1.299-3.943,3.428-3.943c2.388,0,3.022,2.099,3.022,3.444
		c0,0.272-0.032,0.482-0.046,0.618H61.937z M65.833,108.609c0.016-0.847-0.348-2.159-1.843-2.159c-1.343,0-1.933,1.239-2.037,2.159
		H65.833z"/>
	<path fill="#394049" stroke="#394049" stroke-width="0.2835" stroke-miterlimit="10" d="M68.586,111.615
		c0.392,0.256,1.087,0.528,1.753,0.528c0.967,0,1.419-0.484,1.419-1.087c0-0.634-0.378-0.983-1.359-1.345
		c-1.315-0.468-1.933-1.193-1.933-2.069c0-1.179,0.95-2.146,2.522-2.146c0.741,0,1.389,0.212,1.797,0.454l-0.332,0.967
		c-0.286-0.182-0.814-0.424-1.495-0.424c-0.784,0-1.223,0.454-1.223,0.997c0,0.604,0.438,0.877,1.389,1.239
		c1.269,0.484,1.917,1.119,1.917,2.205c0,1.285-0.997,2.205-2.734,2.205c-0.801,0-1.539-0.212-2.053-0.514L68.586,111.615z"/>
</g>
<g>
	<path fill="#343D46" d="M55.504,66.055c-0.397,0.796-1.38,1.122-2.173,0.723l-11.876-5.963c-0.798-0.402-1.122-1.377-0.721-2.173
		L65.282,9.739c0.397-0.796,1.375-1.12,2.173-0.718l11.876,5.963c0.798,0.397,1.117,1.377,0.72,2.173L55.504,66.055z"/>
	<path fill="#394049" d="M80.085,13.474l-11.879-5.96c-0.454-0.228-0.964-0.35-1.476-0.35c-1.264,0-2.397,0.699-2.958,1.825
		L39.226,57.884c-0.397,0.791-0.461,1.686-0.18,2.522c0.275,0.842,0.861,1.523,1.652,1.915l11.876,5.959
		c0.443,0.231,0.955,0.353,1.481,0.353c1.262,0,2.395-0.697,2.955-1.816L81.555,17.91c0.397-0.784,0.464-1.677,0.187-2.516
		C81.465,14.552,80.877,13.869,80.085,13.474z M54.03,65.237l-11.759-5.899l0.12-0.24l24.362-48.539l11.761,5.901L54.03,65.237z"/>
	<path fill="#FFFFFF" d="M54.056,68.766c-0.547,0-1.08-0.127-1.543-0.369l-11.874-5.957c-0.821-0.408-1.433-1.117-1.719-1.993
		c-0.293-0.867-0.226-1.799,0.187-2.623L63.653,8.929c0.584-1.171,1.763-1.899,3.078-1.899c0.531,0,1.064,0.126,1.536,0.363
		l11.879,5.96c0.824,0.412,1.435,1.121,1.723,1.999c0.288,0.871,0.219,1.801-0.194,2.617L57.131,66.877
		C56.547,68.042,55.368,68.766,54.056,68.766z M66.73,7.298c-1.213,0-2.3,0.671-2.838,1.751L39.346,57.944
		c-0.381,0.759-0.443,1.62-0.173,2.418c0.263,0.81,0.826,1.463,1.585,1.839l11.876,5.959c0.427,0.221,0.916,0.339,1.421,0.339
		c1.211,0,2.298-0.667,2.835-1.742L81.435,17.85c0.381-0.753,0.445-1.61,0.18-2.414c-0.265-0.809-0.831-1.463-1.59-1.842
		l-11.879-5.96C67.711,7.414,67.219,7.298,66.73,7.298z M54.09,65.417l-0.12-0.06l-11.879-5.959l0.18-0.36l24.422-48.659l0.12,0.06
		L78.694,16.4l-0.06,0.12L54.09,65.417z M42.451,59.278l11.519,5.779L78.334,16.52l-11.521-5.781L42.451,59.278z"/>
	<g>
		<defs>
			<polygon id="SVGID_1_" points="40.906,60.881 55.41,61.931 78.514,16.46 66.813,10.439 			"/>
		</defs>
		<clipPath id="SVGID_2_">
			<use xlink:href="#SVGID_1_"  overflow="visible"/>
		</clipPath>
		
			<rect x="66.818" y="-12.25" transform="matrix(0.2866 0.9581 -0.9581 0.2866 55.459 -58.435)" clip-path="url(#SVGID_2_)" fill="#FFFFFF" width="0.295" height="40.54"/>
		
			<rect x="66.992" y="-7.89" transform="matrix(0.2866 0.9581 -0.9581 0.2866 59.7591 -55.4914)" clip-path="url(#SVGID_2_)" fill="#FFFFFF" width="0.295" height="40.539"/>
		
			<rect x="67.165" y="-3.536" transform="matrix(0.2866 0.9581 -0.9581 0.2866 64.0546 -52.5509)" clip-path="url(#SVGID_2_)" fill="#FFFFFF" width="0.295" height="40.54"/>
		
			<rect x="67.338" y="0.824" transform="matrix(0.2866 0.9581 -0.9581 0.2866 68.3549 -49.6071)" clip-path="url(#SVGID_2_)" fill="#FFFFFF" width="0.295" height="40.539"/>
		
			<rect x="67.513" y="5.18" transform="matrix(0.2885 0.9575 -0.9575 0.2885 72.5083 -46.6749)" clip-path="url(#SVGID_2_)" fill="#FFFFFF" width="0.293" height="40.54"/>
		
			<rect x="67.685" y="9.538" transform="matrix(0.2866 0.9581 -0.9581 0.2866 76.9514 -43.7224)" clip-path="url(#SVGID_2_)" fill="#FFFFFF" width="0.295" height="40.54"/>
		
			<rect x="67.859" y="13.895" transform="matrix(0.2866 0.9581 -0.9581 0.2866 81.2491 -40.7804)" clip-path="url(#SVGID_2_)" fill="#FFFFFF" width="0.295" height="40.54"/>
		
			<rect x="68.032" y="18.254" transform="matrix(0.2866 0.9581 -0.9581 0.2866 85.5492 -37.8368)" clip-path="url(#SVGID_2_)" fill="#FFFFFF" width="0.295" height="40.538"/>
		
			<rect x="68.206" y="22.609" transform="matrix(0.2866 0.9581 -0.9581 0.2866 89.8458 -34.8955)" clip-path="url(#SVGID_2_)" fill="#FFFFFF" width="0.295" height="40.539"/>
		
			<rect x="68.379" y="26.968" transform="matrix(0.2866 0.9581 -0.9581 0.2866 94.1459 -31.9519)" clip-path="url(#SVGID_2_)" fill="#FFFFFF" width="0.295" height="40.54"/>
		
			<rect x="68.553" y="31.325" transform="matrix(0.2866 0.9581 -0.9581 0.2866 98.4437 -29.0099)" clip-path="url(#SVGID_2_)" fill="#FFFFFF" width="0.295" height="40.54"/>
		
			<rect x="68.75" y="36.269" transform="matrix(0.2866 0.9581 -0.9581 0.2866 103.3213 -25.6709)" clip-path="url(#SVGID_2_)" fill="#FFFFFF" width="0.295" height="40.54"/>
		
			<rect x="68.948" y="41.21" transform="matrix(0.2885 0.9575 -0.9575 0.2885 108.0266 -22.4131)" clip-path="url(#SVGID_2_)" fill="#FFFFFF" width="0.293" height="40.54"/>
		
			<rect x="60.95" y="19.332" transform="matrix(0.8454 0.5341 -0.5341 0.8454 22.9556 -40.3652)" clip-path="url(#SVGID_2_)" fill="#FFFFFF" width="40.536" height="0.292"/>
		
			<rect x="57.787" y="22.333" transform="matrix(0.8454 0.5341 -0.5341 0.8454 24.0697 -38.2118)" clip-path="url(#SVGID_2_)" fill="#FFFFFF" width="40.536" height="0.294"/>
		<polygon clip-path="url(#SVGID_2_)" fill="#FFFFFF" points="91.948,36.427 57.678,14.783 57.829,14.534 92.109,36.182 		"/>
		
			<rect x="51.461" y="28.336" transform="matrix(0.8455 0.534 -0.534 0.8455 26.2925 -33.9002)" clip-path="url(#SVGID_2_)" fill="#FFFFFF" width="40.533" height="0.296"/>
		<polygon clip-path="url(#SVGID_2_)" fill="#FFFFFF" points="85.626,42.435 51.35,20.791 51.506,20.537 85.777,42.188 		"/>
		
			<rect x="45.132" y="34.341" transform="matrix(0.8455 0.534 -0.534 0.8455 28.5232 -29.5961)" clip-path="url(#SVGID_2_)" fill="#FFFFFF" width="40.54" height="0.294"/>
		
			<rect x="41.968" y="37.345" transform="matrix(0.8455 0.534 -0.534 0.8455 29.641 -27.4443)" clip-path="url(#SVGID_2_)" fill="#FFFFFF" width="40.541" height="0.292"/>
		<polygon clip-path="url(#SVGID_2_)" fill="#FFFFFF" points="76.135,51.441 41.86,29.797 42.015,29.545 76.29,51.189 		"/>
		
			<rect x="35.64" y="43.346" transform="matrix(0.8455 0.534 -0.534 0.8455 31.8616 -23.1348)" clip-path="url(#SVGID_2_)" fill="#FFFFFF" width="40.544" height="0.297"/>
		
			<rect x="32.477" y="46.351" transform="matrix(0.8455 0.534 -0.534 0.8455 32.9838 -20.9839)" clip-path="url(#SVGID_2_)" fill="#FFFFFF" width="40.541" height="0.292"/>
		
			<rect x="29.315" y="49.352" transform="matrix(0.8455 0.534 -0.534 0.8455 34.0914 -18.8291)" clip-path="url(#SVGID_2_)" fill="#FFFFFF" width="40.539" height="0.294"/>
		
			<rect x="25.728" y="52.756" transform="matrix(0.8455 0.534 -0.534 0.8455 35.3582 -16.3887)" clip-path="url(#SVGID_2_)" fill="#FFFFFF" width="40.54" height="0.294"/>
		<polygon clip-path="url(#SVGID_2_)" fill="#FFFFFF" points="59.467,67.26 25.192,45.611 25.347,45.359 59.623,67.008 		"/>
	</g>
	<path fill="#FFFFFF" d="M40.91,59.424c-0.087,0.888,0.572,1.684,1.458,1.765l13.234,1.24c0.886,0.087,1.68-0.574,1.762-1.462
		l5.107-54.471c0.083-0.886-0.572-1.677-1.462-1.762L47.779,3.488c-0.886-0.08-1.68,0.574-1.762,1.462L40.91,59.424z"/>
	<path fill="#394049" d="M64.015,6.638C64.096,5.796,63.84,4.973,63.3,4.32c-0.54-0.654-1.301-1.058-2.143-1.136l-13.231-1.24
		c-0.099-0.009-0.201-0.016-0.298-0.016c-1.652,0-3.008,1.237-3.156,2.876L39.36,59.279c-0.081,0.844,0.175,1.668,0.717,2.321
		c0.542,0.655,1.306,1.059,2.148,1.135l13.233,1.239c0.102,0.012,0.196,0.021,0.293,0.021c1.645,0,3.004-1.237,3.158-2.877
		L64.015,6.638z M55.809,60.887l-0.399-0.035l-12.961-1.216l0.035-0.399l5.087-54.206l0.132,0.012l13.226,1.242l-0.035,0.399
		L55.809,60.887z"/>
	
		<rect x="49.648" y="15.279" transform="matrix(-0.0897 0.996 -0.996 -0.0897 77.1568 -31.5402)" fill="#5B6168" width="6.686" height="8.418"/>
	<polygon fill="#80848A" points="56.168,31.097 56.768,24.433 48.389,23.679 47.784,30.345 	"/>
	
		<rect x="49.498" y="8.242" transform="matrix(-0.996 -0.0899 0.0899 -0.996 106.1508 27.954)" fill="#394049" width="8.413" height="6.691"/>
	
		<rect x="48.222" y="31.082" transform="matrix(-0.0897 0.996 -0.996 -0.0897 91.3393 -12.9064)" fill="#A8ABAF" width="6.691" height="8.414"/>
	
		<rect x="47.507" y="38.979" transform="matrix(-0.0904 0.9959 -0.9959 -0.0904 98.4598 -3.5536)" fill="#D3D4D5" width="6.692" height="8.418"/>
	<polygon fill="#D2D6DE" points="46.248,48.455 45.726,54.295 54.101,55.053 54.627,49.211 	"/>
	<path fill="#FFFFFF" d="M41.025,63.324c0.257,0.853,1.167,1.335,2.02,1.08l12.717-3.87c0.85-0.262,1.335-1.169,1.075-2.022
		L40.909,6.169c-0.262-0.853-1.172-1.339-2.02-1.075L26.173,8.959c-0.848,0.26-1.339,1.172-1.08,2.022L41.025,63.324z"/>
	<path fill="#394049" d="M58.081,60.48c0.401-0.75,0.487-1.608,0.24-2.42L42.392,5.72c-0.397-1.327-1.647-2.253-3.036-2.253
		c-0.323,0-0.632,0.046-0.92,0.136l-12.711,3.87c-0.814,0.25-1.481,0.798-1.88,1.543c-0.394,0.752-0.478,1.611-0.233,2.421
		l15.925,52.341c0.406,1.322,1.659,2.247,3.043,2.247c0.318,0,0.618-0.044,0.918-0.136l12.716-3.873
		C57.022,61.769,57.687,61.223,58.081,60.48z M55.244,59.066l-12.709,3.869l-0.118-0.383L26.563,10.467l0.127-0.039l12.709-3.869
		l0.118,0.384l15.854,52.084L55.244,59.066z"/>
	<g>
		<defs>
			<polygon id="SVGID_3_" points="24.621,9.429 41.5,64.874 57.309,60.064 40.435,4.622 			"/>
		</defs>
		<clipPath id="SVGID_4_">
			<use xlink:href="#SVGID_3_"  overflow="visible"/>
		</clipPath>
		<path clip-path="url(#SVGID_4_)" fill="#394049" d="M23.893,3.935c0.236,0.834-0.248,1.703-1.084,1.937
			c-0.832,0.236-1.703-0.246-1.937-1.077c-0.236-0.832,0.248-1.701,1.084-1.942C22.781,2.617,23.652,3.104,23.893,3.935"/>
		<path clip-path="url(#SVGID_4_)" fill="#394049" d="M30.035,2.186c0.241,0.834-0.248,1.703-1.08,1.937
			c-0.832,0.241-1.699-0.241-1.932-1.082c-0.241-0.827,0.243-1.696,1.075-1.932C28.931,0.871,29.798,1.353,30.035,2.186"/>
		<path clip-path="url(#SVGID_4_)" fill="#394049" d="M36.18,0.442c0.236,0.832-0.246,1.699-1.075,1.932
			c-0.841,0.241-1.703-0.241-1.942-1.077c-0.236-0.832,0.253-1.699,1.08-1.935C35.077-0.878,35.944-0.392,36.18,0.442"/>
		<path clip-path="url(#SVGID_4_)" fill="#394049" d="M42.331-1.306c0.236,0.836-0.248,1.699-1.084,1.937
			c-0.827,0.236-1.699-0.25-1.932-1.08c-0.236-0.829,0.243-1.696,1.08-1.937C41.223-2.622,42.09-2.14,42.331-1.306"/>
		<path clip-path="url(#SVGID_4_)" fill="#394049" d="M28.037,7.253c0.236,0.836-0.248,1.703-1.08,1.937
			c-0.832,0.241-1.699-0.246-1.932-1.077c-0.241-0.834,0.239-1.699,1.075-1.935C26.933,5.937,27.8,6.423,28.037,7.253"/>
		<path clip-path="url(#SVGID_4_)" fill="#394049" d="M34.183,5.506c0.236,0.834-0.246,1.701-1.075,1.94
			c-0.841,0.232-1.703-0.246-1.937-1.08c-0.241-0.834,0.243-1.701,1.075-1.942C33.079,4.193,33.946,4.675,34.183,5.506"/>
		<path clip-path="url(#SVGID_4_)" fill="#394049" d="M40.328,3.762c0.236,0.829-0.246,1.699-1.08,1.932
			c-0.832,0.239-1.703-0.246-1.937-1.077c-0.236-0.832,0.248-1.701,1.08-1.937C39.22,2.441,40.092,2.926,40.328,3.762"/>
		<path clip-path="url(#SVGID_4_)" fill="#394049" d="M26.256,12.259c0.236,0.834-0.246,1.703-1.08,1.937
			c-0.832,0.236-1.699-0.246-1.937-1.082c-0.236-0.832,0.248-1.696,1.08-1.935C25.153,10.94,26.015,11.425,26.256,12.259"/>
		<path clip-path="url(#SVGID_4_)" fill="#394049" d="M32.402,10.51c0.241,0.834-0.246,1.699-1.08,1.937
			c-0.832,0.236-1.699-0.246-1.937-1.082c-0.236-0.832,0.248-1.699,1.08-1.935C31.298,9.194,32.165,9.676,32.402,10.51"/>
		<path clip-path="url(#SVGID_4_)" fill="#394049" d="M38.547,8.764c0.236,0.834-0.248,1.701-1.075,1.935
			c-0.841,0.236-1.703-0.246-1.937-1.08c-0.236-0.829,0.243-1.696,1.075-1.937C37.444,7.445,38.311,7.927,38.547,8.764"/>
		<path clip-path="url(#SVGID_4_)" fill="#394049" d="M44.693,7.015c0.236,0.836-0.246,1.701-1.08,1.935
			c-0.836,0.239-1.699-0.246-1.932-1.075c-0.241-0.834,0.243-1.701,1.075-1.942C43.59,5.697,44.457,6.179,44.693,7.015"/>
		<path clip-path="url(#SVGID_4_)" fill="#394049" d="M30.404,15.578c0.231,0.829-0.248,1.699-1.08,1.932
			c-0.836,0.239-1.703-0.243-1.942-1.077c-0.231-0.832,0.253-1.701,1.084-1.937C29.296,14.26,30.163,14.742,30.404,15.578"/>
		<path clip-path="url(#SVGID_4_)" fill="#394049" d="M36.549,13.83c0.241,0.834-0.248,1.699-1.08,1.935
			c-0.832,0.239-1.699-0.246-1.932-1.08c-0.241-0.832,0.239-1.696,1.075-1.932C35.446,12.512,36.313,12.994,36.549,13.83"/>
		<path clip-path="url(#SVGID_4_)" fill="#394049" d="M42.695,12.081c0.236,0.834-0.246,1.703-1.08,1.937
			c-0.836,0.239-1.699-0.246-1.937-1.082c-0.236-0.832,0.248-1.699,1.08-1.932C41.587,10.765,42.454,11.247,42.695,12.081"/>
		<path clip-path="url(#SVGID_4_)" fill="#394049" d="M28.623,20.582c0.236,0.832-0.248,1.699-1.075,1.932
			c-0.836,0.241-1.703-0.241-1.942-1.077c-0.231-0.832,0.248-1.699,1.08-1.935C27.52,19.267,28.387,19.746,28.623,20.582"/>
		<path clip-path="url(#SVGID_4_)" fill="#394049" d="M34.768,18.831c0.236,0.834-0.246,1.701-1.08,1.939
			c-0.836,0.236-1.703-0.25-1.937-1.08c-0.236-0.834,0.248-1.701,1.08-1.937C33.665,17.518,34.527,18,34.768,18.831"/>
		<path clip-path="url(#SVGID_4_)" fill="#394049" d="M40.914,17.087c0.241,0.834-0.246,1.699-1.08,1.932
			c-0.832,0.239-1.699-0.243-1.937-1.077c-0.236-0.832,0.248-1.696,1.084-1.937C39.806,15.764,40.678,16.251,40.914,17.087"/>
		<path clip-path="url(#SVGID_4_)" fill="#394049" d="M47.06,15.338c0.236,0.829-0.248,1.699-1.075,1.937
			c-0.836,0.236-1.703-0.248-1.942-1.082c-0.236-0.832,0.248-1.696,1.08-1.937C45.957,14.02,46.824,14.502,47.06,15.338"/>
		<path clip-path="url(#SVGID_4_)" fill="#394049" d="M32.771,23.897c0.236,0.834-0.248,1.703-1.08,1.937
			c-0.836,0.236-1.703-0.248-1.937-1.082c-0.236-0.827,0.243-1.696,1.08-1.932C31.667,22.582,32.53,23.064,32.771,23.897"/>
		<path clip-path="url(#SVGID_4_)" fill="#394049" d="M38.912,22.153c0.241,0.834-0.246,1.699-1.08,1.932
			c-0.832,0.241-1.699-0.246-1.932-1.077c-0.236-0.832,0.243-1.699,1.08-1.937C37.813,20.835,38.676,21.317,38.912,22.153"/>
		<path clip-path="url(#SVGID_4_)" fill="#394049" d="M45.062,20.4c0.236,0.836-0.248,1.703-1.08,1.942
			c-0.836,0.236-1.699-0.25-1.932-1.082c-0.241-0.832,0.239-1.699,1.075-1.935C43.959,19.089,44.826,19.571,45.062,20.4"/>
		<path clip-path="url(#SVGID_4_)" fill="#394049" d="M30.99,28.901c0.236,0.836-0.248,1.703-1.08,1.937
			c-0.832,0.236-1.703-0.246-1.937-1.08c-0.236-0.834,0.248-1.696,1.08-1.937C29.882,27.585,30.753,28.067,30.99,28.901"/>
		<path clip-path="url(#SVGID_4_)" fill="#394049" d="M37.136,27.155c0.241,0.834-0.248,1.701-1.08,1.935
			c-0.832,0.236-1.699-0.246-1.932-1.08c-0.241-0.829,0.239-1.696,1.075-1.937C36.032,25.837,36.895,26.319,37.136,27.155"/>
		<path clip-path="url(#SVGID_4_)" fill="#394049" d="M43.277,25.411c0.241,0.829-0.241,1.699-1.075,1.932
			c-0.836,0.236-1.699-0.243-1.937-1.082c-0.236-0.832,0.248-1.696,1.08-1.932C42.178,24.09,43.04,24.575,43.277,25.411"/>
		<path clip-path="url(#SVGID_4_)" fill="#394049" d="M49.432,23.657c0.231,0.836-0.253,1.703-1.084,1.937
			c-0.832,0.241-1.699-0.243-1.932-1.077c-0.241-0.832,0.243-1.696,1.075-1.935C48.324,22.342,49.191,22.824,49.432,23.657"/>
		<path clip-path="url(#SVGID_4_)" fill="#394049" d="M35.138,32.221c0.236,0.834-0.248,1.699-1.084,1.937
			c-0.832,0.236-1.699-0.246-1.932-1.082c-0.236-0.832,0.243-1.699,1.08-1.935C34.03,30.905,34.902,31.387,35.138,32.221"/>
		<path clip-path="url(#SVGID_4_)" fill="#394049" d="M41.283,30.472c0.236,0.836-0.248,1.703-1.08,1.937
			c-0.836,0.236-1.703-0.246-1.937-1.077c-0.236-0.836,0.243-1.699,1.08-1.939C40.18,29.157,41.042,29.643,41.283,30.472"/>
		<path clip-path="url(#SVGID_4_)" fill="#394049" d="M47.425,28.724c0.241,0.836-0.246,1.703-1.08,1.937
			c-0.832,0.236-1.699-0.246-1.932-1.08c-0.241-0.829,0.243-1.696,1.08-1.937C46.322,27.408,47.189,27.89,47.425,28.724"/>
		<path clip-path="url(#SVGID_4_)" fill="#394049" d="M33.352,37.227c0.236,0.829-0.246,1.699-1.075,1.932
			c-0.836,0.239-1.703-0.248-1.937-1.077c-0.236-0.832,0.248-1.701,1.075-1.937C32.249,35.904,33.116,36.391,33.352,37.227"/>
		<path clip-path="url(#SVGID_4_)" fill="#394049" d="M39.502,35.478c0.236,0.829-0.248,1.699-1.08,1.932
			c-0.832,0.241-1.703-0.243-1.937-1.077c-0.236-0.832,0.248-1.701,1.08-1.937C38.394,34.16,39.266,34.642,39.502,35.478"/>
		<path clip-path="url(#SVGID_4_)" fill="#394049" d="M45.648,33.73c0.236,0.834-0.248,1.699-1.08,1.937
			c-0.832,0.236-1.699-0.246-1.937-1.082c-0.236-0.832,0.243-1.699,1.08-1.935C44.545,32.414,45.407,32.896,45.648,33.73"/>
		<path clip-path="url(#SVGID_4_)" fill="#394049" d="M51.79,31.981c0.241,0.836-0.241,1.699-1.075,1.937
			c-0.836,0.236-1.703-0.246-1.937-1.08c-0.236-0.834,0.248-1.696,1.08-1.937C50.686,30.665,51.558,31.147,51.79,31.981"/>
		<path clip-path="url(#SVGID_4_)" fill="#394049" d="M37.5,40.545c0.236,0.832-0.246,1.699-1.08,1.932
			c-0.832,0.241-1.699-0.241-1.932-1.077c-0.241-0.832,0.243-1.699,1.075-1.935C36.397,39.229,37.259,39.711,37.5,40.545"/>
		<path clip-path="url(#SVGID_4_)" fill="#394049" d="M43.65,38.796c0.236,0.832-0.248,1.699-1.084,1.932
			c-0.832,0.241-1.699-0.241-1.932-1.075c-0.236-0.834,0.243-1.696,1.08-1.937C42.542,37.475,43.409,37.962,43.65,38.796"/>
		<path clip-path="url(#SVGID_4_)" fill="#394049" d="M49.792,37.047c0.241,0.836-0.246,1.699-1.075,1.935
			c-0.836,0.239-1.703-0.243-1.937-1.077c-0.236-0.832,0.243-1.696,1.08-1.937C48.688,35.731,49.555,36.213,49.792,37.047"/>
		<path clip-path="url(#SVGID_4_)" fill="#394049" d="M35.719,45.546c0.241,0.834-0.246,1.703-1.075,1.937
			c-0.836,0.239-1.699-0.248-1.937-1.082c-0.241-0.827,0.243-1.699,1.08-1.932C34.616,44.23,35.483,44.71,35.719,45.546"/>
		<path clip-path="url(#SVGID_4_)" fill="#394049" d="M41.865,43.797c0.241,0.834-0.246,1.699-1.075,1.937
			c-0.836,0.241-1.703-0.246-1.937-1.077c-0.241-0.836,0.248-1.699,1.075-1.937C40.762,42.484,41.629,42.964,41.865,43.797"/>
		<path clip-path="url(#SVGID_4_)" fill="#394049" d="M48.015,42.049c0.236,0.836-0.248,1.703-1.084,1.937
			c-0.827,0.241-1.699-0.246-1.932-1.077c-0.236-0.832,0.243-1.699,1.08-1.935C46.907,40.733,47.774,41.22,48.015,42.049"/>
		<path clip-path="url(#SVGID_4_)" fill="#394049" d="M54.161,40.302c0.236,0.834-0.248,1.701-1.08,1.939
			c-0.836,0.236-1.699-0.246-1.932-1.08c-0.241-0.836,0.239-1.701,1.075-1.937C53.058,38.989,53.92,39.471,54.161,40.302"/>
		<path clip-path="url(#SVGID_4_)" fill="#394049" d="M39.867,48.864c0.236,0.836-0.246,1.703-1.075,1.937
			c-0.836,0.236-1.703-0.246-1.937-1.08c-0.241-0.829,0.243-1.696,1.075-1.932C38.764,47.548,39.631,48.03,39.867,48.864"/>
		<path clip-path="url(#SVGID_4_)" fill="#394049" d="M46.013,47.117c0.236,0.834-0.246,1.701-1.08,1.935
			c-0.832,0.241-1.699-0.246-1.937-1.08c-0.236-0.829,0.248-1.696,1.084-1.932C44.91,45.799,45.777,46.281,46.013,47.117"/>
		<path clip-path="url(#SVGID_4_)" fill="#394049" d="M52.159,45.369c0.241,0.834-0.248,1.699-1.075,1.937
			c-0.836,0.239-1.703-0.246-1.937-1.077c-0.241-0.832,0.243-1.701,1.075-1.937C51.055,44.055,51.922,44.535,52.159,45.369"/>
		<path clip-path="url(#SVGID_4_)" fill="#394049" d="M38.086,53.87c0.236,0.832-0.246,1.699-1.08,1.937
			c-0.832,0.236-1.703-0.246-1.932-1.082c-0.241-0.832,0.243-1.699,1.08-1.935C36.983,52.554,37.85,53.036,38.086,53.87"/>
		<path clip-path="url(#SVGID_4_)" fill="#394049" d="M44.236,52.121c0.231,0.836-0.248,1.703-1.08,1.937
			c-0.836,0.236-1.703-0.246-1.937-1.08c-0.236-0.834,0.243-1.696,1.08-1.937C43.128,50.805,43.995,51.287,44.236,52.121"/>
		<path clip-path="url(#SVGID_4_)" fill="#394049" d="M50.378,50.372c0.241,0.836-0.246,1.703-1.075,1.937
			c-0.841,0.236-1.703-0.246-1.942-1.08c-0.236-0.834,0.253-1.701,1.08-1.937C49.275,49.057,50.142,49.538,50.378,50.372"/>
		<path clip-path="url(#SVGID_4_)" fill="#394049" d="M56.528,48.626c0.236,0.834-0.248,1.701-1.084,1.935
			c-0.832,0.236-1.699-0.246-1.932-1.075c-0.236-0.836,0.243-1.701,1.08-1.942C55.42,47.308,56.287,47.795,56.528,48.626"/>
		<path clip-path="url(#SVGID_4_)" fill="#394049" d="M42.234,57.185c0.241,0.836-0.246,1.701-1.08,1.939
			c-0.832,0.236-1.699-0.25-1.932-1.08c-0.241-0.834,0.239-1.701,1.08-1.937C41.131,55.871,41.998,56.353,42.234,57.185"/>
		<path clip-path="url(#SVGID_4_)" fill="#394049" d="M48.38,55.441c0.236,0.834-0.246,1.699-1.08,1.935
			c-0.836,0.236-1.699-0.246-1.937-1.08c-0.236-0.832,0.248-1.701,1.08-1.937C47.276,54.123,48.143,54.605,48.38,55.441"/>
		<path clip-path="url(#SVGID_4_)" fill="#394049" d="M54.526,53.692c0.236,0.834-0.246,1.703-1.08,1.937
			c-0.832,0.236-1.699-0.246-1.937-1.082c-0.236-0.832,0.248-1.696,1.084-1.935C53.422,52.376,54.289,52.858,54.526,53.692"/>
		<path clip-path="url(#SVGID_4_)" fill="#394049" d="M40.453,62.189c0.236,0.836-0.246,1.703-1.08,1.937
			c-0.832,0.236-1.699-0.246-1.937-1.08c-0.236-0.829,0.248-1.696,1.08-1.932C39.35,60.873,40.212,61.355,40.453,62.189"/>
		<path clip-path="url(#SVGID_4_)" fill="#394049" d="M46.599,60.445c0.241,0.832-0.246,1.699-1.08,1.932
			c-0.832,0.241-1.699-0.241-1.937-1.075c-0.236-0.834,0.248-1.701,1.084-1.937C45.491,59.124,46.362,59.611,46.599,60.445"/>
		<path clip-path="url(#SVGID_4_)" fill="#394049" d="M52.749,58.696c0.236,0.832-0.253,1.699-1.08,1.932
			c-0.836,0.241-1.703-0.241-1.937-1.075c-0.236-0.834,0.243-1.701,1.08-1.937C51.641,57.376,52.508,57.862,52.749,58.696"/>
		<path clip-path="url(#SVGID_4_)" fill="#394049" d="M58.89,56.95c0.241,0.834-0.246,1.701-1.08,1.935
			c-0.832,0.236-1.699-0.248-1.932-1.08c-0.241-0.832,0.243-1.701,1.075-1.937C57.787,55.631,58.649,56.113,58.89,56.95"/>
		<path clip-path="url(#SVGID_4_)" fill="#394049" d="M44.596,65.508c0.241,0.834-0.246,1.701-1.075,1.937
			c-0.836,0.236-1.703-0.246-1.937-1.077c-0.236-0.832,0.248-1.701,1.08-1.942C43.498,64.19,44.36,64.677,44.596,65.508"/>
		<path clip-path="url(#SVGID_4_)" fill="#394049" d="M50.747,63.76c0.236,0.834-0.248,1.703-1.08,1.937
			c-0.836,0.236-1.699-0.246-1.932-1.082c-0.236-0.827,0.243-1.696,1.075-1.932C49.644,62.444,50.511,62.931,50.747,63.76"/>
		<path clip-path="url(#SVGID_4_)" fill="#394049" d="M56.893,62.016c0.236,0.832-0.246,1.699-1.08,1.932
			c-0.836,0.241-1.699-0.246-1.937-1.08c-0.236-0.829,0.248-1.696,1.08-1.932C55.789,60.695,56.656,61.182,56.893,62.016"/>
		<path clip-path="url(#SVGID_4_)" fill="#394049" d="M42.82,70.512c0.236,0.836-0.248,1.699-1.08,1.932
			c-0.832,0.241-1.699-0.241-1.937-1.075c-0.231-0.834,0.243-1.701,1.08-1.932C41.717,69.197,42.584,69.678,42.82,70.512"/>
		<path clip-path="url(#SVGID_4_)" fill="#394049" d="M48.966,68.766c0.236,0.834-0.246,1.699-1.08,1.935
			c-0.836,0.236-1.703-0.246-1.932-1.08c-0.241-0.829,0.243-1.701,1.075-1.937C47.863,67.448,48.73,67.93,48.966,68.766"/>
		<path clip-path="url(#SVGID_4_)" fill="#394049" d="M55.112,67.017c0.241,0.834-0.246,1.699-1.08,1.937
			c-0.832,0.236-1.703-0.246-1.937-1.082c-0.236-0.827,0.248-1.696,1.084-1.932C54.004,65.699,54.875,66.183,55.112,67.017"/>
		<path clip-path="url(#SVGID_4_)" fill="#394049" d="M61.257,65.269c0.236,0.834-0.248,1.703-1.075,1.937
			c-0.836,0.241-1.703-0.246-1.937-1.077c-0.241-0.836,0.243-1.701,1.075-1.937C60.154,63.953,61.021,64.435,61.257,65.269"/>
		<path clip-path="url(#SVGID_4_)" fill="#394049" d="M46.968,73.832c0.236,0.832-0.248,1.699-1.08,1.937
			c-0.836,0.236-1.703-0.246-1.937-1.082c-0.236-0.832,0.243-1.696,1.075-1.935C45.865,72.514,46.727,72.998,46.968,73.832"/>
		<path clip-path="url(#SVGID_4_)" fill="#394049" d="M53.109,72.083c0.241,0.834-0.241,1.699-1.075,1.932
			c-0.836,0.241-1.703-0.241-1.937-1.077c-0.241-0.827,0.248-1.696,1.08-1.932C52.006,70.767,52.873,71.249,53.109,72.083"/>
		<path clip-path="url(#SVGID_4_)" fill="#394049" d="M59.259,70.335c0.236,0.836-0.248,1.699-1.08,1.937
			c-0.832,0.236-1.699-0.246-1.937-1.08c-0.236-0.829,0.243-1.701,1.08-1.937C58.156,69.019,59.023,69.501,59.259,70.335"/>
	</g>
	<path fill="#FFFFFF" d="M54.562,56.29c0.543,0.702,0.42,1.722-0.281,2.273l-10.475,8.186c-0.702,0.546-1.725,0.418-2.275-0.281
		L7.852,23.349c-0.55-0.702-0.421-1.725,0.281-2.273L18.6,12.896c0.706-0.55,1.727-0.425,2.27,0.276L54.562,56.29z"/>
	<path fill="#394049" d="M56.434,57.674c0.102-0.849-0.129-1.679-0.646-2.337L22.102,12.22c-0.607-0.774-1.518-1.218-2.505-1.218
		c-0.713,0-1.405,0.238-1.949,0.669L7.175,19.853c-0.664,0.519-1.089,1.27-1.195,2.116c-0.104,0.844,0.127,1.674,0.646,2.336
		l33.684,43.12c0.609,0.775,1.523,1.218,2.505,1.218c0.701,0,1.391-0.24,1.945-0.674l10.478-8.185
		C55.901,59.266,56.326,58.519,56.434,57.674z M53.054,57.543l-10.252,8.014l-0.247-0.321L9.037,22.343l0.104-0.083l10.471-8.179
		l0.247,0.317l33.516,42.898L53.054,57.543z"/>
	<line fill="#FFFFFF" x1="16.7" y1="21.111" x2="23.017" y2="16.176"/>
	<polygon fill="#394049" points="16.885,21.341 16.516,20.881 22.833,15.943 23.197,16.406 	"/>
	<line fill="#FFFFFF" x1="19.607" y1="24.834" x2="25.872" y2="19.942"/>
	<polygon fill="#394049" points="19.787,25.069 19.433,24.604 25.693,19.709 26.057,20.175 	"/>
	<line fill="#FFFFFF" x1="22.523" y1="28.562" x2="28.835" y2="23.627"/>
	<polygon fill="#394049" points="22.698,28.791 22.339,28.332 28.654,23.395 29.02,23.858 	"/>
	<line fill="#FFFFFF" x1="25.43" y1="32.286" x2="31.747" y2="27.351"/>
	
		<rect x="28.296" y="25.812" transform="matrix(0.6179 0.7863 -0.7863 0.6179 34.3716 -11.0856)" fill="#394049" width="0.589" height="8.016"/>
	<line fill="#FFFFFF" x1="28.341" y1="36.014" x2="34.658" y2="31.079"/>
	
		<rect x="31.206" y="29.54" transform="matrix(0.6179 0.7863 -0.7863 0.6179 38.4136 -11.9489)" fill="#394049" width="0.589" height="8.014"/>
	<line fill="#FFFFFF" x1="31.248" y1="39.735" x2="37.57" y2="34.802"/>
	<polygon fill="#394049" points="31.433,39.965 31.069,39.502 37.386,34.572 37.749,35.033 	"/>
	<line fill="#FFFFFF" x1="34.159" y1="43.463" x2="40.476" y2="38.526"/>
	
		<rect x="37.023" y="36.988" transform="matrix(0.6109 0.7917 -0.7917 0.6109 46.9761 -13.5933)" fill="#394049" width="0.588" height="8.013"/>
	<line fill="#FFFFFF" x1="37.071" y1="47.186" x2="43.388" y2="42.249"/>
	
		<rect x="39.934" y="40.712" transform="matrix(0.6128 0.7902 -0.7902 0.6128 50.9106 -14.475)" fill="#394049" width="0.586" height="8.012"/>
	<line fill="#FFFFFF" x1="39.982" y1="50.91" x2="46.295" y2="45.977"/>
	
		<rect x="42.847" y="44.439" transform="matrix(0.6148 0.7887 -0.7887 0.6148 54.8239 -15.3622)" fill="#394049" width="0.584" height="8.011"/>
	<line fill="#FFFFFF" x1="42.894" y1="54.64" x2="49.206" y2="49.701"/>
	
		<rect x="45.756" y="48.158" transform="matrix(0.6179 0.7863 -0.7863 0.6179 58.6146 -16.2739)" fill="#394049" width="0.589" height="8.019"/>
	<line fill="#FFFFFF" x1="45.801" y1="58.362" x2="52.118" y2="53.427"/>
	
		<rect x="48.666" y="51.886" transform="matrix(0.6198 0.7847 -0.7847 0.6198 62.4742 -17.1713)" fill="#394049" width="0.587" height="8.014"/>
	<line fill="#FFFFFF" x1="20.424" y1="21.025" x2="24.388" y2="17.931"/>
	
		<rect x="22.108" y="16.962" transform="matrix(0.6179 0.7863 -0.7863 0.6179 23.8748 -10.1719)" fill="#394049" width="0.589" height="5.03"/>
	<line fill="#FFFFFF" x1="23.312" y1="24.753" x2="27.276" y2="21.654"/>
	
		<rect x="24.999" y="20.688" transform="matrix(0.6179 0.7863 -0.7863 0.6179 27.9106 -11.0203)" fill="#394049" width="0.589" height="5.034"/>
	<line fill="#FFFFFF" x1="26.219" y1="28.551" x2="30.183" y2="25.451"/>
	<polygon fill="#394049" points="26.399,28.779 26.04,28.316 29.997,25.221 30.363,25.682 	"/>
	<line fill="#FFFFFF" x1="29.126" y1="32.209" x2="33.094" y2="29.112"/>
	
		<rect x="30.819" y="28.148" transform="matrix(0.6179 0.7863 -0.7863 0.6179 35.9991 -12.7467)" fill="#394049" width="0.589" height="5.03"/>
	<line fill="#FFFFFF" x1="32.083" y1="36.014" x2="36.052" y2="32.914"/>
	<polygon fill="#394049" points="32.263,36.247 31.904,35.784 35.871,32.684 36.227,33.145 	"/>
	<line fill="#FFFFFF" x1="34.925" y1="39.562" x2="38.889" y2="36.46"/>
	<polygon fill="#394049" points="35.11,39.793 34.746,39.325 38.708,36.235 39.074,36.693 	"/>
	<line fill="#FFFFFF" x1="37.943" y1="43.412" x2="41.907" y2="40.315"/>
	<polygon fill="#394049" points="38.123,43.643 37.764,43.18 41.721,40.085 42.092,40.548 	"/>
	<line fill="#FFFFFF" x1="40.868" y1="47.249" x2="44.832" y2="44.152"/>
	<polygon fill="#394049" points="41.048,47.484 40.684,47.016 44.651,43.922 45.017,44.382 	"/>
	<line fill="#FFFFFF" x1="43.89" y1="51.032" x2="47.854" y2="47.937"/>
	
		<rect x="45.581" y="46.972" transform="matrix(0.6159 0.7878 -0.7878 0.6159 56.6055 -17.1348)" fill="#394049" width="0.591" height="5.031"/>
	<line fill="#FFFFFF" x1="46.742" y1="54.64" x2="50.706" y2="51.541"/>
	
		<rect x="48.429" y="50.574" transform="matrix(0.6179 0.7863 -0.7863 0.6179 60.3613 -18.023)" fill="#394049" width="0.589" height="5.031"/>
</g>
<line fill="none" stroke="#394049" stroke-width="0.7087" stroke-miterlimit="10" x1="0" y1="78.001" x2="88" y2="78.001"/>
</svg>
