<?xml version="1.0" encoding="utf-8"?>
<!-- Generator: Adobe Illustrator 17.0.0, SVG Export Plug-In . SVG Version: 6.00 Build 0)  -->
<!DOCTYPE svg PUBLIC "-//W3C//DTD SVG 1.1//EN" "http://www.w3.org/Graphics/SVG/1.1/DTD/svg11.dtd">
<svg version="1.1" id="Layer_1" xmlns="http://www.w3.org/2000/svg" xmlns:xlink="http://www.w3.org/1999/xlink" x="0px" y="0px"
	 width="88px" height="114.667px" viewBox="0 0 88 114.667" enable-background="new 0 0 88 114.667" xml:space="preserve">
<g>
	<path fill="#394049" stroke="#394049" stroke-width="0.2835" stroke-miterlimit="10" d="M10.431,90.179
		c-0.074-1.419-0.166-3.126-0.15-4.395h-0.046c-0.346,1.193-0.771,2.478-1.283,3.867L7.155,94.59H6.159l-1.647-4.849
		c-0.482-1.435-0.89-2.748-1.179-3.956h-0.03c-0.03,1.269-0.106,2.976-0.196,4.501L2.834,94.65H1.581l0.711-10.181h1.675
		l1.737,4.925c0.424,1.253,0.771,2.372,1.027,3.428h0.046c0.256-1.027,0.621-2.145,1.073-3.428l1.813-4.925h1.675l0.634,10.181
		h-1.283L10.431,90.179z"/>
	<path fill="#394049" stroke="#394049" stroke-width="0.2835" stroke-miterlimit="10" d="M14.697,91.235
		c0.03,1.797,1.179,2.538,2.508,2.538c0.95,0,1.525-0.166,2.023-0.376l0.226,0.95c-0.468,0.212-1.269,0.468-2.432,0.468
		c-2.249,0-3.594-1.495-3.594-3.7c0-2.205,1.299-3.943,3.428-3.943c2.388,0,3.022,2.099,3.022,3.444
		c0,0.272-0.032,0.482-0.046,0.618H14.697z M18.593,90.285c0.016-0.847-0.348-2.159-1.843-2.159c-1.343,0-1.933,1.239-2.037,2.159
		H18.593z"/>
	<path fill="#394049" stroke="#394049" stroke-width="0.2835" stroke-miterlimit="10" d="M23.126,85.588v1.751h1.903v1.013h-1.903
		v3.943c0,0.907,0.256,1.419,0.997,1.419c0.362,0,0.574-0.03,0.771-0.09l0.06,0.997c-0.256,0.106-0.664,0.196-1.177,0.196
		c-0.621,0-1.119-0.212-1.435-0.574c-0.378-0.392-0.514-1.04-0.514-1.903v-3.986h-1.133v-1.013h1.133v-1.343L23.126,85.588z"/>
	<path fill="#394049" stroke="#394049" stroke-width="0.2835" stroke-miterlimit="10" d="M31.662,92.899
		c0,0.634,0.03,1.253,0.12,1.751h-1.207l-0.106-0.92h-0.046c-0.406,0.572-1.193,1.087-2.235,1.087c-1.479,0-2.235-1.043-2.235-2.099
		c0-1.767,1.571-2.734,4.397-2.718v-0.152c0-0.604-0.166-1.691-1.663-1.691c-0.678,0-1.389,0.21-1.903,0.544l-0.3-0.877
		c0.602-0.392,1.479-0.651,2.399-0.651c2.235,0,2.78,1.527,2.78,2.992V92.899z M30.38,90.919c-1.451-0.03-3.096,0.226-3.096,1.647
		c0,0.861,0.572,1.267,1.253,1.267c0.95,0,1.555-0.602,1.767-1.223c0.046-0.136,0.076-0.286,0.076-0.422V90.919z"/>
	<path fill="#394049" stroke="#394049" stroke-width="0.2835" stroke-miterlimit="10" d="M33.81,83.927h1.329V94.65H33.81V83.927z"
		/>
	<path fill="#394049" stroke="#394049" stroke-width="0.2835" stroke-miterlimit="10" d="M38.855,85.286
		c0.016,0.452-0.316,0.814-0.844,0.814c-0.468,0-0.801-0.362-0.801-0.814c0-0.468,0.346-0.831,0.831-0.831
		C38.539,84.455,38.855,84.817,38.855,85.286z M37.377,94.65v-7.311h1.329v7.311H37.377z"/>
	<path fill="#394049" stroke="#394049" stroke-width="0.2835" stroke-miterlimit="10" d="M40.731,93.291
		c0.392,0.256,1.087,0.528,1.753,0.528c0.967,0,1.419-0.484,1.419-1.087c0-0.634-0.378-0.983-1.359-1.345
		c-1.315-0.468-1.933-1.193-1.933-2.069c0-1.179,0.95-2.146,2.522-2.146c0.741,0,1.389,0.212,1.797,0.454l-0.332,0.967
		c-0.286-0.182-0.814-0.424-1.495-0.424c-0.784,0-1.223,0.454-1.223,0.997c0,0.604,0.438,0.877,1.389,1.239
		c1.269,0.484,1.917,1.119,1.917,2.205c0,1.285-0.997,2.205-2.734,2.205c-0.801,0-1.539-0.212-2.053-0.514L40.731,93.291z"/>
	<path fill="#394049" stroke="#394049" stroke-width="0.2835" stroke-miterlimit="10" d="M48.496,85.588v1.751H50.4v1.013h-1.903
		v3.943c0,0.907,0.256,1.419,0.997,1.419c0.362,0,0.574-0.03,0.771-0.09l0.06,0.997c-0.256,0.106-0.664,0.196-1.177,0.196
		c-0.621,0-1.119-0.212-1.435-0.574c-0.378-0.392-0.514-1.04-0.514-1.903v-3.986h-1.133v-1.013h1.133v-1.343L48.496,85.588z"/>
	<path fill="#394049" stroke="#394049" stroke-width="0.2835" stroke-miterlimit="10" d="M52.637,91.235
		c0.03,1.797,1.179,2.538,2.508,2.538c0.95,0,1.525-0.166,2.023-0.376l0.226,0.95c-0.468,0.212-1.269,0.468-2.432,0.468
		c-2.249,0-3.594-1.495-3.594-3.7c0-2.205,1.299-3.943,3.428-3.943c2.388,0,3.022,2.099,3.022,3.444
		c0,0.272-0.032,0.482-0.046,0.618H52.637z M56.534,90.285c0.016-0.847-0.348-2.159-1.843-2.159c-1.343,0-1.933,1.239-2.037,2.159
		H56.534z"/>
	<path fill="#394049" stroke="#394049" stroke-width="0.2835" stroke-miterlimit="10" d="M59.466,89.621
		c0-0.861-0.014-1.601-0.06-2.282h1.163l0.046,1.435h0.06c0.332-0.98,1.133-1.601,2.023-1.601c0.152,0,0.258,0.016,0.378,0.046
		v1.253c-0.136-0.03-0.272-0.044-0.454-0.044c-0.934,0-1.599,0.708-1.781,1.705c-0.03,0.182-0.06,0.394-0.06,0.621v3.896h-1.315
		V89.621z"/>
	<path fill="#394049" stroke="#394049" stroke-width="0.2835" stroke-miterlimit="10" d="M67.111,84.183l-1.843,2.159h-0.95
		l1.329-2.159H67.111z M64.408,94.65v-7.311h1.329v7.311H64.408z"/>
	<path fill="#394049" stroke="#394049" stroke-width="0.2835" stroke-miterlimit="10" d="M73.08,92.899
		c0,0.634,0.03,1.253,0.12,1.751h-1.209l-0.106-0.92h-0.044c-0.408,0.572-1.193,1.087-2.235,1.087c-1.481,0-2.235-1.043-2.235-2.099
		c0-1.767,1.571-2.734,4.395-2.718v-0.152c0-0.604-0.166-1.691-1.661-1.691c-0.681,0-1.389,0.21-1.903,0.544l-0.302-0.877
		c0.604-0.392,1.481-0.651,2.402-0.651c2.235,0,2.78,1.527,2.78,2.992V92.899z M71.795,90.919c-1.449-0.03-3.096,0.226-3.096,1.647
		c0,0.861,0.574,1.267,1.253,1.267c0.953,0,1.557-0.602,1.767-1.223c0.046-0.136,0.076-0.286,0.076-0.422V90.919z"/>
	<path fill="#394049" stroke="#394049" stroke-width="0.2835" stroke-miterlimit="10" d="M84.85,94.65
		c-0.288-0.286-0.561-0.574-0.953-0.997c-0.877,0.814-1.857,1.163-2.976,1.163c-1.977,0-3.126-1.329-3.126-2.854
		c0-1.391,0.831-2.342,1.993-2.976V88.94c-0.528-0.664-0.844-1.405-0.844-2.129c0-1.239,0.89-2.508,2.582-2.508
		c1.269,0,2.252,0.847,2.252,2.162c0,1.07-0.621,1.917-2.235,2.718v0.046c0.861,0.997,1.827,2.113,2.478,2.838
		c0.466-0.708,0.784-1.691,0.98-2.974h1.209c-0.272,1.601-0.711,2.87-1.465,3.76c0.542,0.574,1.073,1.147,1.675,1.797H84.85z
		 M81.163,93.819c0.861,0,1.601-0.392,2.086-0.92c-0.604-0.667-1.737-1.903-2.87-3.202c-0.544,0.346-1.315,0.997-1.315,2.069
		c0,1.163,0.861,2.053,2.086,2.053H81.163z M81.419,85.21c-0.831,0-1.267,0.694-1.267,1.481c0,0.724,0.332,1.283,0.768,1.827
		c1.029-0.588,1.693-1.133,1.693-1.993c0-0.621-0.348-1.315-1.179-1.315H81.419z"/>
	<path fill="#394049" stroke="#394049" stroke-width="0.2835" stroke-miterlimit="10" d="M16.93,111.345
		c-0.484,0.242-1.451,0.498-2.688,0.498c-2.87,0-5.032-1.827-5.032-5.165c0-3.186,2.162-5.348,5.318-5.348
		c1.269,0,2.069,0.272,2.415,0.454l-0.316,1.073c-0.498-0.242-1.209-0.424-2.053-0.424c-2.388,0-3.973,1.527-3.973,4.199
		c0,2.494,1.435,4.095,3.91,4.095c0.801,0,1.617-0.166,2.145-0.424L16.93,111.345z"/>
	<path fill="#394049" stroke="#394049" stroke-width="0.2835" stroke-miterlimit="10" d="M23.669,109.926
		c0,0.634,0.03,1.253,0.12,1.751h-1.207l-0.106-0.92H22.43c-0.406,0.572-1.193,1.087-2.235,1.087c-1.479,0-2.235-1.043-2.235-2.099
		c0-1.767,1.571-2.734,4.397-2.718v-0.152c0-0.604-0.166-1.691-1.663-1.691c-0.678,0-1.389,0.21-1.903,0.544l-0.3-0.877
		c0.602-0.392,1.479-0.651,2.399-0.651c2.235,0,2.78,1.527,2.78,2.992V109.926z M22.386,107.946
		c-1.451-0.03-3.096,0.226-3.096,1.647c0,0.861,0.572,1.267,1.253,1.267c0.95,0,1.555-0.602,1.767-1.223
		c0.046-0.136,0.076-0.286,0.076-0.422V107.946z"/>
	<path fill="#394049" stroke="#394049" stroke-width="0.2835" stroke-miterlimit="10" d="M25.816,106.648
		c0-0.861-0.014-1.601-0.06-2.282h1.163l0.046,1.435h0.06c0.332-0.98,1.133-1.601,2.023-1.601c0.152,0,0.258,0.016,0.378,0.046
		v1.253c-0.136-0.03-0.272-0.044-0.454-0.044c-0.934,0-1.599,0.708-1.781,1.705c-0.03,0.182-0.06,0.394-0.06,0.621v3.896h-1.315
		V106.648z"/>
	<path fill="#394049" stroke="#394049" stroke-width="0.2835" stroke-miterlimit="10" d="M30.758,106.754
		c0-0.937-0.03-1.693-0.06-2.388h1.193l0.06,1.255h0.03c0.544-0.893,1.405-1.421,2.6-1.421c1.767,0,3.096,1.495,3.096,3.717
		c0,2.628-1.601,3.926-3.324,3.926c-0.967,0-1.811-0.422-2.249-1.149h-0.03v3.973h-1.315V106.754z M32.073,108.701
		c0,0.196,0.03,0.378,0.06,0.544c0.242,0.92,1.043,1.555,1.993,1.555c1.405,0,2.222-1.147,2.222-2.824
		c0-1.465-0.771-2.718-2.175-2.718c-0.907,0-1.753,0.648-2.009,1.645c-0.046,0.166-0.09,0.362-0.09,0.544V108.701z"/>
	<path fill="#394049" stroke="#394049" stroke-width="0.2835" stroke-miterlimit="10" d="M40.835,102.313
		c0.016,0.452-0.316,0.814-0.844,0.814c-0.468,0-0.801-0.362-0.801-0.814c0-0.468,0.346-0.831,0.831-0.831
		C40.519,101.482,40.835,101.844,40.835,102.313z M39.356,111.677v-7.311h1.329v7.311H39.356z"/>
	<path fill="#394049" stroke="#394049" stroke-width="0.2835" stroke-miterlimit="10" d="M42.89,106.345
		c0-0.754-0.014-1.375-0.06-1.979h1.179l0.074,1.209h0.03c0.365-0.694,1.209-1.375,2.418-1.375c1.013,0,2.582,0.604,2.582,3.112
		v4.365h-1.329v-4.215c0-1.177-0.436-2.159-1.691-2.159c-0.877,0-1.555,0.621-1.781,1.359c-0.062,0.166-0.092,0.395-0.092,0.621
		v4.395H42.89V106.345z"/>
	<path fill="#394049" stroke="#394049" stroke-width="0.2835" stroke-miterlimit="10" d="M52.877,102.615v1.751h1.903v1.013h-1.903
		v3.943c0,0.907,0.256,1.419,0.997,1.419c0.362,0,0.574-0.03,0.771-0.09l0.06,0.997c-0.256,0.106-0.664,0.196-1.177,0.196
		c-0.621,0-1.119-0.212-1.435-0.574c-0.378-0.392-0.514-1.04-0.514-1.903v-3.986h-1.133v-1.013h1.133v-1.343L52.877,102.615z"/>
	<path fill="#394049" stroke="#394049" stroke-width="0.2835" stroke-miterlimit="10" d="M57.018,108.262
		c0.03,1.797,1.179,2.538,2.508,2.538c0.95,0,1.525-0.166,2.023-0.376l0.226,0.95c-0.468,0.212-1.269,0.468-2.432,0.468
		c-2.249,0-3.594-1.495-3.594-3.7c0-2.205,1.299-3.943,3.428-3.943c2.388,0,3.022,2.099,3.022,3.444
		c0,0.272-0.032,0.482-0.046,0.618H57.018z M60.915,107.312c0.016-0.847-0.348-2.159-1.843-2.159c-1.343,0-1.933,1.239-2.037,2.159
		H60.915z"/>
	<path fill="#394049" stroke="#394049" stroke-width="0.2835" stroke-miterlimit="10" d="M63.849,106.648
		c0-0.861-0.016-1.601-0.062-2.282h1.165l0.044,1.435h0.06c0.332-0.98,1.133-1.601,2.026-1.601c0.15,0,0.256,0.016,0.376,0.046
		v1.253c-0.136-0.03-0.27-0.044-0.452-0.044c-0.937,0-1.601,0.708-1.783,1.705c-0.03,0.182-0.06,0.394-0.06,0.621v3.896h-1.313
		V106.648z"/>
	<path fill="#394049" stroke="#394049" stroke-width="0.2835" stroke-miterlimit="10" d="M71.492,101.21l-1.843,2.159h-0.95
		l1.329-2.159H71.492z M68.789,111.677v-7.311h1.329v7.311H68.789z"/>
	<path fill="#394049" stroke="#394049" stroke-width="0.2835" stroke-miterlimit="10" d="M77.461,109.926
		c0,0.634,0.03,1.253,0.12,1.751h-1.209l-0.106-0.92h-0.044c-0.408,0.572-1.193,1.087-2.235,1.087c-1.481,0-2.235-1.043-2.235-2.099
		c0-1.767,1.571-2.734,4.395-2.718v-0.152c0-0.604-0.166-1.691-1.661-1.691c-0.681,0-1.389,0.21-1.903,0.544l-0.302-0.877
		c0.604-0.392,1.481-0.651,2.402-0.651c2.235,0,2.78,1.527,2.78,2.992V109.926z M76.176,107.946
		c-1.449-0.03-3.096,0.226-3.096,1.647c0,0.861,0.574,1.267,1.253,1.267c0.953,0,1.557-0.602,1.767-1.223
		c0.046-0.136,0.076-0.286,0.076-0.422V107.946z"/>
</g>
<g>
	<path fill="#394049" d="M78.245,7.684l-38.173,15.34l0,0.001c-2.198-0.687-4.534-1.058-6.956-1.058
		c-12.881,0-23.361,10.478-23.361,23.358c0,12.883,10.48,23.363,23.361,23.363c9.98,0,18.493-6.302,21.832-15.128L78.245,40.99
		V7.684z M33.116,65.579c-11.169,0-20.255-9.086-20.255-20.255c0-11.168,9.086-20.253,20.255-20.253s20.255,9.085,20.255,20.253
		C53.371,56.493,44.285,65.579,33.116,65.579z"/>
	<path fill="#394049" d="M33.116,35.266c-5.547,0-10.059,4.512-10.059,10.058c0,5.547,4.512,10.061,10.059,10.061
		c5.545,0,10.057-4.514,10.057-10.061C43.172,39.778,38.661,35.266,33.116,35.266z M33.116,52.279c-3.833,0-6.951-3.12-6.951-6.955
		c0-3.834,3.118-6.953,6.951-6.953c3.835,0,6.955,3.119,6.955,6.953C40.071,49.159,36.951,52.279,33.116,52.279z"/>
	
		<rect x="15.835" y="17.478" transform="matrix(0.9232 0.3844 -0.3844 0.9232 9.1923 -4.7576)" fill="#394049" width="1.326" height="6.278"/>
	
		<rect x="25.27" y="12.8" transform="matrix(0.5202 0.8541 -0.8541 0.5202 28.3344 -13.2224)" fill="#394049" width="1.329" height="11.61"/>
	
		<rect x="24.423" y="3.671" transform="matrix(0.8308 0.5565 -0.5565 0.8308 9.3972 -12.396)" fill="#394049" width="1.33" height="11.175"/>
	
		<rect x="39.404" y="-4.076" transform="matrix(0.3639 0.9314 -0.9314 0.3639 31.7938 -33.0152)" fill="#394049" width="1.33" height="21.693"/>
	
		<rect x="46.763" y="3.151" transform="matrix(0.1717 0.9852 -0.9852 0.1717 51.4272 -36.5144)" fill="#394049" width="1.329" height="18.35"/>
	
		<rect x="58.784" y="54.842" transform="matrix(0.0594 0.9982 -0.9982 0.0594 118.9544 0.0535)" fill="#394049" width="1.329" height="16.612"/>
	
		<rect x="64.918" y="48.459" transform="matrix(0.3013 0.9535 -0.9535 0.3013 99.158 -23.4547)" fill="#394049" width="1.331" height="14.949"/>
	<path fill="#394049" d="M40.072,23.024"/>
</g>
<line fill="none" stroke="#394049" stroke-width="0.7087" stroke-miterlimit="10" x1="0" y1="78.001" x2="88" y2="78.001"/>
</svg>
