<?xml version="1.0" encoding="utf-8"?>
<!-- Generator: Adobe Illustrator 17.0.0, SVG Export Plug-In . SVG Version: 6.00 Build 0)  -->
<!DOCTYPE svg PUBLIC "-//W3C//DTD SVG 1.1//EN" "http://www.w3.org/Graphics/SVG/1.1/DTD/svg11.dtd">
<svg version="1.1" id="Layer_1" xmlns="http://www.w3.org/2000/svg" xmlns:xlink="http://www.w3.org/1999/xlink" x="0px" y="0px"
	 width="88px" height="114.667px" viewBox="0 0 88 114.667" enable-background="new 0 0 88 114.667" xml:space="preserve">
<path fill="#FFFFFF" stroke="#FFFFFF" stroke-width="0.2062" stroke-miterlimit="10" d="M72.373,49.962
	c0,9.264-12.699,16.78-28.368,16.78c-15.672,0-28.378-7.516-28.378-16.78c0-9.262,12.706-16.778,28.378-16.778
	C59.674,33.184,72.373,40.7,72.373,49.962"/>
<g>
	<path fill="#394049" d="M65.034,36.457c-5.646-3.337-13.114-5.175-21.031-5.175c-7.92,0-15.39,1.838-21.036,5.175
		c-5.959,3.529-9.241,8.325-9.241,13.505c0,5.184,3.283,9.978,9.241,13.505c5.646,3.339,13.116,5.177,21.036,5.177
		c7.915,0,15.385-1.838,21.031-5.177c5.959-3.524,9.242-8.32,9.242-13.505C74.275,44.78,70.993,39.984,65.034,36.457z
		 M63.099,60.186c-5.078,2.998-11.861,4.652-19.096,4.652c-7.24,0-14.021-1.653-19.094-4.652c-4.758-2.809-7.38-6.442-7.38-10.224
		c0-3.78,2.622-7.413,7.38-10.227c5.075-3,11.856-4.65,19.094-4.65c7.233,0,14.016,1.651,19.096,4.65
		c4.753,2.816,7.373,6.449,7.373,10.227C70.472,53.742,67.852,57.375,63.099,60.186z"/>
	<path fill="#FFFFFF" d="M44.002,68.748c-7.939,0-15.428-1.845-21.088-5.194c-5.992-3.545-9.294-8.372-9.294-13.592
		c0-5.218,3.302-10.044,9.294-13.593c5.66-3.347,13.152-5.189,21.088-5.189c7.934,0,15.423,1.843,21.083,5.189
		c5.992,3.547,9.294,8.373,9.294,13.593c0,5.222-3.302,10.049-9.294,13.592C59.425,66.903,51.939,68.748,44.002,68.748z
		 M44.002,31.385c-7.901,0-15.352,1.833-20.984,5.161c-5.926,3.509-9.189,8.274-9.189,13.416c0,5.144,3.264,9.909,9.189,13.417
		c5.63,3.328,13.081,5.161,20.984,5.161c7.899,0,15.35-1.833,20.979-5.161c5.926-3.505,9.189-8.27,9.189-13.417
		c0-5.144-3.264-9.909-9.189-13.416C59.35,33.218,51.901,31.385,44.002,31.385z M44.002,64.942c-7.257,0-14.056-1.658-19.146-4.668
		c-4.791-2.828-7.432-6.489-7.432-10.312c0-3.818,2.641-7.482,7.432-10.314c5.09-3.009,11.889-4.666,19.146-4.666
		c7.254,0,14.054,1.657,19.149,4.666c4.787,2.835,7.425,6.499,7.425,10.314c0,3.82-2.638,7.482-7.425,10.312
		C58.056,63.284,51.254,64.942,44.002,64.942z M44.002,35.188c-7.221,0-13.983,1.646-19.042,4.635
		c-4.725,2.797-7.328,6.397-7.328,10.139c0,3.747,2.603,7.344,7.328,10.134c5.059,2.991,11.823,4.637,19.042,4.637
		c7.217,0,13.981-1.646,19.044-4.635c4.72-2.795,7.321-6.392,7.321-10.137c0-3.74-2.601-7.34-7.321-10.139
		C57.983,36.834,51.219,35.188,44.002,35.188z"/>
</g>
<path fill="#394049" d="M73.963,46.613c0-4.237-3.273-8.119-9.218-10.933c-5.57-2.634-12.939-4.084-20.742-4.084
	c-7.811,0-15.179,1.451-20.742,4.084c-5.949,2.811-9.223,6.695-9.223,10.933c0,4.235,3.273,8.119,9.223,10.937
	c5.568,2.631,12.934,4.081,20.742,4.081c7.802,0,15.167-1.449,20.742-4.081C70.69,54.729,73.963,50.845,73.963,46.613z
	 M63.385,54.67c-5.154,2.442-12.036,3.787-19.383,3.787s-14.232-1.345-19.388-3.787c-4.701-2.224-7.399-5.161-7.399-8.057
	c0-2.899,2.698-5.836,7.399-8.055c5.147-2.441,12.031-3.785,19.388-3.785c7.354,0,14.239,1.344,19.383,3.785
	c4.704,2.219,7.401,5.156,7.401,8.055C70.787,49.509,68.089,52.446,63.385,54.67z"/>
<path fill="#FFFFFF" stroke="#FFFFFF" stroke-width="0.2062" stroke-miterlimit="10" d="M15.627,49.962V37.244
	c0-16.29,12.706-29.501,28.378-29.501c15.669,0,28.368,13.21,28.368,29.501v12.718"/>
<path fill="#394049" d="M44.002,10.404c14.731,0,26.715,12.489,26.715,27.84v12.368h3.312V38.244
	c0-17.181-13.47-31.158-30.027-31.158c-16.56,0-30.032,13.978-30.032,31.158v12.368h3.312V38.244
	C17.282,22.893,29.269,10.404,44.002,10.404z"/>
<path fill="#394049" d="M44.001,32.288c4.618,0,8.375,3.755,8.375,8.371v17.777h3.682V40.659c0-6.648-5.409-12.057-12.057-12.057
	c-6.65,0-12.06,5.409-12.06,12.057v17.777h3.682V40.659C35.624,36.043,39.382,32.288,44.001,32.288z"/>
<path fill="#FFFFFF" stroke="#FFFFFF" stroke-width="0.2062" stroke-miterlimit="10" d="M49.846,34.906V10.855
	c0-3.228-2.614-5.847-5.845-5.847c-3.228,0-5.847,2.619-5.847,5.847v24.051"/>
<path fill="#394049" d="M44.001,5.458c2.506,0,4.545,2.15,4.545,4.793v24.804h2.6V10.251c0-4.197-3.205-7.612-7.145-7.612
	c-3.941,0-7.147,3.415-7.147,7.612v24.804h2.602V10.251C39.456,7.608,41.495,5.458,44.001,5.458z"/>
<g>
	<path fill="#394049" stroke="#394049" stroke-width="0.2835" stroke-miterlimit="10" d="M17.347,84.498h5.484v1.103h-4.169v3.387
		h3.85v1.084h-3.85v4.609h-1.315V84.498z"/>
	<path fill="#394049" stroke="#394049" stroke-width="0.2835" stroke-miterlimit="10" d="M26.142,85.314
		c0.014,0.452-0.318,0.817-0.847,0.817c-0.468,0-0.801-0.365-0.801-0.817c0-0.466,0.348-0.831,0.831-0.831
		C25.823,84.484,26.142,84.848,26.142,85.314z M24.661,94.681v-7.313h1.329v7.313H24.661z"/>
	<path fill="#394049" stroke="#394049" stroke-width="0.2835" stroke-miterlimit="10" d="M29.798,85.619v1.749h1.903v1.015h-1.903
		v3.94c0,0.909,0.256,1.421,0.997,1.421c0.362,0,0.574-0.032,0.771-0.092l0.06,0.997c-0.256,0.106-0.664,0.198-1.177,0.198
		c-0.621,0-1.119-0.212-1.435-0.577c-0.378-0.392-0.514-1.038-0.514-1.901v-3.986h-1.133v-1.015h1.133v-1.343L29.798,85.619z"/>
	<path fill="#394049" stroke="#394049" stroke-width="0.2835" stroke-miterlimit="10" d="M36.279,90.104v0.983h-3.73v-0.983H36.279z
		"/>
	<path fill="#394049" stroke="#394049" stroke-width="0.2835" stroke-miterlimit="10" d="M44.452,90.962
		c0,2.704-1.873,3.885-3.64,3.885c-1.977,0-3.502-1.449-3.502-3.76c0-2.45,1.599-3.885,3.624-3.885
		C43.033,87.202,44.452,88.729,44.452,90.962z M38.652,91.04c0,1.601,0.923,2.81,2.222,2.81c1.269,0,2.219-1.195,2.219-2.842
		c0-1.237-0.618-2.81-2.189-2.81C39.333,88.198,38.652,89.652,38.652,91.04z"/>
	<path fill="#394049" stroke="#394049" stroke-width="0.2835" stroke-miterlimit="10" d="M52.25,92.688
		c0,0.752,0.014,1.416,0.06,1.993h-1.179l-0.076-1.195h-0.03c-0.346,0.591-1.117,1.361-2.415,1.361
		c-1.149,0-2.522-0.637-2.522-3.202v-4.277h1.329v4.051c0,1.389,0.422,2.325,1.631,2.325c0.89,0,1.509-0.618,1.751-1.209
		c0.076-0.198,0.122-0.438,0.122-0.678v-4.489h1.329V92.688z"/>
	<path fill="#394049" stroke="#394049" stroke-width="0.2835" stroke-miterlimit="10" d="M56.059,85.619v1.749h1.903v1.015h-1.903
		v3.94c0,0.909,0.256,1.421,0.997,1.421c0.362,0,0.574-0.032,0.771-0.092l0.06,0.997c-0.256,0.106-0.664,0.198-1.177,0.198
		c-0.621,0-1.119-0.212-1.435-0.577c-0.378-0.392-0.514-1.038-0.514-1.901v-3.986h-1.133v-1.015h1.133v-1.343L56.059,85.619z"/>
	<path fill="#394049" stroke="#394049" stroke-width="0.2835" stroke-miterlimit="10" d="M69.082,94.681
		c-0.286-0.286-0.558-0.577-0.95-0.997c-0.877,0.812-1.859,1.163-2.976,1.163c-1.979,0-3.126-1.329-3.126-2.856
		c0-1.389,0.831-2.339,1.993-2.976v-0.046c-0.528-0.664-0.847-1.403-0.847-2.127c0-1.241,0.893-2.51,2.584-2.51
		c1.269,0,2.249,0.849,2.249,2.164c0,1.07-0.618,1.915-2.235,2.718v0.046c0.861,0.997,1.827,2.113,2.478,2.838
		c0.468-0.711,0.784-1.693,0.983-2.976h1.207c-0.272,1.601-0.708,2.87-1.465,3.76c0.544,0.577,1.073,1.149,1.677,1.799H69.082z
		 M65.397,93.85c0.861,0,1.601-0.392,2.083-0.923c-0.604-0.664-1.737-1.901-2.87-3.202c-0.542,0.346-1.313,0.997-1.313,2.072
		c0,1.163,0.861,2.053,2.083,2.053H65.397z M65.653,85.241c-0.831,0-1.269,0.692-1.269,1.481c0,0.724,0.332,1.283,0.771,1.827
		c1.027-0.591,1.691-1.135,1.691-1.993c0-0.623-0.346-1.315-1.179-1.315H65.653z"/>
</g>
<g>
	<path fill="#394049" stroke="#394049" stroke-width="0.2835" stroke-miterlimit="10" d="M15.269,102.769
		c0.664-0.138,1.617-0.212,2.524-0.212c1.405,0,2.309,0.258,2.944,0.831c0.514,0.452,0.801,1.149,0.801,1.933
		c0,1.343-0.844,2.238-1.917,2.598v0.046c0.784,0.272,1.253,0.997,1.495,2.053c0.332,1.421,0.574,2.404,0.784,2.796H20.54
		c-0.166-0.305-0.392-1.163-0.678-2.432c-0.302-1.407-0.847-1.933-2.039-1.979h-1.239v4.411h-1.315V102.769z M16.584,107.406h1.345
		c1.403,0,2.295-0.771,2.295-1.933c0-1.315-0.953-1.887-2.342-1.906c-0.634,0-1.087,0.065-1.299,0.125V107.406z"/>
	<path fill="#394049" stroke="#394049" stroke-width="0.2835" stroke-miterlimit="10" d="M24.093,109.399
		c0.03,1.795,1.179,2.538,2.508,2.538c0.95,0,1.525-0.166,2.023-0.378l0.226,0.95c-0.468,0.212-1.269,0.471-2.432,0.471
		c-2.249,0-3.594-1.495-3.594-3.7c0-2.205,1.299-3.945,3.428-3.945c2.388,0,3.022,2.099,3.022,3.447c0,0.272-0.032,0.48-0.046,0.618
		H24.093z M27.99,108.449c0.016-0.849-0.348-2.159-1.843-2.159c-1.343,0-1.933,1.237-2.037,2.159H27.99z"/>
	<path fill="#394049" stroke="#394049" stroke-width="0.2835" stroke-miterlimit="10" d="M31.06,112.814v-6.298h-1.029v-1.015h1.029
		v-0.346c0-1.024,0.226-1.961,0.844-2.552c0.498-0.484,1.163-0.678,1.783-0.678c0.468,0,0.874,0.106,1.133,0.208l-0.182,1.029
		c-0.196-0.092-0.468-0.166-0.844-0.166c-1.133,0-1.421,0.997-1.421,2.113v0.392h1.767v1.015h-1.767v6.298H31.06z"/>
	<path fill="#394049" stroke="#394049" stroke-width="0.2835" stroke-miterlimit="10" d="M41.951,109.095
		c0,2.704-1.873,3.885-3.64,3.885c-1.979,0-3.504-1.449-3.504-3.76c0-2.45,1.601-3.885,3.624-3.885
		C40.53,105.334,41.951,106.862,41.951,109.095z M36.152,109.173c0,1.601,0.92,2.81,2.219,2.81c1.269,0,2.219-1.195,2.219-2.842
		c0-1.237-0.618-2.81-2.189-2.81C36.83,106.331,36.152,107.784,36.152,109.173z"/>
	<path fill="#394049" stroke="#394049" stroke-width="0.2835" stroke-miterlimit="10" d="M43.631,107.784
		c0-0.863-0.016-1.601-0.062-2.284h1.165l0.044,1.435h0.06c0.332-0.978,1.133-1.601,2.026-1.601c0.15,0,0.256,0.018,0.376,0.046
		v1.255c-0.136-0.032-0.27-0.046-0.452-0.046c-0.937,0-1.601,0.711-1.783,1.707c-0.03,0.18-0.06,0.392-0.06,0.618v3.899h-1.313
		V107.784z"/>
	<path fill="#394049" stroke="#394049" stroke-width="0.2835" stroke-miterlimit="10" d="M48.572,107.48
		c0-0.752-0.016-1.375-0.062-1.979h1.165l0.06,1.181h0.044c0.408-0.697,1.089-1.347,2.298-1.347c0.997,0,1.751,0.604,2.067,1.467
		h0.032c0.226-0.406,0.512-0.724,0.814-0.95c0.438-0.332,0.92-0.517,1.617-0.517c0.967,0,2.402,0.637,2.402,3.174v4.305H57.71
		v-4.139c0-1.407-0.514-2.252-1.587-2.252c-0.754,0-1.345,0.558-1.571,1.209c-0.06,0.18-0.106,0.424-0.106,0.664v4.517h-1.299
		v-4.383c0-1.163-0.512-2.007-1.525-2.007c-0.831,0-1.435,0.664-1.645,1.329c-0.076,0.198-0.106,0.424-0.106,0.651v4.411h-1.299
		V107.48z"/>
	<path fill="#394049" stroke="#394049" stroke-width="0.2835" stroke-miterlimit="10" d="M66.309,111.06
		c0,0.637,0.03,1.255,0.12,1.753h-1.207l-0.106-0.923H65.07c-0.406,0.572-1.193,1.089-2.235,1.089c-1.479,0-2.235-1.043-2.235-2.099
		c0-1.767,1.571-2.736,4.397-2.718v-0.152c0-0.604-0.166-1.693-1.663-1.693c-0.678,0-1.389,0.212-1.903,0.544l-0.3-0.877
		c0.602-0.392,1.479-0.651,2.399-0.651c2.235,0,2.78,1.527,2.78,2.994V111.06z M65.026,109.081
		c-1.451-0.028-3.096,0.226-3.096,1.647c0,0.863,0.572,1.269,1.253,1.269c0.95,0,1.555-0.604,1.767-1.223
		c0.046-0.138,0.076-0.286,0.076-0.424V109.081z"/>
	<path fill="#394049" stroke="#394049" stroke-width="0.2835" stroke-miterlimit="10" d="M68.276,111.453
		c0.392,0.258,1.087,0.531,1.751,0.531c0.967,0,1.419-0.484,1.419-1.089c0-0.632-0.376-0.983-1.359-1.343
		c-1.313-0.471-1.933-1.195-1.933-2.072c0-1.177,0.953-2.146,2.524-2.146c0.738,0,1.389,0.212,1.797,0.457l-0.332,0.964
		c-0.288-0.18-0.817-0.424-1.497-0.424c-0.784,0-1.223,0.457-1.223,0.997c0,0.604,0.438,0.877,1.389,1.241
		c1.269,0.484,1.919,1.117,1.919,2.205c0,1.283-0.997,2.205-2.734,2.205c-0.801,0-1.541-0.212-2.053-0.517L68.276,111.453z"/>
</g>
<line fill="none" stroke="#394049" stroke-width="0.7087" stroke-miterlimit="10" x1="0" y1="78.001" x2="88" y2="78.001"/>
</svg>
